%TF.GenerationSoftware,KiCad,Pcbnew,10.0.1-1.fc44*%
%TF.CreationDate,2026-05-23T21:55:02+02:00*%
%TF.ProjectId,resoncance_converter_controller,7265736f-6e63-4616-9e63-655f636f6e76,rev?*%
%TF.SameCoordinates,Original*%
%TF.FileFunction,Copper,L4,Inr*%
%TF.FilePolarity,Positive*%
%FSLAX46Y46*%
G04 Gerber Fmt 4.6, Leading zero omitted, Abs format (unit mm)*
G04 Created by KiCad (PCBNEW 10.0.1-1.fc44) date 2026-05-23 21:55:02*
%MOMM*%
%LPD*%
G01*
G04 APERTURE LIST*
G04 Aperture macros list*
%AMRoundRect*
0 Rectangle with rounded corners*
0 $1 Rounding radius*
0 $2 $3 $4 $5 $6 $7 $8 $9 X,Y pos of 4 corners*
0 Add a 4 corners polygon primitive as box body*
4,1,4,$2,$3,$4,$5,$6,$7,$8,$9,$2,$3,0*
0 Add four circle primitives for the rounded corners*
1,1,$1+$1,$2,$3*
1,1,$1+$1,$4,$5*
1,1,$1+$1,$6,$7*
1,1,$1+$1,$8,$9*
0 Add four rect primitives between the rounded corners*
20,1,$1+$1,$2,$3,$4,$5,0*
20,1,$1+$1,$4,$5,$6,$7,0*
20,1,$1+$1,$6,$7,$8,$9,0*
20,1,$1+$1,$8,$9,$2,$3,0*%
G04 Aperture macros list end*
%TA.AperFunction,ComponentPad*%
%ADD10C,0.600000*%
%TD*%
%TA.AperFunction,ComponentPad*%
%ADD11C,0.700000*%
%TD*%
%TA.AperFunction,ComponentPad*%
%ADD12C,4.400000*%
%TD*%
%TA.AperFunction,HeatsinkPad*%
%ADD13O,2.100000X1.000000*%
%TD*%
%TA.AperFunction,HeatsinkPad*%
%ADD14O,1.800000X1.000000*%
%TD*%
%TA.AperFunction,HeatsinkPad*%
%ADD15C,0.500000*%
%TD*%
%TA.AperFunction,ComponentPad*%
%ADD16RoundRect,0.760000X-1.140000X1.140000X-1.140000X-1.140000X1.140000X-1.140000X1.140000X1.140000X0*%
%TD*%
%TA.AperFunction,ComponentPad*%
%ADD17C,3.800000*%
%TD*%
%TA.AperFunction,ComponentPad*%
%ADD18C,0.500000*%
%TD*%
%TA.AperFunction,ComponentPad*%
%ADD19O,1.400000X2.400000*%
%TD*%
%TA.AperFunction,ComponentPad*%
%ADD20O,1.400000X2.100000*%
%TD*%
%TA.AperFunction,ViaPad*%
%ADD21C,0.450000*%
%TD*%
%TA.AperFunction,ViaPad*%
%ADD22C,0.800000*%
%TD*%
%TA.AperFunction,ViaPad*%
%ADD23C,0.300000*%
%TD*%
%TA.AperFunction,ViaPad*%
%ADD24C,1.500000*%
%TD*%
%TA.AperFunction,Conductor*%
%ADD25C,0.100000*%
%TD*%
%TA.AperFunction,Conductor*%
%ADD26C,0.200000*%
%TD*%
%TA.AperFunction,Conductor*%
%ADD27C,1.000000*%
%TD*%
%TA.AperFunction,Conductor*%
%ADD28C,0.141000*%
%TD*%
G04 APERTURE END LIST*
D10*
%TO.N,GND*%
%TO.C,U4*%
X123135000Y-71175000D03*
X123135000Y-72675000D03*
X123135000Y-74175000D03*
X123135000Y-75675000D03*
X124735000Y-71175000D03*
X124735000Y-75675000D03*
X126335000Y-71175000D03*
X126335000Y-72675000D03*
X126335000Y-74175000D03*
X126335000Y-75675000D03*
%TD*%
D11*
%TO.N,GND*%
%TO.C,H3*%
X88075000Y-51375000D03*
X88558274Y-50208274D03*
X88558274Y-52541726D03*
X89725000Y-49725000D03*
D12*
X89725000Y-51375000D03*
D11*
X89725000Y-53025000D03*
X90891726Y-50208274D03*
X90891726Y-52541726D03*
X91375000Y-51375000D03*
%TD*%
%TO.N,GND*%
%TO.C,H4*%
X142475000Y-99675000D03*
X142958274Y-98508274D03*
X142958274Y-100841726D03*
X144125000Y-98025000D03*
D12*
X144125000Y-99675000D03*
D11*
X144125000Y-101325000D03*
X145291726Y-98508274D03*
X145291726Y-100841726D03*
X145775000Y-99675000D03*
%TD*%
D13*
%TO.N,GND*%
%TO.C,J2*%
X93035000Y-38490000D03*
D14*
X88855000Y-38490000D03*
D13*
X93035000Y-47130000D03*
D14*
X88855000Y-47130000D03*
%TD*%
D11*
%TO.N,GND*%
%TO.C,H2*%
X142475000Y-51375000D03*
X142958274Y-50208274D03*
X142958274Y-52541726D03*
X144125000Y-49725000D03*
D12*
X144125000Y-51375000D03*
D11*
X144125000Y-53025000D03*
X145291726Y-50208274D03*
X145291726Y-52541726D03*
X145775000Y-51375000D03*
%TD*%
D15*
%TO.N,GND*%
%TO.C,U24*%
X106150000Y-85950000D03*
X106150000Y-87850000D03*
X106150001Y-86900000D03*
X107100000Y-85950001D03*
X107100000Y-86900000D03*
X107100000Y-87849999D03*
X108049999Y-86900000D03*
X108050000Y-85950000D03*
X108050000Y-87850000D03*
%TD*%
D11*
%TO.N,GND*%
%TO.C,H6*%
X88075000Y-99525000D03*
X88558274Y-98358274D03*
X88558274Y-100691726D03*
X89725000Y-97875000D03*
D12*
X89725000Y-99525000D03*
D11*
X89725000Y-101175000D03*
X90891726Y-98358274D03*
X90891726Y-100691726D03*
X91375000Y-99525000D03*
%TD*%
D16*
%TO.N,GND*%
%TO.C,J5*%
X144500000Y-40575000D03*
D17*
%TO.N,+BATT*%
X144500000Y-45575000D03*
%TD*%
D11*
%TO.N,GND*%
%TO.C,H1*%
X115225000Y-40775000D03*
X115708274Y-39608274D03*
X115708274Y-41941726D03*
X116875000Y-39125000D03*
D12*
X116875000Y-40775000D03*
D11*
X116875000Y-42425000D03*
X118041726Y-39608274D03*
X118041726Y-41941726D03*
X118525000Y-40775000D03*
%TD*%
D18*
%TO.N,GND*%
%TO.C,U3*%
X140962500Y-56295000D03*
X140387500Y-57245000D03*
X140387500Y-55345000D03*
X139812500Y-56295000D03*
%TD*%
D15*
%TO.N,GND*%
%TO.C,U12*%
X102500000Y-91100000D03*
X102500000Y-93000000D03*
X102500001Y-92050000D03*
X103450000Y-91100001D03*
X103450000Y-92050000D03*
X103450000Y-92999999D03*
X104399999Y-92050000D03*
X104400000Y-91100000D03*
X104400000Y-93000000D03*
%TD*%
D19*
%TO.N,VSYS*%
%TO.C,J6*%
X145475000Y-107725000D03*
D20*
X145475000Y-112475000D03*
D19*
%TO.N,VOUT*%
X88825000Y-107725000D03*
D20*
%TO.N,VBUS_DOCK*%
X88825000Y-112475000D03*
D19*
%TO.N,N/C*%
X142350000Y-110025000D03*
X91950000Y-110025000D03*
%TD*%
D21*
%TO.N,GND*%
X124857500Y-52325003D03*
X146454999Y-54575000D03*
X108550000Y-111650000D03*
D22*
X98682000Y-45881200D03*
D21*
X108500000Y-51300000D03*
D23*
X112560000Y-81750000D03*
D21*
X123000000Y-79155000D03*
X126660000Y-82970000D03*
X99150000Y-105625000D03*
X104500000Y-50000000D03*
D23*
X122185000Y-94250000D03*
D21*
X127625000Y-81725000D03*
X108500000Y-50000000D03*
X102250000Y-86950000D03*
X127550000Y-55410000D03*
X116450000Y-97850000D03*
X145950000Y-97050000D03*
X132800000Y-86500000D03*
X105500000Y-50000000D03*
X92275000Y-52625000D03*
X115575000Y-70875000D03*
X129550000Y-115025000D03*
D22*
X100105000Y-63950000D03*
X105725000Y-68830000D03*
D21*
X106200000Y-102250000D03*
X102850000Y-111450000D03*
X121550000Y-115025000D03*
X125375000Y-56175000D03*
X140750000Y-115025000D03*
X117595000Y-82735000D03*
X128625000Y-97800000D03*
X112750000Y-105100000D03*
X115575000Y-72175000D03*
X124857500Y-51750000D03*
D23*
X123785000Y-91050000D03*
D21*
X89050000Y-72750000D03*
X96150000Y-91350000D03*
X113850000Y-103250000D03*
X90320000Y-83325000D03*
X107100000Y-98050000D03*
X139950000Y-91745000D03*
X134275000Y-94925000D03*
X142200000Y-71950000D03*
X115000000Y-86265000D03*
D23*
X123785000Y-90250000D03*
D21*
X110100000Y-105700000D03*
D22*
X135050000Y-48025000D03*
D24*
X114400000Y-110200000D03*
D21*
X119950000Y-115025000D03*
D24*
X133850000Y-61500000D03*
D21*
X132775000Y-105700000D03*
X115950000Y-105700000D03*
X112925000Y-100675000D03*
X130350000Y-115025000D03*
X136015000Y-55375000D03*
X116775000Y-80125000D03*
X107500000Y-51300000D03*
X103150000Y-105900000D03*
X130350000Y-105700000D03*
X134375000Y-105175000D03*
D22*
X138250000Y-91050000D03*
X135850000Y-91075000D03*
D21*
X95950000Y-105625000D03*
D22*
X111875000Y-74275000D03*
D21*
X103700000Y-97900000D03*
D22*
X101805000Y-59300000D03*
D21*
X107000000Y-51300000D03*
D22*
X97655000Y-63950000D03*
X115400000Y-54500000D03*
D21*
X102200000Y-65050000D03*
D22*
X118535000Y-73425000D03*
D21*
X104000000Y-51300000D03*
X110600000Y-98050000D03*
X105580000Y-62350000D03*
D23*
X124585000Y-90250000D03*
D21*
X116750000Y-115025000D03*
X89350000Y-86650000D03*
X132400000Y-92180000D03*
X123975000Y-105700000D03*
D23*
X123785000Y-89450000D03*
D21*
X116600000Y-102900000D03*
D22*
X129650000Y-76000000D03*
X143525000Y-60875000D03*
X97070000Y-55175000D03*
D21*
X95150000Y-112050000D03*
X125825000Y-99025000D03*
X96150000Y-87350000D03*
X139950000Y-115025000D03*
D23*
X122985000Y-90250000D03*
D21*
X97650000Y-111000000D03*
X139500000Y-93850000D03*
D22*
X131060000Y-83375000D03*
D23*
X121865000Y-81755000D03*
D21*
X118350000Y-115025000D03*
X125400000Y-100900000D03*
X139775000Y-52225000D03*
X135650000Y-73050000D03*
X105500000Y-51300000D03*
X137975000Y-57125000D03*
D22*
X140200000Y-38305000D03*
D21*
X87925000Y-68025000D03*
X124375000Y-48375000D03*
X138375000Y-94925000D03*
X105900000Y-42930000D03*
X105000000Y-51300000D03*
X133550000Y-115025000D03*
D22*
X137700000Y-38305000D03*
D21*
X115150000Y-115025000D03*
X106500000Y-50000000D03*
D22*
X135025000Y-38625000D03*
D21*
X119175000Y-105325000D03*
X122375000Y-105700000D03*
D22*
X135050000Y-45675000D03*
D21*
X124857500Y-50625000D03*
X122100000Y-99200000D03*
D22*
X116150000Y-66550000D03*
D21*
X102850000Y-105500000D03*
X101855000Y-61860000D03*
X127100000Y-69600000D03*
X128350000Y-71950000D03*
D22*
X115650000Y-44125000D03*
D21*
X98350000Y-112050000D03*
D24*
X132350000Y-61500000D03*
D22*
X95205000Y-63950000D03*
X109345000Y-74275000D03*
D21*
X100600000Y-89220000D03*
D22*
X118050000Y-44125000D03*
D21*
X139175000Y-105325000D03*
X123150000Y-115025000D03*
X109650000Y-100200000D03*
X125365000Y-48375000D03*
X114350000Y-115025000D03*
X106600000Y-91130000D03*
X106600000Y-93140000D03*
X104412500Y-78350000D03*
D23*
X146650000Y-66075000D03*
D21*
X113550000Y-115025000D03*
X106355000Y-105185000D03*
X108000000Y-50000000D03*
X107500000Y-50000000D03*
D22*
X99445000Y-55180000D03*
D21*
X115975000Y-78475000D03*
D22*
X135050000Y-43325000D03*
D24*
X125400000Y-59050000D03*
D21*
X126660000Y-78225000D03*
D22*
X117835000Y-54525003D03*
D21*
X106000000Y-50000000D03*
X105000000Y-50000000D03*
D22*
X99785000Y-71475000D03*
D21*
X120475000Y-99200000D03*
X131600000Y-89850000D03*
D22*
X145925000Y-60875000D03*
D21*
X144485000Y-56575000D03*
X143875000Y-54575000D03*
X124075000Y-99075000D03*
X115750000Y-93750000D03*
X106000000Y-51300000D03*
D22*
X124450000Y-64700000D03*
D21*
X113300000Y-88465000D03*
X105025000Y-57625000D03*
X89035000Y-76160000D03*
D22*
X146060000Y-85275000D03*
D21*
X146475000Y-55557500D03*
X124476876Y-52597683D03*
D23*
X113270000Y-78890000D03*
D21*
X140775000Y-105700000D03*
X123975000Y-52275000D03*
X124450153Y-52125153D03*
X99350000Y-83400000D03*
D22*
X118450000Y-66550000D03*
D21*
X97550000Y-105625000D03*
X131950000Y-115025000D03*
X121825000Y-49115000D03*
D23*
X120585000Y-89450000D03*
D21*
X91950000Y-94250000D03*
X104000000Y-50000000D03*
X136750000Y-115025000D03*
D22*
X135025000Y-40975000D03*
D21*
X107300000Y-67100000D03*
X134975000Y-101450000D03*
X103750000Y-82350000D03*
D22*
X120375000Y-73425000D03*
D21*
X131400000Y-55600000D03*
X132425000Y-100900000D03*
X100250000Y-111850000D03*
X105400000Y-96100000D03*
X92950000Y-114300000D03*
D24*
X108900000Y-110350000D03*
D22*
X114550000Y-49150000D03*
D21*
X88700000Y-89350000D03*
X108000000Y-51300000D03*
X130250000Y-52000000D03*
X105950000Y-111900000D03*
X98700000Y-103050000D03*
X105055000Y-56070000D03*
X138100000Y-100350000D03*
D22*
X102625000Y-59290000D03*
X107499400Y-45872500D03*
D21*
X130945000Y-65825000D03*
X137575000Y-105700000D03*
X95997000Y-38250000D03*
X98060000Y-76950000D03*
X102750000Y-102250000D03*
X104475000Y-57625000D03*
D23*
X123425000Y-82415000D03*
D21*
X107050000Y-81500000D03*
X115150000Y-105700000D03*
X128850000Y-101425000D03*
X104500000Y-51300000D03*
X138350000Y-115025000D03*
X131175000Y-104675000D03*
X106855000Y-57250000D03*
X110350000Y-93150001D03*
X106500000Y-51300000D03*
X113550000Y-105725000D03*
X135150000Y-115025000D03*
X135975000Y-105700000D03*
X107000000Y-50000000D03*
X112750000Y-115025000D03*
X100700000Y-97700000D03*
X117750000Y-105250000D03*
X136375000Y-94500000D03*
D22*
X105750000Y-71965000D03*
D21*
X145500000Y-89355000D03*
X107099999Y-78662500D03*
X100450000Y-105750000D03*
X105525000Y-57625000D03*
D22*
X145575000Y-71975000D03*
D21*
X120775000Y-105700000D03*
X94350000Y-105625000D03*
%TO.N,/Controller/VOUT_ENABLE*%
X108175000Y-68775000D03*
X105550000Y-55700000D03*
D23*
X115962500Y-86387500D03*
D21*
X103425000Y-54600000D03*
%TO.N,INT_I2C_SCL*%
X123985000Y-79805000D03*
X109450000Y-51600000D03*
D23*
X112151000Y-76974000D03*
X101300000Y-93450000D03*
X104050000Y-87900000D03*
D21*
X125450000Y-54300000D03*
X121350000Y-57850000D03*
D23*
X122725000Y-85300000D03*
%TO.N,INT_I2C_SDA*%
X101750000Y-93650000D03*
D21*
X115950000Y-57050000D03*
D23*
X112500000Y-77350000D03*
D21*
X121850000Y-57200000D03*
D23*
X122160000Y-84880000D03*
D21*
X126100000Y-54300000D03*
D23*
X105200000Y-88550000D03*
D21*
X109150000Y-50700000D03*
X122375000Y-80455000D03*
D22*
%TO.N,VSYS*%
X143525000Y-57925000D03*
D21*
X99500000Y-50050000D03*
D22*
X87925000Y-60450000D03*
X132075000Y-40975000D03*
D21*
X100000000Y-50050000D03*
D22*
X132100000Y-48000000D03*
D21*
X102500000Y-50050000D03*
D22*
X99430000Y-58130000D03*
D21*
X99000000Y-50050000D03*
D22*
X97070000Y-56850000D03*
X98255000Y-58130000D03*
X97075000Y-58130000D03*
X132100000Y-45700000D03*
X132100000Y-43325000D03*
X87925000Y-59450000D03*
D21*
X146475000Y-56575000D03*
D22*
X144725000Y-57925000D03*
D21*
X102000000Y-50050000D03*
X103350000Y-50050000D03*
D22*
X145925000Y-57925000D03*
X87925000Y-62700000D03*
D21*
X102900000Y-50050000D03*
X100500000Y-50050000D03*
X99000000Y-50050000D03*
D22*
X87925000Y-61550000D03*
D21*
X101000000Y-50050000D03*
D22*
X99450000Y-56850000D03*
D21*
X101500000Y-50050000D03*
D22*
X132075000Y-38625000D03*
D21*
%TO.N,ISP*%
X93917500Y-59550000D03*
X102604357Y-61312817D03*
%TO.N,ISN*%
X101925000Y-62700000D03*
X93000000Y-59550000D03*
%TO.N,{slash}INT*%
X109250000Y-65800000D03*
D23*
X110000000Y-76200000D03*
D21*
%TO.N,VCC*%
X115975000Y-81425000D03*
X118260000Y-79155000D03*
D23*
X121385000Y-89450000D03*
D21*
X118365000Y-83695000D03*
X125000000Y-78500000D03*
X113300000Y-104400000D03*
D23*
X124585000Y-91050000D03*
X112570000Y-78840000D03*
D21*
X126675000Y-79375000D03*
X112600000Y-75850000D03*
X129350000Y-72000000D03*
X124087500Y-83537500D03*
D22*
X117625000Y-72175000D03*
X118515000Y-72175000D03*
D23*
X122985000Y-91050000D03*
D21*
X113700000Y-102650000D03*
X109600000Y-61900000D03*
X105350000Y-90150000D03*
X112700000Y-102675000D03*
D23*
X100900000Y-92550000D03*
D21*
X132400000Y-90600000D03*
X117100000Y-61850000D03*
D23*
X124585000Y-89450000D03*
D21*
X95100000Y-51500000D03*
X119625000Y-101225000D03*
X113150000Y-103225000D03*
D22*
X120050000Y-71700000D03*
D21*
X108750000Y-85200000D03*
X145220000Y-90825000D03*
X139950000Y-88725000D03*
D22*
X119350000Y-72155000D03*
D23*
X122985000Y-89450000D03*
D21*
X126675000Y-80425000D03*
D23*
%TO.N,/Analog preprocess/FB_OCD2_RECTIFIED*%
X127000000Y-93450000D03*
X117500000Y-90850000D03*
D21*
%TO.N,VAA*%
X106600000Y-94100000D03*
X104750000Y-105100000D03*
X108700000Y-97950000D03*
X112800000Y-93750000D03*
X101800000Y-97950000D03*
X100350000Y-96050000D03*
X92000000Y-83350000D03*
X105250000Y-98000000D03*
D22*
X97285000Y-68525000D03*
D21*
X100600000Y-90180000D03*
X108050000Y-81850000D03*
D22*
X97572500Y-67525000D03*
D21*
X103950000Y-103700000D03*
D24*
X111300000Y-104950000D03*
D22*
X97572500Y-66475000D03*
D23*
X122975000Y-93450000D03*
D21*
X105550000Y-103700000D03*
X99350000Y-81200000D03*
X103750000Y-83800000D03*
X87950000Y-69900000D03*
X104362500Y-76800000D03*
%TO.N,NRST*%
X119850000Y-63750000D03*
D23*
X116325000Y-89975000D03*
D21*
X122262500Y-70412500D03*
X132475000Y-68500000D03*
X141350000Y-70600000D03*
D23*
X115500000Y-98150000D03*
%TO.N,MCO*%
X115100000Y-99337500D03*
%TO.N,MCO_NRST*%
X119150000Y-89825000D03*
X114450000Y-98387500D03*
%TO.N,MCO_NRST_SEL*%
X116000000Y-100200000D03*
X121375000Y-91850000D03*
D22*
%TO.N,+3.3VP*%
X134825000Y-67075000D03*
X116150000Y-64900000D03*
X117275000Y-69500000D03*
X133675000Y-65925000D03*
D21*
X130225000Y-61850000D03*
X130675000Y-56325000D03*
D22*
X134825000Y-68307500D03*
X118450000Y-69500000D03*
X116150000Y-69500000D03*
X118535000Y-70885000D03*
X113650000Y-68000000D03*
X134825000Y-65925000D03*
X143100000Y-70700000D03*
D21*
%TO.N,3V3_BUCK_PWR_GOOD*%
X108175000Y-67875000D03*
X138325000Y-54225000D03*
X125734000Y-65800000D03*
X115875000Y-75925000D03*
X121700000Y-73350000D03*
D23*
%TO.N,OUT_SYNC_1+*%
X132425000Y-102925000D03*
D21*
%TO.N,GPIO4*%
X118250000Y-109200000D03*
X123275000Y-98125000D03*
%TO.N,OCD_IN*%
X97355000Y-84287500D03*
X94975000Y-109625000D03*
X96150000Y-94050000D03*
D23*
%TO.N,AUX_ADC*%
X116450000Y-100550000D03*
X119225000Y-94775000D03*
D21*
X105700000Y-108825000D03*
D23*
%TO.N,OUT_SYNC_2+*%
X132825000Y-110975000D03*
D21*
%TO.N,OCD2_IN*%
X97525000Y-109650000D03*
X98350000Y-83450000D03*
D22*
%TO.N,VBUS_DOCK*%
X107750000Y-115400000D03*
D21*
X122050000Y-52349997D03*
D22*
X105900000Y-40350000D03*
D21*
X110347500Y-40307500D03*
D22*
X105900000Y-39600000D03*
X106700000Y-115400000D03*
X104750000Y-115400000D03*
X105900000Y-41050000D03*
X105800000Y-115400000D03*
X105900000Y-38800000D03*
%TO.N,VBUS*%
X112750000Y-41650000D03*
X117835000Y-51575003D03*
X112750000Y-40700000D03*
X103775000Y-39950000D03*
X103775000Y-41800000D03*
X112750000Y-39800000D03*
X103775000Y-39050000D03*
X103775000Y-40900000D03*
X112750000Y-38900000D03*
X119589562Y-50837912D03*
X115375000Y-51600000D03*
D21*
%TO.N,/Controller/OUT_4*%
X133198600Y-95540900D03*
X130000000Y-95525000D03*
%TO.N,OUT4*%
X133075000Y-109650000D03*
X133198600Y-96560900D03*
%TO.N,Net-(U3-VSENSE)*%
X138875000Y-59375000D03*
X138265266Y-55384958D03*
D24*
%TO.N,VOUT*%
X92850000Y-55250000D03*
X111950000Y-110225000D03*
X91897151Y-56397151D03*
X93925000Y-54175000D03*
D23*
%TO.N,QSPI_NCS*%
X124075000Y-84100000D03*
X123125000Y-85025000D03*
%TO.N,QSPI_BK1_IO1*%
X122625000Y-86135000D03*
X125000000Y-85025000D03*
%TO.N,QSPI_BK1_IO2*%
X128272500Y-82692500D03*
X124585000Y-93455000D03*
%TO.N,QSPI_BK1_IO0*%
X124887500Y-86362500D03*
X124775000Y-82192500D03*
%TO.N,QSPI_CLK*%
X120200000Y-82700000D03*
X122185000Y-90250000D03*
%TO.N,QSPI_BK1_IO3*%
X125750000Y-83525000D03*
X124585000Y-92650000D03*
%TO.N,REMOTE_LCD_SCK*%
X118050000Y-110050000D03*
D21*
X134100000Y-92350000D03*
%TO.N,LCD_SCK*%
X132700000Y-88550000D03*
X130450000Y-88350000D03*
%TO.N,LOCAL_LCD_DC*%
X134200000Y-88400000D03*
X122350000Y-64400000D03*
D23*
%TO.N,REMOTE_LCD_DC*%
X133750000Y-93000000D03*
X125550000Y-105725000D03*
D21*
%TO.N,REMOTE_LCD_MOSI*%
X131600000Y-87350000D03*
D23*
X139150000Y-115100000D03*
D21*
%TO.N,LOCAL_LCD_MOSI*%
X130950000Y-87450000D03*
X121350000Y-64400000D03*
D23*
%TO.N,REMOTE_LCD_SS*%
X135925000Y-115725000D03*
D21*
X130950000Y-90100000D03*
%TO.N,LOCAL_LCD_SS*%
X130900000Y-89200000D03*
X121850000Y-63750000D03*
D23*
%TO.N,LOCAL_LCD*%
X128650000Y-93350000D03*
X133100000Y-92700000D03*
D21*
%TO.N,LOCAL_LCD_SCK*%
X122850000Y-63750000D03*
X133600000Y-89850000D03*
%TO.N,GPIO3*%
X126350000Y-113475000D03*
X117800000Y-99400000D03*
X117500000Y-110850000D03*
X128550000Y-92100000D03*
X128150000Y-99300000D03*
%TO.N,ISENSE_4*%
X101900000Y-109675000D03*
D23*
%TO.N,GPIO0*%
X122150000Y-96125000D03*
D21*
X121450000Y-98325000D03*
X125000000Y-110825000D03*
X126350000Y-112000000D03*
D23*
X124600000Y-91850000D03*
D21*
%TO.N,Net-(D5-A)*%
X87480000Y-92205000D03*
X87900000Y-71450000D03*
D23*
%TO.N,/Analog preprocess/FB_OUT*%
X94450000Y-73600000D03*
X110725000Y-86525000D03*
D21*
%TO.N,Net-(U1-ACDRV1)*%
X124000000Y-54400000D03*
X113400000Y-50850000D03*
D23*
%TO.N,OUT_SYNC_2-*%
X135950000Y-111720000D03*
D21*
%TO.N,Net-(J1-VDD)*%
X131060000Y-78175000D03*
X128300000Y-74845000D03*
D22*
X138250000Y-88125000D03*
D21*
%TO.N,{slash}QON*%
X130925000Y-53825000D03*
X124700000Y-54450000D03*
X122350000Y-57800000D03*
%TO.N,KEY_INT*%
X120350000Y-64400000D03*
D23*
X116475209Y-90425627D03*
D21*
X123075000Y-69625000D03*
D23*
X118300000Y-95700000D03*
D21*
%TO.N,HRTIM_EEV9*%
X104450000Y-110800000D03*
X123775000Y-69950000D03*
D23*
X119050000Y-84300000D03*
X108675000Y-108850000D03*
X113100000Y-98000000D03*
D21*
X120850000Y-63750000D03*
D23*
%TO.N,LOCAL_ENCODER_CHA*%
X111575000Y-79875000D03*
D21*
X127900000Y-60450000D03*
D23*
X111700000Y-78800000D03*
X127250000Y-73000000D03*
D21*
%TO.N,LOCAL_ENCODER_CHB*%
X124400000Y-69950000D03*
X123350000Y-64200000D03*
D23*
X113800000Y-80150000D03*
X115950000Y-79950000D03*
X119600000Y-80900000D03*
D21*
%TO.N,SWDIO*%
X137950000Y-80200000D03*
X128400000Y-88700000D03*
X139850000Y-67000000D03*
X139375000Y-64725000D03*
%TO.N,SWCLK*%
X129650000Y-87850000D03*
X136900000Y-80600000D03*
D23*
%TO.N,SD_SS*%
X119595000Y-85685000D03*
X119785000Y-87050000D03*
%TO.N,CC2*%
X122185000Y-87055000D03*
D21*
X94025000Y-50925000D03*
D23*
%TO.N,AUX_RX*%
X123775000Y-87050000D03*
X128875000Y-99500000D03*
X121775000Y-103700000D03*
%TO.N,AUX_TX*%
X129425000Y-99425000D03*
X122375000Y-103700000D03*
X124575000Y-87050000D03*
%TO.N,QSPI_BK2_IO0*%
X124600000Y-85525000D03*
X119255000Y-82200000D03*
%TO.N,SD_MOSI*%
X118850000Y-87175000D03*
X118865000Y-85685000D03*
%TO.N,ENCODER_CHB*%
X113550000Y-81550000D03*
X118300000Y-86600000D03*
%TO.N,CTRL_RX*%
X120750000Y-114750000D03*
X121385000Y-87855000D03*
%TO.N,SD_CARD_DETECT*%
X128525000Y-72825000D03*
X122175000Y-87850000D03*
X127575000Y-80425000D03*
D21*
%TO.N,I2C_EXT_SDA*%
X119975000Y-103775000D03*
D23*
X125350000Y-103125000D03*
X122975000Y-87850000D03*
%TO.N,LCD_RST*%
X141500000Y-115425000D03*
D21*
X123950000Y-115050000D03*
D23*
X133350000Y-85300000D03*
%TO.N,LCD_BL*%
X126225000Y-85150000D03*
X125050000Y-105200000D03*
X125375000Y-87850000D03*
X128425000Y-85525000D03*
X129050000Y-89075000D03*
%TO.N,CTRL_TX*%
X122175000Y-88645000D03*
X122350000Y-114800000D03*
%TO.N,CC1*%
X122985000Y-88645000D03*
D21*
X93025000Y-50925000D03*
D23*
%TO.N,LCD_MISO*%
X124600000Y-88650000D03*
X127600000Y-99200000D03*
X123350000Y-103550000D03*
%TO.N,USB_D+*%
X126185000Y-88650000D03*
D21*
X96097500Y-49240000D03*
%TO.N,USB_D-*%
X96697500Y-49240000D03*
D23*
X126985000Y-88650000D03*
D21*
%TO.N,/Controller/OUT_SYNC_2+*%
X131475000Y-96725000D03*
X132525000Y-97775000D03*
%TO.N,I2C_EXT_SCL*%
X118650000Y-111450000D03*
D23*
X125850000Y-103525000D03*
X129000000Y-90250000D03*
%TO.N,QSPI_BK2_IO1*%
X119785000Y-91035000D03*
X120695000Y-84075000D03*
%TO.N,/Analog preprocess/ISENSE_4_OUT*%
X122185000Y-91050000D03*
X110100000Y-96500000D03*
X120975000Y-95575000D03*
X105350000Y-93550000D03*
D21*
%TO.N,/Controller/OUT_SYNC_3+*%
X130512500Y-94012500D03*
X135675000Y-98700000D03*
%TO.N,/Controller/OUT_SYNC_3-*%
X134975000Y-97750000D03*
X131550000Y-93900000D03*
D23*
%TO.N,QSPI_BK2_IO2*%
X119785000Y-91845000D03*
X121105000Y-83225000D03*
%TO.N,/Controller/AUX_PWM_CH2*%
X120585000Y-91850000D03*
X127400000Y-101255000D03*
%TO.N,/Controller/AUX_PWM_CH1*%
X126390000Y-101255000D03*
X122195000Y-91845000D03*
%TO.N,/Analog preprocess/ISENSE_2_OUT*%
X103275000Y-96525000D03*
X100900000Y-94150000D03*
X122985000Y-91850000D03*
X118245000Y-94415000D03*
D21*
%TO.N,GPIO1*%
X122600000Y-110850000D03*
X119775000Y-98325000D03*
X127950000Y-114950000D03*
D23*
X121575000Y-96715000D03*
X125385000Y-91835000D03*
%TO.N,GPIO2*%
X126185000Y-91845000D03*
D21*
X120350000Y-110550000D03*
X119150000Y-115100000D03*
X118300000Y-98200000D03*
D23*
X122565000Y-97095000D03*
D21*
X127150000Y-114950000D03*
D23*
%TO.N,/Analog preprocess/ISENSE_1_OUT*%
X100100000Y-94250000D03*
X101200000Y-95250000D03*
%TO.N,LOCAL_ENCODER*%
X122200000Y-92650000D03*
X117850000Y-89100000D03*
X117450000Y-86300000D03*
%TO.N,/Controller/WS2812B*%
X138900000Y-93100000D03*
X128600000Y-96950000D03*
%TO.N,/Analog preprocess/FB_OCD_RECTIFIED*%
X111850000Y-90550000D03*
X104000000Y-85300000D03*
%TO.N,/Analog preprocess/FB_SYNC_PADDING_V*%
X89650000Y-86000000D03*
X91000000Y-86650000D03*
%TO.N,FAN_PWM*%
X124185000Y-110985000D03*
X125037500Y-104012500D03*
X120585000Y-93445000D03*
%TO.N,ENCODER_CHA*%
X112600000Y-82250000D03*
X112250000Y-96950000D03*
D21*
%TO.N,GPIO6*%
X126925000Y-98050000D03*
D23*
X126620000Y-96030000D03*
D21*
X123225000Y-110000000D03*
D23*
%TO.N,HRTIM_FLT3*%
X124950000Y-94850000D03*
D21*
X104450000Y-109675000D03*
D23*
X123800000Y-100350000D03*
X111650000Y-101850000D03*
D21*
%TO.N,DAC_OUT*%
X107575000Y-96100000D03*
X107550000Y-89950000D03*
X105525000Y-111400000D03*
D23*
%TO.N,/Analog preprocess/ISENSE_3_OUT*%
X105000000Y-93950000D03*
X106500000Y-96700000D03*
%TO.N,Net-(U13-VREF+)*%
X122985000Y-94250000D03*
D21*
%TO.N,GPIO7*%
X126200000Y-110475000D03*
X130075000Y-97800000D03*
%TO.N,/Controller/OUT_3*%
X128600000Y-95950000D03*
X135315400Y-95505000D03*
D23*
%TO.N,GPIO5*%
X127325000Y-95025000D03*
D21*
X120950000Y-109500000D03*
X125175000Y-98125000D03*
%TO.N,VSENSE_IN*%
X96750000Y-110975000D03*
X103775000Y-80175000D03*
%TO.N,FB_IN*%
X93500000Y-111750000D03*
%TO.N,ISENSE_3*%
X100850000Y-111000000D03*
%TO.N,Net-(U1-SW1)*%
X123625000Y-43325000D03*
X123900000Y-51600000D03*
X123625000Y-44175000D03*
X124225000Y-51125000D03*
X123625000Y-43725000D03*
X123625000Y-44575000D03*
X123725000Y-51125000D03*
%TO.N,Net-(U1-SW2)*%
X125525000Y-51125000D03*
X126150000Y-43350000D03*
X125975000Y-51125000D03*
X126150000Y-43725000D03*
X125721268Y-51636268D03*
X126150000Y-44575000D03*
X126150000Y-44175000D03*
%TO.N,ISENSE_1*%
X99400000Y-110995000D03*
%TO.N,Net-(U1-ACDRV2)*%
X122800000Y-54450000D03*
X113450000Y-49800000D03*
D22*
%TO.N,VBUS_USBC*%
X95125000Y-40425000D03*
X95122500Y-45225000D03*
D21*
X122050000Y-53000000D03*
X101515000Y-41650000D03*
%TO.N,Net-(U1-ILIM_HIZ)*%
X123325000Y-56175000D03*
X127550000Y-54390000D03*
%TO.N,AUX_PWM_CH2*%
X128300000Y-110400000D03*
%TO.N,ISENSE_2*%
X99350000Y-109675000D03*
D23*
%TO.N,AUX_PWM_CH1*%
X128750000Y-111050000D03*
D21*
%TO.N,OUT1*%
X139950000Y-109350000D03*
%TO.N,OUT_SYNC_3+*%
X137460000Y-111050000D03*
%TO.N,OUT_SYNC_3-*%
X140000000Y-110450000D03*
%TO.N,OUT2*%
X137315400Y-96525000D03*
X138150000Y-109025000D03*
%TO.N,OUT3*%
X135315400Y-96525000D03*
X135600000Y-109700000D03*
D23*
%TO.N,OUT_SYNC_1-*%
X130525000Y-110805000D03*
D21*
%TO.N,Net-(Q3-G)*%
X140537500Y-48395000D03*
X127725000Y-49825000D03*
%TO.N,Net-(U1-BTST1)*%
X120325000Y-50985000D03*
%TO.N,Net-(U1-BTST2)*%
X125748649Y-52583434D03*
D23*
%TO.N,REMOTE_ENCODER_CHA*%
X119350000Y-99075000D03*
X126350000Y-111200000D03*
X111950000Y-97350000D03*
X111600000Y-81050000D03*
X126300000Y-104950000D03*
%TO.N,REMOTE_ENCODER_CHB*%
X113050000Y-82700000D03*
%TD*%
%TO.N,/Controller/VOUT_ENABLE*%
D25*
X103425000Y-54600000D02*
X104900000Y-54600000D01*
X103900000Y-64500000D02*
X103900000Y-55075000D01*
X105550000Y-55250000D02*
X105550000Y-55700000D01*
X103900000Y-55075000D02*
X103425000Y-54600000D01*
X105500000Y-55200000D02*
X105550000Y-55250000D01*
X104900000Y-54600000D02*
X105500000Y-55200000D01*
X108150000Y-68750000D02*
X103900000Y-64500000D01*
%TO.N,INT_I2C_SCL*%
X125450000Y-54300000D02*
X124750000Y-55000000D01*
X123900000Y-56650000D02*
X121600000Y-56650000D01*
X117624000Y-76974000D02*
X112151000Y-76974000D01*
X109550000Y-51600000D02*
X115650000Y-57700000D01*
X115650000Y-57700000D02*
X121200000Y-57700000D01*
X120455000Y-79805000D02*
X117624000Y-76974000D01*
X121350000Y-56900000D02*
X121350000Y-57850000D01*
X121200000Y-57700000D02*
X121350000Y-57850000D01*
X121600000Y-56650000D02*
X121350000Y-56900000D01*
X123985000Y-79805000D02*
X120455000Y-79805000D01*
X124750000Y-55800000D02*
X123900000Y-56650000D01*
X124750000Y-55000000D02*
X124750000Y-55800000D01*
X109450000Y-51600000D02*
X109550000Y-51600000D01*
%TO.N,INT_I2C_SDA*%
X117300000Y-77350000D02*
X120405000Y-80455000D01*
X112500000Y-77350000D02*
X117300000Y-77350000D01*
X120405000Y-80455000D02*
X122375000Y-80455000D01*
X109600000Y-50700000D02*
X115950000Y-57050000D01*
X121850000Y-57200000D02*
X125100000Y-57200000D01*
X109150000Y-50700000D02*
X109600000Y-50700000D01*
X126100000Y-56200000D02*
X126100000Y-54300000D01*
X125100000Y-57200000D02*
X126100000Y-56200000D01*
%TO.N,ISP*%
D26*
X93900000Y-60695000D02*
X93900000Y-59567500D01*
X93900000Y-59567500D02*
X93917500Y-59550000D01*
X94517817Y-61312817D02*
X93900000Y-60695000D01*
X102604357Y-61312817D02*
X94517817Y-61312817D01*
%TO.N,ISN*%
X93000000Y-61545000D02*
X94155000Y-62700000D01*
X93000000Y-59550000D02*
X93000000Y-61545000D01*
X101925000Y-62700000D02*
X94155000Y-62700000D01*
%TO.N,VCC*%
X106150000Y-53750000D02*
X102300000Y-53750000D01*
X109600000Y-57200000D02*
X106900000Y-54500000D01*
X96450000Y-53750000D02*
X95900000Y-53200000D01*
X95900000Y-53200000D02*
X95100000Y-52400000D01*
D25*
X100900000Y-91700000D02*
X102450000Y-90150000D01*
X102450000Y-90150000D02*
X105350000Y-90150000D01*
D26*
X102300000Y-53750000D02*
X96450000Y-53750000D01*
D25*
X100900000Y-92550000D02*
X100900000Y-91700000D01*
D26*
X106900000Y-54500000D02*
X106150000Y-53750000D01*
X109600000Y-61900000D02*
X109600000Y-57200000D01*
X95100000Y-52400000D02*
X95100000Y-51500000D01*
%TO.N,/Analog preprocess/FB_OCD2_RECTIFIED*%
D25*
X127000000Y-91750000D02*
X127000000Y-93450000D01*
X125001000Y-90626000D02*
X125625000Y-91250000D01*
X117724000Y-90626000D02*
X125001000Y-90626000D01*
X126500000Y-91250000D02*
X127000000Y-91750000D01*
X117500000Y-90850000D02*
X117724000Y-90626000D01*
X125625000Y-91250000D02*
X126500000Y-91250000D01*
%TO.N,VAA*%
X97745000Y-66837100D02*
X97745000Y-66830000D01*
%TO.N,NRST*%
X119835000Y-63765000D02*
X119850000Y-63750000D01*
X132475000Y-69325000D02*
X132475000Y-68500000D01*
X122250000Y-70425000D02*
X122262500Y-70412500D01*
X119835000Y-67185000D02*
X119835000Y-63765000D01*
X141350000Y-70600000D02*
X133750000Y-70600000D01*
X114925000Y-97575000D02*
X114925000Y-91375000D01*
X114925000Y-91375000D02*
X116325000Y-89975000D01*
X122275000Y-69625000D02*
X119835000Y-67185000D01*
X133750000Y-70600000D02*
X132475000Y-69325000D01*
X115500000Y-98150000D02*
X114925000Y-97575000D01*
X122275000Y-70400000D02*
X122275000Y-69625000D01*
X122262500Y-70412500D02*
X122275000Y-70400000D01*
%TO.N,3V3_BUCK_PWR_GOOD*%
D26*
X129750000Y-57000000D02*
X132650000Y-57000000D01*
X135425000Y-54225000D02*
X138325000Y-54225000D01*
X125734000Y-61016000D02*
X129750000Y-57000000D01*
X132650000Y-57000000D02*
X135425000Y-54225000D01*
X125734000Y-71025942D02*
X125734000Y-61016000D01*
X121700000Y-73350000D02*
X123409942Y-73350000D01*
X123409942Y-73350000D02*
X125734000Y-71025942D01*
%TO.N,OCD_IN*%
X96150000Y-94050000D02*
X96150000Y-92350000D01*
X96150000Y-94050000D02*
X94975000Y-95225000D01*
X94975000Y-95225000D02*
X94975000Y-109625000D01*
X96150000Y-92350000D02*
X97355000Y-91145000D01*
X97355000Y-91145000D02*
X97355000Y-84287500D01*
%TO.N,AUX_ADC*%
D25*
X119225000Y-94775000D02*
X119200000Y-94800000D01*
X119200000Y-95750000D02*
X116425000Y-98525000D01*
X119200000Y-94800000D02*
X119200000Y-95750000D01*
X116425000Y-98525000D02*
X116425000Y-100525000D01*
X116425000Y-100525000D02*
X116450000Y-100550000D01*
%TO.N,OCD2_IN*%
D26*
X97525000Y-109650000D02*
X98024000Y-109151000D01*
X98024000Y-109151000D02*
X98024000Y-83776000D01*
X98024000Y-83776000D02*
X98350000Y-83450000D01*
%TO.N,VOUT*%
D27*
X88825000Y-107725000D02*
X88825000Y-109925000D01*
X92300000Y-113400000D02*
X110100000Y-113400000D01*
X111950000Y-111550000D02*
X111950000Y-110225000D01*
X88825000Y-109925000D02*
X92300000Y-113400000D01*
X110100000Y-113400000D02*
X111950000Y-111550000D01*
%TO.N,REMOTE_LCD_SCK*%
D25*
X136175000Y-95276700D02*
X135224150Y-94325850D01*
X134400000Y-93050000D02*
X134400000Y-93500000D01*
X134400000Y-93500000D02*
X135224150Y-94324150D01*
X135224150Y-94324150D02*
X135224150Y-94325850D01*
X118050000Y-110050000D02*
X119600000Y-111600000D01*
X134100000Y-92750000D02*
X134400000Y-93050000D01*
X136175000Y-104350000D02*
X136175000Y-95276700D01*
X119600000Y-111600000D02*
X128925000Y-111600000D01*
X128925000Y-111600000D02*
X136175000Y-104350000D01*
X134100000Y-92350000D02*
X134100000Y-92750000D01*
X135224150Y-94325850D02*
X135249150Y-94350850D01*
%TO.N,REMOTE_LCD_DC*%
X131350000Y-102575000D02*
X129750000Y-104175000D01*
X131050000Y-97375000D02*
X131350000Y-97675000D01*
X133750000Y-93000000D02*
X133500000Y-93000000D01*
X133150000Y-93350000D02*
X130225000Y-93350000D01*
X133500000Y-93000000D02*
X133150000Y-93350000D01*
X125701000Y-104799000D02*
X125701000Y-105574000D01*
X131350000Y-97675000D02*
X131350000Y-102575000D01*
X130050000Y-93525000D02*
X130050000Y-94250000D01*
X131050000Y-95250000D02*
X131050000Y-97375000D01*
X130050000Y-94250000D02*
X131050000Y-95250000D01*
X130225000Y-93350000D02*
X130050000Y-93525000D01*
X125701000Y-105574000D02*
X125550000Y-105725000D01*
X129750000Y-104175000D02*
X126325000Y-104175000D01*
X126325000Y-104175000D02*
X125701000Y-104799000D01*
%TO.N,REMOTE_LCD_MOSI*%
X138925000Y-94625000D02*
X137350000Y-93050000D01*
X136150000Y-93050000D02*
X131600000Y-88500000D01*
X131600000Y-88500000D02*
X131600000Y-87350000D01*
X138925000Y-104250000D02*
X138925000Y-94625000D01*
X139150000Y-115100000D02*
X139150000Y-109125000D01*
X138400000Y-108375000D02*
X138400000Y-104775000D01*
X138400000Y-104775000D02*
X138925000Y-104250000D01*
X137350000Y-93050000D02*
X136150000Y-93050000D01*
X139150000Y-109125000D02*
X138400000Y-108375000D01*
%TO.N,REMOTE_LCD_SS*%
X137825000Y-96600000D02*
X137825000Y-95050000D01*
X136300000Y-93525000D02*
X136025000Y-93525000D01*
X135900000Y-115700000D02*
X135900000Y-113800000D01*
X133650000Y-91150000D02*
X132200000Y-91150000D01*
X136025000Y-93525000D02*
X133650000Y-91150000D01*
X132200000Y-91150000D02*
X131150000Y-90100000D01*
X131150000Y-90100000D02*
X130950000Y-90100000D01*
X137825000Y-95050000D02*
X136300000Y-93525000D01*
X136950000Y-112750000D02*
X136950000Y-97475000D01*
X136950000Y-97475000D02*
X137825000Y-96600000D01*
X135900000Y-113800000D02*
X136950000Y-112750000D01*
X135925000Y-115725000D02*
X135900000Y-115700000D01*
%TO.N,GPIO3*%
D26*
X117500000Y-111450000D02*
X119050000Y-113000000D01*
X117500000Y-110850000D02*
X117500000Y-111450000D01*
X117050000Y-100150000D02*
X117800000Y-99400000D01*
X125875000Y-113000000D02*
X126350000Y-113475000D01*
X117500000Y-110850000D02*
X117500000Y-106700000D01*
X119050000Y-113000000D02*
X125875000Y-113000000D01*
X117050000Y-106250000D02*
X117050000Y-100150000D01*
X117500000Y-106700000D02*
X117050000Y-106250000D01*
%TO.N,GPIO0*%
D25*
X123776000Y-92674000D02*
X123776000Y-94499000D01*
D26*
X125000000Y-110825000D02*
X124200000Y-110025000D01*
X122801000Y-105426000D02*
X122801000Y-101201000D01*
X121450000Y-99850000D02*
X121450000Y-98325000D01*
X122801000Y-101201000D02*
X121450000Y-99850000D01*
D25*
X124600000Y-91850000D02*
X123776000Y-92674000D01*
D26*
X124200000Y-106825000D02*
X122801000Y-105426000D01*
D25*
X123776000Y-94499000D02*
X122150000Y-96125000D01*
D26*
X124200000Y-110025000D02*
X124200000Y-106825000D01*
%TO.N,Net-(D5-A)*%
X87480000Y-92205000D02*
X87480000Y-71870000D01*
X87480000Y-71870000D02*
X87900000Y-71450000D01*
%TO.N,/Analog preprocess/FB_OUT*%
D25*
X110725000Y-86125000D02*
X100350000Y-75750000D01*
X110725000Y-86525000D02*
X110725000Y-86125000D01*
X96600000Y-75750000D02*
X94450000Y-73600000D01*
X100350000Y-75750000D02*
X96600000Y-75750000D01*
%TO.N,KEY_INT*%
X116475209Y-90425627D02*
X116474373Y-90425627D01*
X116275000Y-90625000D02*
X116275000Y-94425000D01*
X116474373Y-90425627D02*
X116275000Y-90625000D01*
X122375000Y-68925000D02*
X120350000Y-66900000D01*
X117550000Y-95700000D02*
X118300000Y-95700000D01*
X120350000Y-66900000D02*
X120350000Y-64400000D01*
X116275000Y-94425000D02*
X117550000Y-95700000D01*
X123075000Y-69625000D02*
X122375000Y-68925000D01*
%TO.N,HRTIM_EEV9*%
X109975000Y-108575000D02*
X108950000Y-108575000D01*
X123775000Y-69925000D02*
X123775000Y-69525000D01*
X108950000Y-108575000D02*
X108675000Y-108850000D01*
X120850000Y-66600000D02*
X120850000Y-63750000D01*
X113100000Y-98000000D02*
X112250000Y-98850000D01*
X120900000Y-66650000D02*
X120850000Y-66600000D01*
X112250000Y-98850000D02*
X112250000Y-106300000D01*
X123775000Y-69525000D02*
X120900000Y-66650000D01*
X112250000Y-106300000D02*
X109975000Y-108575000D01*
%TO.N,LOCAL_ENCODER_CHA*%
X127900000Y-69950000D02*
X127900000Y-67900000D01*
X127250000Y-73000000D02*
X127250000Y-70600000D01*
X127900000Y-67900000D02*
X127900000Y-60450000D01*
X127250000Y-70600000D02*
X127850000Y-70000000D01*
X127850000Y-70000000D02*
X127900000Y-69950000D01*
%TO.N,LOCAL_ENCODER_CHB*%
X115950000Y-79950000D02*
X116900000Y-80900000D01*
X116900000Y-80900000D02*
X119600000Y-80900000D01*
X123350000Y-64400000D02*
X123350000Y-64200000D01*
X124400000Y-68400000D02*
X123350000Y-67350000D01*
X123350000Y-67350000D02*
X123350000Y-64400000D01*
X124400000Y-69950000D02*
X124400000Y-68400000D01*
%TO.N,SWDIO*%
X136350000Y-80200000D02*
X128400000Y-88150000D01*
X128400000Y-88150000D02*
X128400000Y-88700000D01*
X137950000Y-80200000D02*
X136350000Y-80200000D01*
%TO.N,SWCLK*%
X129650000Y-87850000D02*
X136900000Y-80600000D01*
%TO.N,CC2*%
X118125000Y-85125000D02*
X114600000Y-81600000D01*
X120255000Y-85125000D02*
X118125000Y-85125000D01*
X103575000Y-71925000D02*
X103575000Y-55525000D01*
X104550000Y-72900000D02*
X103575000Y-71925000D01*
X122185000Y-87055000D02*
X120255000Y-85125000D01*
X94025000Y-52775000D02*
X94025000Y-50925000D01*
X111050000Y-77900000D02*
X106050000Y-72900000D01*
X95575000Y-54325000D02*
X94025000Y-52775000D01*
X106050000Y-72900000D02*
X104550000Y-72900000D01*
X114600000Y-81600000D02*
X114600000Y-78550000D01*
X114600000Y-78550000D02*
X113950000Y-77900000D01*
X102375000Y-54325000D02*
X95575000Y-54325000D01*
X113950000Y-77900000D02*
X111050000Y-77900000D01*
X103575000Y-55525000D02*
X102375000Y-54325000D01*
%TO.N,AUX_RX*%
X126750000Y-90875000D02*
X126275000Y-90875000D01*
X124175000Y-89625000D02*
X124175000Y-89000000D01*
X126275000Y-90875000D02*
X125250000Y-89850000D01*
X123775000Y-88600000D02*
X123775000Y-87050000D01*
X124175000Y-89000000D02*
X123775000Y-88600000D01*
X128875000Y-99425000D02*
X127825000Y-98375000D01*
X127825000Y-98375000D02*
X127825000Y-91950000D01*
X124400000Y-89850000D02*
X124175000Y-89625000D01*
X125250000Y-89850000D02*
X124400000Y-89850000D01*
X127825000Y-91950000D02*
X126750000Y-90875000D01*
%TO.N,AUX_TX*%
X126275000Y-90500000D02*
X124975000Y-89200000D01*
X129425000Y-99425000D02*
X128100000Y-98100000D01*
X128100000Y-98100000D02*
X128100000Y-91600000D01*
X124975000Y-87450000D02*
X124575000Y-87050000D01*
X124975000Y-89200000D02*
X124975000Y-87450000D01*
X127000000Y-90500000D02*
X126275000Y-90500000D01*
X128100000Y-91600000D02*
X127000000Y-90500000D01*
%TO.N,ENCODER_CHB*%
X113550000Y-81850000D02*
X113550000Y-81550000D01*
X118300000Y-86600000D02*
X113550000Y-81850000D01*
%TO.N,CTRL_RX*%
X113650000Y-89800000D02*
X115215000Y-88235000D01*
X118430000Y-114450000D02*
X116365000Y-112385000D01*
X116365000Y-104715000D02*
X113650000Y-102000000D01*
X120450000Y-114450000D02*
X118430000Y-114450000D01*
X120750000Y-114750000D02*
X120450000Y-114450000D01*
X116365000Y-112385000D02*
X116365000Y-104715000D01*
X121005000Y-88235000D02*
X121385000Y-87855000D01*
X115215000Y-88235000D02*
X121005000Y-88235000D01*
X113650000Y-102000000D02*
X113650000Y-89800000D01*
%TO.N,SD_CARD_DETECT*%
X125250000Y-82750000D02*
X126625000Y-81375000D01*
X125250000Y-84123745D02*
X125250000Y-82750000D01*
X125250000Y-84123745D02*
X122561000Y-86812745D01*
X122561000Y-86812745D02*
X122561000Y-87464000D01*
X126625000Y-81375000D02*
X127575000Y-80425000D01*
X122561000Y-87464000D02*
X122175000Y-87850000D01*
%TO.N,I2C_EXT_SDA*%
X127375000Y-90250000D02*
X126375000Y-90250000D01*
X129050000Y-91925000D02*
X127375000Y-90250000D01*
X125350000Y-103125000D02*
X129325000Y-103125000D01*
X129775000Y-102675000D02*
X129775000Y-100850000D01*
X129775000Y-100850000D02*
X129801000Y-100824000D01*
X125136500Y-85986500D02*
X124588500Y-85986500D01*
X126375000Y-90250000D02*
X125800000Y-89675000D01*
X129050000Y-97675000D02*
X129050000Y-91925000D01*
X122975000Y-86900000D02*
X122975000Y-87850000D01*
X129801000Y-100824000D02*
X129801000Y-98426000D01*
X125800000Y-86650000D02*
X125136500Y-85986500D01*
X124125000Y-86450000D02*
X123425000Y-86450000D01*
X129325000Y-103125000D02*
X129775000Y-102675000D01*
X123425000Y-86450000D02*
X122975000Y-86900000D01*
X124588500Y-85986500D02*
X124125000Y-86450000D01*
X129801000Y-98426000D02*
X129050000Y-97675000D01*
X125800000Y-89675000D02*
X125800000Y-86650000D01*
%TO.N,LCD_RST*%
X137000000Y-88950000D02*
X137000000Y-91925000D01*
X140025000Y-94950000D02*
X140025000Y-96400000D01*
X141250000Y-113450000D02*
X141500000Y-113700000D01*
X133350000Y-85300000D02*
X137000000Y-88950000D01*
X140025000Y-96400000D02*
X141250000Y-97625000D01*
X137000000Y-91925000D02*
X140025000Y-94950000D01*
X141250000Y-97625000D02*
X141250000Y-113450000D01*
X141500000Y-113700000D02*
X141500000Y-115425000D01*
%TO.N,LCD_BL*%
X130975000Y-97650000D02*
X130650000Y-97325000D01*
X130650000Y-95325000D02*
X129750000Y-94425000D01*
X125050000Y-105200000D02*
X125050000Y-104925000D01*
X129050000Y-89606745D02*
X129050000Y-89125000D01*
X130725000Y-102750000D02*
X130725000Y-101925000D01*
X130650000Y-97325000D02*
X130650000Y-95325000D01*
X129750000Y-90306745D02*
X129050000Y-89606745D01*
X129050000Y-89125000D02*
X129050000Y-89075000D01*
X129650000Y-103825000D02*
X130725000Y-102750000D01*
X126150000Y-103825000D02*
X129650000Y-103825000D01*
X130725000Y-101925000D02*
X130975000Y-101675000D01*
X130975000Y-101675000D02*
X130975000Y-97650000D01*
X125050000Y-104925000D02*
X126150000Y-103825000D01*
X129750000Y-94425000D02*
X129750000Y-90306745D01*
%TO.N,CTRL_TX*%
X121450000Y-113900000D02*
X122350000Y-114800000D01*
X118650000Y-113900000D02*
X121450000Y-113900000D01*
X114000000Y-90050000D02*
X114000000Y-101800000D01*
X116745000Y-104545000D02*
X116745000Y-111995000D01*
X115405000Y-88645000D02*
X114000000Y-90050000D01*
X114000000Y-101800000D02*
X116745000Y-104545000D01*
X122175000Y-88645000D02*
X115405000Y-88645000D01*
X116745000Y-111995000D02*
X118650000Y-113900000D01*
%TO.N,CC1*%
X89350000Y-56150000D02*
X89350000Y-59450000D01*
X91525000Y-65425000D02*
X99475000Y-73375000D01*
X110800000Y-78300000D02*
X113750000Y-78300000D01*
X93025000Y-52475000D02*
X89350000Y-56150000D01*
X122585000Y-88245000D02*
X122985000Y-88645000D01*
X121995000Y-88245000D02*
X122585000Y-88245000D01*
X114200000Y-78750000D02*
X114200000Y-81950000D01*
X89350000Y-59450000D02*
X91525000Y-61625000D01*
X93025000Y-50925000D02*
X93025000Y-52475000D01*
X114200000Y-81950000D02*
X118625000Y-86375000D01*
X120835000Y-86375000D02*
X121785000Y-87325000D01*
X121785000Y-87325000D02*
X121785000Y-88035000D01*
X105875000Y-73375000D02*
X110800000Y-78300000D01*
X113750000Y-78300000D02*
X114200000Y-78750000D01*
X118625000Y-86375000D02*
X120835000Y-86375000D01*
X121785000Y-88035000D02*
X121995000Y-88245000D01*
X99475000Y-73375000D02*
X105875000Y-73375000D01*
X91525000Y-61625000D02*
X91525000Y-65425000D01*
%TO.N,LCD_MISO*%
X127600000Y-99800000D02*
X127600000Y-99200000D01*
X127950000Y-101450000D02*
X127950000Y-100150000D01*
X123725000Y-103550000D02*
X125550000Y-101725000D01*
X123350000Y-103550000D02*
X123725000Y-103550000D01*
X127675000Y-101725000D02*
X127950000Y-101450000D01*
X127950000Y-100150000D02*
X127600000Y-99800000D01*
X125550000Y-101725000D02*
X127675000Y-101725000D01*
%TO.N,USB_D+*%
D28*
X96097500Y-49240000D02*
X96251999Y-49394499D01*
X129364500Y-78680268D02*
X129364500Y-83189732D01*
X96251999Y-50977767D02*
X97989732Y-52715500D01*
X129364500Y-83189732D02*
X128349732Y-84204500D01*
X97989732Y-52715500D02*
X107749732Y-52715500D01*
X107749732Y-52715500D02*
X111904500Y-56870268D01*
X96251999Y-49394499D02*
X96251999Y-50977767D01*
X126874500Y-84749732D02*
X126874500Y-87359732D01*
X127419732Y-84204500D02*
X126874500Y-84749732D01*
X114589732Y-74395500D02*
X117309732Y-74395500D01*
X111904500Y-71710268D02*
X114589732Y-74395500D01*
X120149732Y-77235500D02*
X127919732Y-77235500D01*
X128349732Y-84204500D02*
X127419732Y-84204500D01*
X117309732Y-74395500D02*
X120149732Y-77235500D01*
X126439499Y-88395501D02*
X126185000Y-88650000D01*
X126874500Y-87359732D02*
X126439499Y-87794733D01*
X126439499Y-87794733D02*
X126439499Y-88395501D01*
X127919732Y-77235500D02*
X129364500Y-78680268D01*
X111904500Y-56870268D02*
X111904500Y-71710268D01*
%TO.N,USB_D-*%
X112195500Y-71589732D02*
X114710268Y-74104500D01*
X98110268Y-52424500D02*
X107870268Y-52424500D01*
X129655500Y-83310268D02*
X128470268Y-84495500D01*
X112195500Y-56749732D02*
X112195500Y-71589732D01*
X96543001Y-50857233D02*
X98110268Y-52424500D01*
X107870268Y-52424500D02*
X112195500Y-56749732D01*
X114710268Y-74104500D02*
X117430268Y-74104500D01*
X126730501Y-88395501D02*
X126985000Y-88650000D01*
X96543001Y-49394499D02*
X96543001Y-50857233D01*
X127165500Y-84870268D02*
X127165500Y-87480268D01*
X128470268Y-84495500D02*
X127540268Y-84495500D01*
X127165500Y-87480268D02*
X126730501Y-87915267D01*
X128040268Y-76944500D02*
X129655500Y-78559732D01*
X126730501Y-87915267D02*
X126730501Y-88395501D01*
X96697500Y-49240000D02*
X96543001Y-49394499D01*
X120270268Y-76944500D02*
X128040268Y-76944500D01*
X129655500Y-78559732D02*
X129655500Y-83310268D01*
X117430268Y-74104500D02*
X120270268Y-76944500D01*
X127540268Y-84495500D02*
X127165500Y-84870268D01*
%TO.N,I2C_EXT_SCL*%
D25*
X129025000Y-90250000D02*
X129400000Y-90625000D01*
X129400000Y-90625000D02*
X129400000Y-96450000D01*
X130650000Y-97700000D02*
X130650000Y-98475000D01*
X130650000Y-98475000D02*
X130150000Y-98975000D01*
X129500000Y-103525000D02*
X125850000Y-103525000D01*
X129400000Y-96450000D02*
X130650000Y-97700000D01*
X130150000Y-102875000D02*
X129500000Y-103525000D01*
X129000000Y-90250000D02*
X129025000Y-90250000D01*
X130150000Y-98975000D02*
X130150000Y-102875000D01*
%TO.N,/Controller/OUT_SYNC_3+*%
X135675000Y-98700000D02*
X135425000Y-98450000D01*
X134350000Y-98450000D02*
X132475000Y-96575000D01*
X132475000Y-95975000D02*
X130512500Y-94012500D01*
X132475000Y-96575000D02*
X132475000Y-95975000D01*
X135425000Y-98450000D02*
X134350000Y-98450000D01*
%TO.N,/Controller/OUT_SYNC_3-*%
X133450000Y-94900000D02*
X134225000Y-95675000D01*
X131550000Y-93900000D02*
X132550000Y-94900000D01*
X132550000Y-94900000D02*
X133450000Y-94900000D01*
X134225000Y-97000000D02*
X134975000Y-97750000D01*
X134225000Y-95675000D02*
X134225000Y-97000000D01*
%TO.N,/Controller/AUX_PWM_CH2*%
X121851000Y-98158900D02*
X121616100Y-97924000D01*
X120025000Y-93225000D02*
X120575000Y-92675000D01*
X120025000Y-96335000D02*
X120025000Y-93225000D01*
X120575000Y-92675000D02*
X120575000Y-91860000D01*
X123365000Y-99675000D02*
X121851000Y-98161000D01*
X120575000Y-91860000D02*
X120585000Y-91850000D01*
X126585000Y-99675000D02*
X123365000Y-99675000D01*
X127400000Y-100490000D02*
X126585000Y-99675000D01*
X127400000Y-101255000D02*
X127400000Y-100490000D01*
X121616100Y-97924000D02*
X121614000Y-97924000D01*
X121614000Y-97924000D02*
X120025000Y-96335000D01*
X121851000Y-98161000D02*
X121851000Y-98158900D01*
%TO.N,/Analog preprocess/ISENSE_2_OUT*%
X118245000Y-94415000D02*
X118245000Y-92805000D01*
X120039000Y-91411000D02*
X120500000Y-90950000D01*
X121526627Y-90950000D02*
X122002627Y-91426000D01*
X119639000Y-91411000D02*
X120039000Y-91411000D01*
X120500000Y-90950000D02*
X121526627Y-90950000D01*
X122561000Y-91426000D02*
X122985000Y-91850000D01*
X122002627Y-91426000D02*
X122561000Y-91426000D01*
X118245000Y-92805000D02*
X119639000Y-91411000D01*
%TO.N,GPIO1*%
X125385000Y-91835000D02*
X125850000Y-92300000D01*
D26*
X122600000Y-110850000D02*
X122600000Y-110000000D01*
X119775000Y-99675000D02*
X119775000Y-98325000D01*
X120825000Y-104650000D02*
X120825000Y-100725000D01*
X121650000Y-109050000D02*
X121650000Y-105475000D01*
D25*
X124585000Y-96715000D02*
X121575000Y-96715000D01*
D26*
X120825000Y-100725000D02*
X119775000Y-99675000D01*
X121650000Y-105475000D02*
X120825000Y-104650000D01*
X122600000Y-110000000D02*
X121650000Y-109050000D01*
D25*
X125850000Y-95450000D02*
X124585000Y-96715000D01*
X125850000Y-92300000D02*
X125850000Y-95450000D01*
%TO.N,GPIO2*%
D26*
X119800000Y-115950000D02*
X126350000Y-115950000D01*
X127150000Y-115150000D02*
X127150000Y-114950000D01*
D25*
X124630000Y-97095000D02*
X122565000Y-97095000D01*
X126185000Y-95540000D02*
X124630000Y-97095000D01*
D26*
X119150000Y-115300000D02*
X119800000Y-115950000D01*
X120025000Y-110225000D02*
X120350000Y-110550000D01*
X126350000Y-115950000D02*
X127150000Y-115150000D01*
X118300000Y-98200000D02*
X118300000Y-105450000D01*
X118300000Y-105450000D02*
X120025000Y-107175000D01*
X120025000Y-107175000D02*
X120025000Y-110225000D01*
D25*
X126185000Y-91845000D02*
X126185000Y-95540000D01*
D26*
X119150000Y-115100000D02*
X119150000Y-115300000D01*
%TO.N,LOCAL_ENCODER*%
D25*
X117800000Y-94950000D02*
X118450000Y-94950000D01*
X118750000Y-93800000D02*
X120161000Y-92389000D01*
X117100000Y-94250000D02*
X117800000Y-94950000D01*
X120161000Y-91739000D02*
X120426000Y-91474000D01*
X118750000Y-94650000D02*
X118750000Y-93800000D01*
X121751000Y-91651000D02*
X121751000Y-92201000D01*
X118450000Y-94950000D02*
X118750000Y-94650000D01*
X121574000Y-91474000D02*
X121751000Y-91651000D01*
X121751000Y-92201000D02*
X122200000Y-92650000D01*
X120161000Y-92389000D02*
X120161000Y-91739000D01*
X117850000Y-89100000D02*
X117850000Y-89550000D01*
X117850000Y-89550000D02*
X117100000Y-90300000D01*
X120426000Y-91474000D02*
X121574000Y-91474000D01*
X117100000Y-90300000D02*
X117100000Y-94250000D01*
%TO.N,/Analog preprocess/FB_OCD_RECTIFIED*%
X109700000Y-88400000D02*
X111850000Y-90550000D01*
X105550000Y-87950000D02*
X106000000Y-88400000D01*
X104000000Y-85300000D02*
X105550000Y-86850000D01*
X106000000Y-88400000D02*
X109700000Y-88400000D01*
X105550000Y-86850000D02*
X105550000Y-87950000D01*
%TO.N,DAC_OUT*%
D26*
X105525000Y-111400000D02*
X105800000Y-111400000D01*
X107575000Y-89975000D02*
X107550000Y-89950000D01*
X107575000Y-109625000D02*
X107575000Y-96100000D01*
X107575000Y-96100000D02*
X107575000Y-89975000D01*
X105800000Y-111400000D02*
X107575000Y-109625000D01*
%TO.N,GPIO5*%
D25*
X127325000Y-96250000D02*
X126950000Y-96625000D01*
X126950000Y-96625000D02*
X125675000Y-96625000D01*
X125175000Y-97125000D02*
X125175000Y-98125000D01*
X125675000Y-96625000D02*
X125175000Y-97125000D01*
X127325000Y-95025000D02*
X127325000Y-96250000D01*
%TO.N,VSENSE_IN*%
D26*
X100250000Y-109250000D02*
X100250000Y-109950000D01*
X97425000Y-110300000D02*
X96750000Y-110975000D01*
X99600000Y-84350000D02*
X99600000Y-108600000D01*
X103775000Y-80175000D02*
X99600000Y-84350000D01*
X99900000Y-110300000D02*
X97425000Y-110300000D01*
X100250000Y-109950000D02*
X99900000Y-110300000D01*
X99600000Y-108600000D02*
X100250000Y-109250000D01*
%TO.N,VBUS_USBC*%
X101515000Y-42135000D02*
X101515000Y-41650000D01*
X116275000Y-49300000D02*
X111872500Y-44897500D01*
X117275000Y-53000000D02*
X116275000Y-52000000D01*
X111872500Y-44897500D02*
X104277500Y-44897500D01*
X116275000Y-52000000D02*
X116275000Y-49300000D01*
X104277500Y-44897500D02*
X101515000Y-42135000D01*
X122050000Y-53000000D02*
X117275000Y-53000000D01*
%TO.N,Net-(U1-ILIM_HIZ)*%
X127110000Y-53200000D02*
X127550000Y-53640000D01*
X127550000Y-53640000D02*
X127550000Y-54390000D01*
X123325000Y-53625000D02*
X123750000Y-53200000D01*
X123750000Y-53200000D02*
X127110000Y-53200000D01*
X123325000Y-56175000D02*
X123325000Y-53625000D01*
%TO.N,Net-(Q3-G)*%
X127725000Y-49825000D02*
X139582500Y-49825000D01*
X140482500Y-48925000D02*
X140482500Y-48450000D01*
X139582500Y-49825000D02*
X140482500Y-48925000D01*
%TO.N,REMOTE_ENCODER_CHA*%
D25*
X126350000Y-111200000D02*
X126550000Y-111200000D01*
X126550000Y-111200000D02*
X126775000Y-110975000D01*
X126300000Y-105225000D02*
X126300000Y-104950000D01*
X126775000Y-105700000D02*
X126300000Y-105225000D01*
X126775000Y-110975000D02*
X126775000Y-105700000D01*
%TD*%
M02*
