%TF.GenerationSoftware,KiCad,Pcbnew,10.0.1-1.fc44*%
%TF.CreationDate,2026-05-23T21:55:03+02:00*%
%TF.ProjectId,resoncance_converter_controller,7265736f-6e63-4616-9e63-655f636f6e76,rev?*%
%TF.SameCoordinates,Original*%
%TF.FileFunction,Legend,Bot*%
%TF.FilePolarity,Positive*%
%FSLAX46Y46*%
G04 Gerber Fmt 4.6, Leading zero omitted, Abs format (unit mm)*
G04 Created by KiCad (PCBNEW 10.0.1-1.fc44) date 2026-05-23 21:55:03*
%MOMM*%
%LPD*%
G01*
G04 APERTURE LIST*
%ADD10C,0.120000*%
%ADD11C,0.127000*%
%ADD12C,0.200000*%
G04 APERTURE END LIST*
%TO.C,C9*%
D10*
X125365000Y-52227836D02*
X125365000Y-52012164D01*
X126085000Y-52227836D02*
X126085000Y-52012164D01*
%TO.C,C78*%
X122677836Y-93015000D02*
X122462164Y-93015000D01*
X122677836Y-93735000D02*
X122462164Y-93735000D01*
%TO.C,C73*%
X124365000Y-89667164D02*
X124365000Y-89882836D01*
X125085000Y-89667164D02*
X125085000Y-89882836D01*
%TO.C,C76*%
X122525000Y-90842836D02*
X122525000Y-90627164D01*
X123245000Y-90842836D02*
X123245000Y-90627164D01*
%TO.C,C72*%
X115240000Y-80211252D02*
X115240000Y-79688748D01*
X116710000Y-80211252D02*
X116710000Y-79688748D01*
%TO.C,C88*%
X122687836Y-94965000D02*
X122472164Y-94965000D01*
X122687836Y-95685000D02*
X122472164Y-95685000D01*
%TO.C,J6*%
D11*
X87200000Y-106625000D02*
X87650000Y-106625000D01*
X87200000Y-116525000D02*
X87200000Y-106625000D01*
X89950000Y-106625000D02*
X93030000Y-106625000D01*
X141270000Y-106625000D02*
X144350000Y-106625000D01*
X146650000Y-106625000D02*
X147100000Y-106625000D01*
X147100000Y-106625000D02*
X147100000Y-116525000D01*
D12*
X140850000Y-105125000D02*
G75*
G02*
X140650000Y-105125000I-100000J0D01*
G01*
X140650000Y-105125000D02*
G75*
G02*
X140850000Y-105125000I100000J0D01*
G01*
%TO.C,C77*%
D10*
X114013748Y-93015000D02*
X114536252Y-93015000D01*
X114013748Y-94485000D02*
X114536252Y-94485000D01*
%TO.C,C8*%
X123047164Y-50790000D02*
X123262836Y-50790000D01*
X123047164Y-51510000D02*
X123262836Y-51510000D01*
%TO.C,C75*%
X123227164Y-88955000D02*
X123442836Y-88955000D01*
X123227164Y-89675000D02*
X123442836Y-89675000D01*
%TO.C,C94*%
X122677836Y-93990000D02*
X122462164Y-93990000D01*
X122677836Y-94710000D02*
X122462164Y-94710000D01*
%TO.C,C74*%
X124422836Y-90825000D02*
X124207164Y-90825000D01*
X124422836Y-91545000D02*
X124207164Y-91545000D01*
%TO.C,R71*%
X87015000Y-63435436D02*
X87015000Y-64889564D01*
X88835000Y-63435436D02*
X88835000Y-64889564D01*
%TO.C,C105*%
X121087836Y-89090000D02*
X120872164Y-89090000D01*
X121087836Y-89810000D02*
X120872164Y-89810000D01*
%TD*%
M02*
