M48
; DRILL file KiCad 10.0.1-1.fc44 date 2026-05-23T21:55:11
; FORMAT={-:-/ absolute / metric / decimal}
; #@! TF.CreationDate,2026-05-23T21:55:11+02:00
; #@! TF.GenerationSoftware,Kicad,Pcbnew,10.0.1-1.fc44
; #@! TF.FileFunction,Plated,1,6,PTH
FMAT,2
METRIC
; #@! TA.AperFunction,Plated,PTH,ViaDrill
T1C0.150
; #@! TA.AperFunction,Plated,PTH,ViaDrill
T2C0.200
; #@! TA.AperFunction,Plated,PTH,ComponentDrill
T3C0.200
; #@! TA.AperFunction,Plated,PTH,ViaDrill
T4C0.400
; #@! TA.AperFunction,Plated,PTH,ComponentDrill
T5C0.400
; #@! TA.AperFunction,Plated,PTH,ComponentDrill
T6C0.500
; #@! TA.AperFunction,Plated,PTH,ComponentDrill
T7C0.600
; #@! TA.AperFunction,Plated,PTH,ViaDrill
T8C0.700
; #@! TA.AperFunction,Plated,PTH,ComponentDrill
T9C1.000
; #@! TA.AperFunction,Plated,PTH,ComponentDrill
T10C2.200
; #@! TA.AperFunction,Plated,PTH,ComponentDrill
T11C2.700
%
G90
G05
T1
X89.65Y-86.0
X91.0Y-86.65
X94.45Y-73.6
X100.1Y-94.25
X100.9Y-92.55
X100.9Y-94.15
X101.2Y-95.25
X101.3Y-93.45
X101.75Y-93.65
X103.275Y-96.525
X104.0Y-85.3
X104.05Y-87.9
X105.0Y-93.95
X105.2Y-88.55
X105.35Y-93.55
X106.5Y-96.7
X108.675Y-108.85
X110.0Y-76.2
X110.1Y-96.5
X110.725Y-86.525
X111.575Y-79.875
X111.6Y-81.05
X111.65Y-101.85
X111.7Y-78.8
X111.85Y-90.55
X111.95Y-97.35
X112.151Y-76.974
X112.25Y-96.95
X112.5Y-77.35
X112.56Y-81.75
X112.57Y-78.84
X112.6Y-82.25
X113.05Y-82.7
X113.1Y-98.0
X113.27Y-78.89
X113.55Y-81.55
X113.8Y-80.15
X114.45Y-98.387
X115.1Y-99.337
X115.5Y-98.15
X115.95Y-79.95
X115.962Y-86.388
X116.0Y-100.2
X116.325Y-89.975
X116.45Y-100.55
X116.475Y-90.426
X117.45Y-86.3
X117.5Y-90.85
X117.85Y-89.1
X118.05Y-110.05
X118.245Y-94.415
X118.3Y-86.6
X118.3Y-95.7
X118.85Y-87.175
X118.865Y-85.685
X119.05Y-84.3
X119.15Y-89.825
X119.225Y-94.775
X119.255Y-82.2
X119.35Y-99.075
X119.595Y-85.685
X119.6Y-80.9
X119.785Y-87.05
X119.785Y-91.035
X119.785Y-91.845
X120.2Y-82.7
X120.585Y-89.45
X120.585Y-91.85
X120.585Y-93.445
X120.695Y-84.075
X120.75Y-114.75
X120.975Y-95.575
X121.105Y-83.225
X121.375Y-91.85
X121.385Y-87.855
X121.385Y-89.45
X121.575Y-96.715
X121.775Y-103.7
X121.865Y-81.755
X122.15Y-96.125
X122.16Y-84.88
X122.175Y-87.85
X122.175Y-88.645
X122.185Y-87.055
X122.185Y-90.25
X122.185Y-91.05
X122.185Y-94.25
X122.195Y-91.845
X122.2Y-92.65
X122.35Y-114.8
X122.375Y-103.7
X122.565Y-97.095
X122.625Y-86.135
X122.725Y-85.3
X122.975Y-87.85
X122.975Y-93.45
X122.985Y-88.645
X122.985Y-89.45
X122.985Y-90.25
X122.985Y-91.05
X122.985Y-91.85
X122.985Y-94.25
X123.125Y-85.025
X123.35Y-103.55
X123.425Y-82.415
X123.775Y-87.05
X123.785Y-89.45
X123.785Y-90.25
X123.785Y-91.05
X123.8Y-100.35
X124.075Y-84.1
X124.185Y-110.985
X124.575Y-87.05
X124.585Y-89.45
X124.585Y-90.25
X124.585Y-91.05
X124.585Y-92.65
X124.585Y-93.455
X124.6Y-85.525
X124.6Y-88.65
X124.6Y-91.85
X124.775Y-82.192
X124.887Y-86.362
X124.95Y-94.85
X125.0Y-85.025
X125.037Y-104.012
X125.05Y-105.2
X125.35Y-103.125
X125.375Y-87.85
X125.385Y-91.835
X125.55Y-105.725
X125.75Y-83.525
X125.85Y-103.525
X126.185Y-88.65
X126.185Y-91.845
X126.225Y-85.15
X126.3Y-104.95
X126.35Y-111.2
X126.39Y-101.255
X126.62Y-96.03
X126.985Y-88.65
X127.0Y-93.45
X127.25Y-73.0
X127.325Y-95.025
X127.4Y-101.255
X127.575Y-80.425
X127.6Y-99.2
X128.273Y-82.692
X128.425Y-85.525
X128.525Y-72.825
X128.6Y-96.95
X128.65Y-93.35
X128.75Y-111.05
X128.875Y-99.5
X129.0Y-90.25
X129.05Y-89.075
X129.425Y-99.425
X130.525Y-110.805
X132.425Y-102.925
X132.825Y-110.975
X133.1Y-92.7
X133.35Y-85.3
X133.75Y-93.0
X135.925Y-115.725
X135.95Y-111.72
X138.9Y-93.1
X139.15Y-115.1
X141.5Y-115.425
X146.65Y-66.075
T2
X87.48Y-92.205
X87.9Y-71.45
X87.925Y-68.025
X87.95Y-69.9
X88.7Y-89.35
X89.035Y-76.16
X89.05Y-72.75
X89.35Y-86.65
X90.32Y-83.325
X91.95Y-94.25
X92.0Y-83.35
X92.275Y-52.625
X92.95Y-114.3
X93.0Y-59.55
X93.025Y-50.925
X93.5Y-111.75
X93.917Y-59.55
X94.025Y-50.925
X94.35Y-105.625
X94.975Y-109.625
X95.1Y-51.5
X95.15Y-112.05
X95.95Y-105.625
X95.997Y-38.25
X96.097Y-49.24
X96.15Y-87.35
X96.15Y-91.35
X96.15Y-94.05
X96.697Y-49.24
X96.75Y-110.975
X97.355Y-84.287
X97.525Y-109.65
X97.55Y-105.625
X97.65Y-111.0
X98.06Y-76.95
X98.35Y-83.45
X98.35Y-112.05
X98.7Y-103.05
X99.0Y-50.05
X99.0Y-50.05
X99.15Y-105.625
X99.35Y-81.2
X99.35Y-83.4
X99.35Y-109.675
X99.4Y-110.995
X99.5Y-50.05
X100.0Y-50.05
X100.25Y-111.85
X100.35Y-96.05
X100.45Y-105.75
X100.5Y-50.05
X100.6Y-89.22
X100.6Y-90.18
X100.7Y-97.7
X100.85Y-111.0
X101.0Y-50.05
X101.5Y-50.05
X101.515Y-41.65
X101.8Y-97.95
X101.855Y-61.86
X101.9Y-109.675
X101.925Y-62.7
X102.0Y-50.05
X102.2Y-65.05
X102.25Y-86.95
X102.5Y-50.05
X102.604Y-61.313
X102.75Y-102.25
X102.85Y-105.5
X102.85Y-111.45
X102.9Y-50.05
X103.15Y-105.9
X103.35Y-50.05
X103.425Y-54.6
X103.7Y-97.9
X103.75Y-82.35
X103.75Y-83.8
X103.775Y-80.175
X103.95Y-103.7
X104.0Y-50.0
X104.0Y-51.3
X104.362Y-76.8
X104.412Y-78.35
X104.45Y-109.675
X104.45Y-110.8
X104.475Y-57.625
X104.5Y-50.0
X104.5Y-51.3
X104.75Y-105.1
X105.0Y-50.0
X105.0Y-51.3
X105.025Y-57.625
X105.055Y-56.07
X105.25Y-98.0
X105.35Y-90.15
X105.4Y-96.1
X105.5Y-50.0
X105.5Y-51.3
X105.525Y-57.625
X105.525Y-111.4
X105.55Y-55.7
X105.55Y-103.7
X105.58Y-62.35
X105.7Y-108.825
X105.9Y-42.93
X105.95Y-111.9
X106.0Y-50.0
X106.0Y-51.3
X106.2Y-102.25
X106.355Y-105.185
X106.5Y-50.0
X106.5Y-51.3
X106.6Y-91.13
X106.6Y-93.14
X106.6Y-94.1
X106.855Y-57.25
X107.0Y-50.0
X107.0Y-51.3
X107.05Y-81.5
X107.1Y-78.662
X107.1Y-98.05
X107.3Y-67.1
X107.5Y-50.0
X107.5Y-51.3
X107.55Y-89.95
X107.575Y-96.1
X108.0Y-50.0
X108.0Y-51.3
X108.05Y-81.85
X108.175Y-67.875
X108.175Y-68.775
X108.5Y-50.0
X108.5Y-51.3
X108.55Y-111.65
X108.7Y-97.95
X108.75Y-85.2
X109.15Y-50.7
X109.25Y-65.8
X109.45Y-51.6
X109.6Y-61.9
X109.65Y-100.2
X110.1Y-105.7
X110.347Y-40.307
X110.35Y-93.15
X110.6Y-98.05
X112.6Y-75.85
X112.7Y-102.675
X112.75Y-105.1
X112.75Y-115.025
X112.8Y-93.75
X112.925Y-100.675
X113.15Y-103.225
X113.3Y-88.465
X113.3Y-104.4
X113.4Y-50.85
X113.45Y-49.8
X113.55Y-105.725
X113.55Y-115.025
X113.7Y-102.65
X113.85Y-103.25
X114.35Y-115.025
X115.0Y-86.265
X115.15Y-105.7
X115.15Y-115.025
X115.575Y-70.875
X115.575Y-72.175
X115.75Y-93.75
X115.875Y-75.925
X115.95Y-57.05
X115.95Y-105.7
X115.975Y-78.475
X115.975Y-81.425
X116.45Y-97.85
X116.6Y-102.9
X116.75Y-115.025
X116.775Y-80.125
X117.1Y-61.85
X117.5Y-110.85
X117.595Y-82.735
X117.75Y-105.25
X117.8Y-99.4
X118.25Y-109.2
X118.26Y-79.155
X118.3Y-98.2
X118.35Y-115.025
X118.365Y-83.695
X118.65Y-111.45
X119.15Y-115.1
X119.175Y-105.325
X119.625Y-101.225
X119.775Y-98.325
X119.85Y-63.75
X119.95Y-115.025
X119.975Y-103.775
X120.325Y-50.985
X120.35Y-64.4
X120.35Y-110.55
X120.475Y-99.2
X120.775Y-105.7
X120.85Y-63.75
X120.95Y-109.5
X121.35Y-57.85
X121.35Y-64.4
X121.45Y-98.325
X121.55Y-115.025
X121.7Y-73.35
X121.825Y-49.115
X121.85Y-57.2
X121.85Y-63.75
X122.05Y-52.35
X122.05Y-53.0
X122.1Y-99.2
X122.262Y-70.412
X122.35Y-57.8
X122.35Y-64.4
X122.375Y-80.455
X122.375Y-105.7
X122.6Y-110.85
X122.8Y-54.45
X122.85Y-63.75
X123.0Y-79.155
X123.075Y-69.625
X123.15Y-115.025
X123.225Y-110.0
X123.275Y-98.125
X123.325Y-56.175
X123.35Y-64.2
X123.625Y-43.325
X123.625Y-43.725
X123.625Y-44.175
X123.625Y-44.575
X123.725Y-51.125
X123.775Y-69.95
X123.9Y-51.6
X123.95Y-115.05
X123.975Y-52.275
X123.975Y-105.7
X123.985Y-79.805
X124.0Y-54.4
X124.075Y-99.075
X124.087Y-83.537
X124.225Y-51.125
X124.375Y-48.375
X124.4Y-69.95
X124.45Y-52.125
X124.477Y-52.598
X124.7Y-54.45
X124.857Y-50.625
X124.857Y-51.75
X124.857Y-52.325
X125.0Y-78.5
X125.0Y-110.825
X125.175Y-98.125
X125.365Y-48.375
X125.375Y-56.175
X125.4Y-100.9
X125.45Y-54.3
X125.525Y-51.125
X125.721Y-51.636
X125.734Y-65.8
X125.749Y-52.583
X125.825Y-99.025
X125.975Y-51.125
X126.1Y-54.3
X126.15Y-43.35
X126.15Y-43.725
X126.15Y-44.175
X126.15Y-44.575
X126.2Y-110.475
X126.35Y-112.0
X126.35Y-113.475
X126.66Y-78.225
X126.66Y-82.97
X126.675Y-79.375
X126.675Y-80.425
X126.925Y-98.05
X127.1Y-69.6
X127.15Y-114.95
X127.55Y-54.39
X127.55Y-55.41
X127.625Y-81.725
X127.725Y-49.825
X127.9Y-60.45
X127.95Y-114.95
X128.15Y-99.3
X128.3Y-74.845
X128.3Y-110.4
X128.35Y-71.95
X128.4Y-88.7
X128.55Y-92.1
X128.6Y-95.95
X128.625Y-97.8
X128.85Y-101.425
X129.35Y-72.0
X129.55Y-115.025
X129.65Y-87.85
X130.0Y-95.525
X130.075Y-97.8
X130.225Y-61.85
X130.25Y-52.0
X130.35Y-105.7
X130.35Y-115.025
X130.45Y-88.35
X130.512Y-94.013
X130.675Y-56.325
X130.9Y-89.2
X130.925Y-53.825
X130.945Y-65.825
X130.95Y-87.45
X130.95Y-90.1
X131.06Y-78.175
X131.175Y-104.675
X131.4Y-55.6
X131.475Y-96.725
X131.55Y-93.9
X131.6Y-87.35
X131.6Y-89.85
X131.95Y-115.025
X132.4Y-90.6
X132.4Y-92.18
X132.425Y-100.9
X132.475Y-68.5
X132.525Y-97.775
X132.7Y-88.55
X132.775Y-105.7
X132.8Y-86.5
X133.075Y-109.65
X133.199Y-95.541
X133.199Y-96.561
X133.55Y-115.025
X133.6Y-89.85
X134.1Y-92.35
X134.2Y-88.4
X134.275Y-94.925
X134.375Y-105.175
X134.975Y-97.75
X134.975Y-101.45
X135.15Y-115.025
X135.315Y-95.505
X135.315Y-96.525
X135.6Y-109.7
X135.65Y-73.05
X135.675Y-98.7
X135.975Y-105.7
X136.015Y-55.375
X136.375Y-94.5
X136.75Y-115.025
X136.9Y-80.6
X137.315Y-96.525
X137.46Y-111.05
X137.575Y-105.7
X137.95Y-80.2
X137.975Y-57.125
X138.1Y-100.35
X138.15Y-109.025
X138.265Y-55.385
X138.325Y-54.225
X138.35Y-115.025
X138.375Y-94.925
X138.875Y-59.375
X139.175Y-105.325
X139.375Y-64.725
X139.5Y-93.85
X139.775Y-52.225
X139.85Y-67.0
X139.95Y-88.725
X139.95Y-91.745
X139.95Y-109.35
X139.95Y-115.025
X140.0Y-110.45
X140.537Y-48.395
X140.75Y-115.025
X140.775Y-105.7
X141.35Y-70.6
X142.2Y-71.95
X143.875Y-54.575
X144.485Y-56.575
X145.22Y-90.825
X145.5Y-89.355
X145.95Y-97.05
X146.455Y-54.575
X146.475Y-55.557
X146.475Y-56.575
T3
X102.5Y-91.1
X102.5Y-93.0
X102.5Y-92.05
X103.45Y-91.1
X103.45Y-92.05
X103.45Y-93.0
X104.4Y-92.05
X104.4Y-91.1
X104.4Y-93.0
X106.15Y-85.95
X106.15Y-87.85
X106.15Y-86.9
X107.1Y-85.95
X107.1Y-86.9
X107.1Y-87.85
X108.05Y-86.9
X108.05Y-85.95
X108.05Y-87.85
X139.812Y-56.295
X140.387Y-55.345
X140.387Y-57.245
X140.963Y-56.295
T4
X87.925Y-59.45
X87.925Y-60.45
X87.925Y-61.55
X87.925Y-62.7
X95.123Y-45.225
X95.125Y-40.425
X95.205Y-63.95
X97.07Y-55.175
X97.07Y-56.85
X97.075Y-58.13
X97.285Y-68.525
X97.572Y-66.475
X97.572Y-67.525
X97.655Y-63.95
X98.255Y-58.13
X98.682Y-45.881
X99.43Y-58.13
X99.445Y-55.18
X99.45Y-56.85
X99.785Y-71.475
X100.105Y-63.95
X101.805Y-59.3
X102.625Y-59.29
X103.775Y-39.05
X103.775Y-39.95
X103.775Y-40.9
X103.775Y-41.8
X104.75Y-115.4
X105.725Y-68.83
X105.75Y-71.965
X105.8Y-115.4
X105.9Y-38.8
X105.9Y-39.6
X105.9Y-40.35
X105.9Y-41.05
X106.7Y-115.4
X107.499Y-45.872
X107.75Y-115.4
X109.345Y-74.275
X111.875Y-74.275
X112.75Y-38.9
X112.75Y-39.8
X112.75Y-40.7
X112.75Y-41.65
X113.65Y-68.0
X114.55Y-49.15
X115.375Y-51.6
X115.4Y-54.5
X115.65Y-44.125
X116.15Y-64.9
X116.15Y-66.55
X116.15Y-69.5
X117.275Y-69.5
X117.625Y-72.175
X117.835Y-51.575
X117.835Y-54.525
X118.05Y-44.125
X118.45Y-66.55
X118.45Y-69.5
X118.515Y-72.175
X118.535Y-70.885
X118.535Y-73.425
X119.35Y-72.155
X119.59Y-50.838
X120.05Y-71.7
X120.375Y-73.425
X124.45Y-64.7
X129.65Y-76.0
X131.06Y-83.375
X132.075Y-38.625
X132.075Y-40.975
X132.1Y-43.325
X132.1Y-45.7
X132.1Y-48.0
X133.675Y-65.925
X134.825Y-65.925
X134.825Y-67.075
X134.825Y-68.307
X135.025Y-38.625
X135.025Y-40.975
X135.05Y-43.325
X135.05Y-45.675
X135.05Y-48.025
X135.85Y-91.075
X137.7Y-38.305
X138.25Y-88.125
X138.25Y-91.05
X140.2Y-38.305
X143.1Y-70.7
X143.525Y-57.925
X143.525Y-60.875
X144.725Y-57.925
X145.575Y-71.975
X145.925Y-57.925
X145.925Y-60.875
X146.06Y-85.275
T5
X88.075Y-51.375
X88.075Y-99.525
X88.558Y-50.208
X88.558Y-52.542
X88.558Y-98.358
X88.558Y-100.692
X89.725Y-49.725
X89.725Y-53.025
X89.725Y-97.875
X89.725Y-101.175
X90.892Y-50.208
X90.892Y-52.542
X90.892Y-98.358
X90.892Y-100.692
X91.375Y-51.375
X91.375Y-99.525
X115.225Y-40.775
X115.708Y-39.608
X115.708Y-41.942
X116.875Y-39.125
X116.875Y-42.425
X118.042Y-39.608
X118.042Y-41.942
X118.525Y-40.775
X142.475Y-51.375
X142.475Y-99.675
X142.958Y-50.208
X142.958Y-52.542
X142.958Y-98.508
X142.958Y-100.842
X144.125Y-49.725
X144.125Y-53.025
X144.125Y-98.025
X144.125Y-101.325
X145.292Y-50.208
X145.292Y-52.542
X145.292Y-98.508
X145.292Y-100.842
X145.775Y-51.375
X145.775Y-99.675
T6
X123.135Y-71.175
X123.135Y-72.675
X123.135Y-74.175
X123.135Y-75.675
X124.735Y-71.175
X124.735Y-75.675
X126.335Y-71.175
X126.335Y-72.675
X126.335Y-74.175
X126.335Y-75.675
T8
X91.897Y-56.397
X92.85Y-55.25
X93.925Y-54.175
X108.9Y-110.35
X111.3Y-104.95
X111.95Y-110.225
X114.4Y-110.2
X125.4Y-59.05
X132.35Y-61.5
X133.85Y-61.5
T10
X89.725Y-51.375
X89.725Y-99.525
X116.875Y-40.775
X144.125Y-51.375
X144.125Y-99.675
T11
X144.5Y-40.575
X144.5Y-45.575
T7
X89.255Y-38.49G85X88.455Y-38.49
G05
X89.255Y-47.13G85X88.455Y-47.13
G05
X93.585Y-38.49G85X92.485Y-38.49
G05
X93.585Y-47.13G85X92.485Y-47.13
G05
T9
X88.825Y-108.225G85X88.825Y-107.225
G05
X88.825Y-112.825G85X88.825Y-112.125
G05
X91.95Y-110.525G85X91.95Y-109.525
G05
X142.35Y-110.525G85X142.35Y-109.525
G05
X145.475Y-108.225G85X145.475Y-107.225
G05
X145.475Y-112.825G85X145.475Y-112.125
G05
M30
