%TF.GenerationSoftware,KiCad,Pcbnew,10.0.1-1.fc44*%
%TF.CreationDate,2026-05-23T21:55:02+02:00*%
%TF.ProjectId,resoncance_converter_controller,7265736f-6e63-4616-9e63-655f636f6e76,rev?*%
%TF.SameCoordinates,Original*%
%TF.FileFunction,Paste,Bot*%
%TF.FilePolarity,Positive*%
%FSLAX46Y46*%
G04 Gerber Fmt 4.6, Leading zero omitted, Abs format (unit mm)*
G04 Created by KiCad (PCBNEW 10.0.1-1.fc44) date 2026-05-23 21:55:02*
%MOMM*%
%LPD*%
G01*
G04 APERTURE LIST*
G04 Aperture macros list*
%AMRoundRect*
0 Rectangle with rounded corners*
0 $1 Rounding radius*
0 $2 $3 $4 $5 $6 $7 $8 $9 X,Y pos of 4 corners*
0 Add a 4 corners polygon primitive as box body*
4,1,4,$2,$3,$4,$5,$6,$7,$8,$9,$2,$3,0*
0 Add four circle primitives for the rounded corners*
1,1,$1+$1,$2,$3*
1,1,$1+$1,$4,$5*
1,1,$1+$1,$6,$7*
1,1,$1+$1,$8,$9*
0 Add four rect primitives between the rounded corners*
20,1,$1+$1,$2,$3,$4,$5,0*
20,1,$1+$1,$4,$5,$6,$7,0*
20,1,$1+$1,$6,$7,$8,$9,0*
20,1,$1+$1,$8,$9,$2,$3,0*%
G04 Aperture macros list end*
%ADD10RoundRect,0.140000X0.170000X-0.140000X0.170000X0.140000X-0.170000X0.140000X-0.170000X-0.140000X0*%
%ADD11RoundRect,0.140000X0.140000X0.170000X-0.140000X0.170000X-0.140000X-0.170000X0.140000X-0.170000X0*%
%ADD12RoundRect,0.140000X-0.170000X0.140000X-0.170000X-0.140000X0.170000X-0.140000X0.170000X0.140000X0*%
%ADD13RoundRect,0.250000X0.475000X-0.250000X0.475000X0.250000X-0.475000X0.250000X-0.475000X-0.250000X0*%
%ADD14R,0.400000X2.100000*%
%ADD15RoundRect,0.250000X-0.250000X-0.475000X0.250000X-0.475000X0.250000X0.475000X-0.250000X0.475000X0*%
%ADD16RoundRect,0.140000X-0.140000X-0.170000X0.140000X-0.170000X0.140000X0.170000X-0.140000X0.170000X0*%
%ADD17RoundRect,0.250000X-0.625000X0.312500X-0.625000X-0.312500X0.625000X-0.312500X0.625000X0.312500X0*%
G04 APERTURE END LIST*
D10*
%TO.C,C9*%
X125725000Y-52600000D03*
X125725000Y-51640000D03*
%TD*%
D11*
%TO.C,C78*%
X123050000Y-93375000D03*
X122090000Y-93375000D03*
%TD*%
D12*
%TO.C,C73*%
X124725000Y-89295000D03*
X124725000Y-90255000D03*
%TD*%
D10*
%TO.C,C76*%
X122885000Y-91215000D03*
X122885000Y-90255000D03*
%TD*%
D13*
%TO.C,C72*%
X115975000Y-80900000D03*
X115975000Y-79000000D03*
%TD*%
D11*
%TO.C,C88*%
X123060000Y-95325000D03*
X122100000Y-95325000D03*
%TD*%
D14*
%TO.C,J6*%
X140750000Y-107175000D03*
X139950000Y-107175000D03*
X139150000Y-107175000D03*
X138350000Y-107175000D03*
X137550000Y-107175000D03*
X136750000Y-107175000D03*
X135950000Y-107175000D03*
X135150000Y-107175000D03*
X134350000Y-107175000D03*
X133550000Y-107175000D03*
X132750000Y-107175000D03*
X131950000Y-107175000D03*
X131150000Y-107175000D03*
X130350000Y-107175000D03*
X129550000Y-107175000D03*
X128750000Y-107175000D03*
X127950000Y-107175000D03*
X127150000Y-107175000D03*
X126350000Y-107175000D03*
X125550000Y-107175000D03*
X124750000Y-107175000D03*
X123950000Y-107175000D03*
X123150000Y-107175000D03*
X122350000Y-107175000D03*
X121550000Y-107175000D03*
X120750000Y-107175000D03*
X119950000Y-107175000D03*
X119150000Y-107175000D03*
X118350000Y-107175000D03*
X117550000Y-107175000D03*
X116750000Y-107175000D03*
X115950000Y-107175000D03*
X115150000Y-107175000D03*
X114350000Y-107175000D03*
X113550000Y-107175000D03*
X112750000Y-107175000D03*
X111950000Y-107175000D03*
X111150000Y-107175000D03*
X110350000Y-107175000D03*
X109550000Y-107175000D03*
X108750000Y-107175000D03*
X107950000Y-107175000D03*
X107150000Y-107175000D03*
X106350000Y-107175000D03*
X105550000Y-107175000D03*
X104750000Y-107175000D03*
X103950000Y-107175000D03*
X103150000Y-107175000D03*
X102350000Y-107175000D03*
X101550000Y-107175000D03*
X100750000Y-107175000D03*
X99950000Y-107175000D03*
X99150000Y-107175000D03*
X98350000Y-107175000D03*
X97550000Y-107175000D03*
X96750000Y-107175000D03*
X95950000Y-107175000D03*
X95150000Y-107175000D03*
X94350000Y-107175000D03*
X93550000Y-107175000D03*
X140750000Y-113475000D03*
X139950000Y-113475000D03*
X139150000Y-113475000D03*
X138350000Y-113475000D03*
X137550000Y-113475000D03*
X136750000Y-113475000D03*
X135950000Y-113475000D03*
X135150000Y-113475000D03*
X134350000Y-113475000D03*
X133550000Y-113475000D03*
X132750000Y-113475000D03*
X131950000Y-113475000D03*
X131150000Y-113475000D03*
X130350000Y-113475000D03*
X129550000Y-113475000D03*
X128750000Y-113475000D03*
X127950000Y-113475000D03*
X127150000Y-113475000D03*
X126350000Y-113475000D03*
X125550000Y-113475000D03*
X124750000Y-113475000D03*
X123950000Y-113475000D03*
X123150000Y-113475000D03*
X122350000Y-113475000D03*
X121550000Y-113475000D03*
X120750000Y-113475000D03*
X119950000Y-113475000D03*
X119150000Y-113475000D03*
X118350000Y-113475000D03*
X117550000Y-113475000D03*
X116750000Y-113475000D03*
X115950000Y-113475000D03*
X115150000Y-113475000D03*
X114350000Y-113475000D03*
X113550000Y-113475000D03*
X112750000Y-113475000D03*
X111950000Y-113475000D03*
X111150000Y-113475000D03*
X110350000Y-113475000D03*
X109550000Y-113475000D03*
X108750000Y-113475000D03*
X107950000Y-113475000D03*
X107150000Y-113475000D03*
X106350000Y-113475000D03*
X105550000Y-113475000D03*
X104750000Y-113475000D03*
X103950000Y-113475000D03*
X103150000Y-113475000D03*
X102350000Y-113475000D03*
X101550000Y-113475000D03*
X100750000Y-113475000D03*
X99950000Y-113475000D03*
X99150000Y-113475000D03*
X98350000Y-113475000D03*
X97550000Y-113475000D03*
X96750000Y-113475000D03*
X95950000Y-113475000D03*
X95150000Y-113475000D03*
X94350000Y-113475000D03*
X93550000Y-113475000D03*
%TD*%
D15*
%TO.C,C77*%
X113325000Y-93750000D03*
X115225000Y-93750000D03*
%TD*%
D16*
%TO.C,C8*%
X122675000Y-51150000D03*
X123635000Y-51150000D03*
%TD*%
%TO.C,C75*%
X122855000Y-89315000D03*
X123815000Y-89315000D03*
%TD*%
D11*
%TO.C,C94*%
X123050000Y-94350000D03*
X122090000Y-94350000D03*
%TD*%
%TO.C,C74*%
X124795000Y-91185000D03*
X123835000Y-91185000D03*
%TD*%
D17*
%TO.C,R71*%
X87925000Y-62700000D03*
X87925000Y-65625000D03*
%TD*%
D11*
%TO.C,C105*%
X121460000Y-89450000D03*
X120500000Y-89450000D03*
%TD*%
M02*
