M48
; DRILL file KiCad 10.0.1-1.fc44 date 2026-05-23T22:46:06
; FORMAT={-:-/ absolute / metric / decimal}
; #@! TF.CreationDate,2026-05-23T22:46:06+02:00
; #@! TF.GenerationSoftware,Kicad,Pcbnew,10.0.1-1.fc44
; #@! TF.FileFunction,Plated,1,6,PTH
FMAT,2
METRIC
; #@! TA.AperFunction,Plated,PTH,ViaDrill
T1C0.200
; #@! TA.AperFunction,Plated,PTH,ComponentDrill
T2C0.200
; #@! TA.AperFunction,Plated,PTH,ViaDrill
T3C0.400
; #@! TA.AperFunction,Plated,PTH,ComponentDrill
T4C0.400
; #@! TA.AperFunction,Plated,PTH,ViaDrill
T5C0.700
; #@! TA.AperFunction,Plated,PTH,ComponentDrill
T6C1.000
; #@! TA.AperFunction,Plated,PTH,ComponentDrill
T7C1.700
; #@! TA.AperFunction,Plated,PTH,ComponentDrill
T8C1.900
; #@! TA.AperFunction,Plated,PTH,ComponentDrill
T9C2.200
; #@! TA.AperFunction,Plated,PTH,ComponentDrill
T10C2.440
%
G90
G05
T1
X133.45Y-104.8
X133.51Y-129.78
X133.51Y-133.38
X136.45Y-104.8
X138.625Y-132.775
X139.4Y-100.1
X139.7Y-131.8
X140.0Y-139.6
X140.63Y-110.2
X140.95Y-118.85
X141.3Y-104.79
X141.5Y-120.6
X141.685Y-102.485
X142.3Y-104.29
X143.16Y-100.1
X143.3Y-139.6
X143.7Y-134.5
X145.1Y-133.5
X145.11Y-107.467
X146.3Y-102.9
X147.5Y-100.8
X147.815Y-111.341
X148.3Y-100.1
X148.488Y-107.569
X149.749Y-100.01
X150.476Y-105.315
X151.8Y-106.0
X155.591Y-102.43
X157.45Y-115.798
X158.741Y-116.486
X159.734Y-87.9
X170.053Y-49.53
X170.075Y-55.2
X170.078Y-78.779
X170.078Y-92.5
X170.205Y-122.975
X170.23Y-137.306
X170.866Y-45.421
X170.866Y-59.741
X170.866Y-83.3
X170.869Y-97.151
X170.993Y-127.5
X171.018Y-133.176
X171.675Y-57.6
X171.678Y-95.01
X171.688Y-75.0
X171.704Y-50.648
X171.805Y-139.206
X171.815Y-119.5
X172.491Y-43.496
X172.491Y-80.936
X172.5Y-63.5
X172.5Y-103.0
X172.589Y-132.058
X172.618Y-125.132
X173.275Y-55.2
X173.278Y-92.5
X173.279Y-49.505
X173.279Y-78.791
X173.406Y-122.987
X173.43Y-137.306
X174.066Y-45.415
X174.075Y-83.3
X174.092Y-59.741
X174.095Y-97.151
X174.202Y-127.5
X174.219Y-133.172
X174.854Y-75.0
X174.879Y-50.648
X174.9Y-57.6
X174.903Y-95.01
X175.0Y-119.5
X175.03Y-139.206
X175.292Y-89.04
X175.666Y-43.51
X175.666Y-63.5
X175.666Y-80.95
X175.67Y-103.0
X175.793Y-125.146
X175.793Y-132.08
X176.454Y-78.791
X176.475Y-55.2
X176.478Y-92.5
X176.479Y-49.505
X176.581Y-122.987
X176.63Y-137.306
X177.267Y-45.415
X177.267Y-59.741
X177.27Y-97.151
X177.275Y-83.3
X177.402Y-127.5
X177.419Y-133.172
X178.054Y-75.0
X178.079Y-50.648
X178.1Y-57.6
X178.103Y-95.01
X178.181Y-119.5
X178.23Y-139.206
X178.892Y-43.51
X178.892Y-80.95
X178.994Y-132.08
X179.0Y-63.5
X179.0Y-103.0
X179.019Y-125.146
X179.675Y-55.2
X179.675Y-83.3
X179.678Y-92.5
X179.68Y-45.415
X179.802Y-127.5
X179.805Y-137.281
X180.5Y-57.6
X180.503Y-95.01
X180.63Y-139.206
X182.85Y-83.3
X182.88Y-45.415
X182.977Y-127.5
X186.075Y-45.415
X186.078Y-92.5
X186.1Y-83.3
X186.227Y-127.5
X186.3Y-56.1
X186.43Y-137.706
X189.275Y-55.2
X189.275Y-83.3
X189.278Y-92.5
X189.281Y-45.415
X189.402Y-127.5
X189.43Y-137.706
X190.068Y-43.51
X190.068Y-80.95
X190.1Y-57.6
X190.103Y-95.01
X190.195Y-125.146
X190.23Y-139.206
X190.731Y-113.266
X190.875Y-55.2
X190.881Y-49.53
X190.881Y-78.765
X190.903Y-93.51
X191.008Y-122.961
X191.03Y-137.706
X191.092Y-86.755
X191.675Y-83.3
X191.694Y-45.415
X191.7Y-57.6
X191.703Y-95.01
X191.802Y-127.5
X191.83Y-139.206
X192.456Y-43.51
X192.456Y-80.95
X192.481Y-59.766
X192.485Y-97.176
X192.583Y-125.146
X192.583Y-133.172
X193.243Y-75.0
X193.269Y-49.479
X193.278Y-92.5
X193.3Y-56.1
X193.32Y-88.774
X193.37Y-119.5
X193.43Y-137.706
X194.0Y-103.0
X194.056Y-45.415
X194.075Y-83.3
X194.081Y-63.5
X194.2Y-132.063
X194.202Y-127.5
X194.266Y-119.088
X194.869Y-50.673
X194.869Y-78.715
X194.9Y-57.6
X194.903Y-95.01
X194.996Y-122.911
X195.03Y-139.206
X195.656Y-43.51
X195.656Y-80.95
X195.707Y-59.766
X195.71Y-97.176
X195.783Y-125.146
X195.783Y-133.198
X196.469Y-49.479
X196.469Y-75.0
X196.475Y-55.2
X196.478Y-92.5
X196.5Y-119.5
X196.63Y-137.706
X197.139Y-68.1
X197.256Y-63.5
X197.26Y-101.0
X197.275Y-83.3
X197.282Y-45.39
X197.379Y-88.567
X197.402Y-127.5
X197.409Y-132.08
X198.044Y-78.715
X198.069Y-50.698
X198.1Y-57.6
X198.103Y-95.01
X198.171Y-122.911
X198.23Y-139.206
X198.882Y-43.51
X198.882Y-59.792
X198.882Y-80.95
X198.885Y-97.201
X199.009Y-125.146
X199.009Y-133.223
X199.315Y-114.662
X199.669Y-49.479
X199.669Y-75.0
X199.675Y-55.2
X199.678Y-92.5
X199.796Y-119.5
X199.83Y-137.706
X200.062Y-73.186
X200.457Y-66.5
X200.46Y-105.0
X200.475Y-83.3
X200.482Y-45.39
X200.602Y-127.5
X200.609Y-132.08
X201.244Y-78.715
X201.27Y-50.698
X201.295Y-63.5
X201.298Y-98.5
X201.371Y-122.911
X201.397Y-133.248
X202.0Y-75.0
X202.06Y-102.0
X202.075Y-60.0
X202.082Y-49.479
X202.209Y-119.5
X202.209Y-132.08
X202.87Y-50.724
X202.87Y-66.5
X202.87Y-72.0
X202.878Y-95.0
X202.997Y-133.248
X203.0Y-115.0
X203.661Y-105.0
X203.675Y-81.0
X203.683Y-49.479
X203.784Y-132.08
X203.802Y-125.0
X204.47Y-50.724
X204.475Y-78.694
X204.499Y-98.5
X204.5Y-60.0
X204.526Y-88.772
X204.597Y-119.5
X204.597Y-133.248
X204.99Y-86.753
X205.283Y-49.479
X205.283Y-75.0
X205.308Y-66.5
X205.312Y-102.0
X205.384Y-132.08
X205.41Y-115.0
X206.07Y-50.724
X206.07Y-72.0
X206.1Y-57.6
X206.103Y-95.01
X206.197Y-122.885
X206.23Y-139.206
X206.308Y-89.133
X206.875Y-55.2
X206.878Y-92.5
X206.883Y-43.485
X206.883Y-80.924
X206.932Y-86.755
X207.01Y-125.12
X207.03Y-137.706
X207.67Y-45.364
X207.675Y-83.3
X207.696Y-59.792
X207.699Y-97.201
X207.797Y-133.248
X207.802Y-127.5
X208.483Y-49.505
X208.483Y-75.0
X208.5Y-57.6
X208.5Y-119.5
X208.503Y-95.01
X208.63Y-139.206
X208.897Y-88.772
X209.271Y-43.459
X209.271Y-63.5
X209.271Y-80.899
X209.274Y-101.0
X209.398Y-125.095
X209.398Y-132.08
X210.075Y-55.2
X210.078Y-92.5
X210.083Y-50.724
X210.083Y-78.689
X210.21Y-122.885
X210.23Y-137.706
X210.87Y-88.772
X210.871Y-45.364
X210.875Y-83.3
X210.896Y-59.792
X210.9Y-97.201
X210.998Y-133.248
X211.002Y-127.5
X211.658Y-75.0
X211.684Y-49.53
X211.7Y-57.6
X211.703Y-95.01
X211.785Y-119.5
X211.83Y-139.206
X212.471Y-43.459
X212.471Y-63.5
X212.471Y-80.899
X212.474Y-101.0
X212.598Y-125.095
X212.598Y-132.08
X213.258Y-78.689
X213.275Y-55.2
X213.278Y-92.5
X213.284Y-50.724
X213.385Y-122.885
X213.43Y-137.706
X213.666Y-88.772
X214.071Y-59.792
X214.075Y-83.3
X214.075Y-97.201
X214.097Y-45.364
X214.173Y-133.248
X214.202Y-127.5
X214.527Y-86.755
X214.859Y-49.53
X214.875Y-75.0
X214.9Y-57.6
X214.903Y-95.01
X215.0Y-119.5
X215.03Y-139.206
X215.671Y-43.459
X215.671Y-80.899
X215.697Y-63.5
X215.7Y-101.0
X215.798Y-125.095
X215.798Y-132.08
X216.475Y-55.2
X216.478Y-92.5
X216.484Y-50.698
X216.484Y-78.689
X216.611Y-122.885
X216.63Y-137.706
X217.272Y-45.364
X217.275Y-83.3
X217.3Y-57.6
X217.303Y-95.01
X217.402Y-127.5
X217.43Y-139.206
T2
X147.7Y-104.015
X147.7Y-105.115
X148.8Y-104.015
X148.8Y-105.115
T3
X133.45Y-100.55
X133.45Y-109.47
X133.49Y-62.87
X134.75Y-67.69
X135.61Y-130.08
X138.04Y-62.87
X139.38Y-67.66
X140.1Y-137.5
X143.6Y-114.9
X155.8Y-110.4
X155.8Y-116.6
X159.0Y-101.6
X173.939Y-42.037
X174.904Y-42.0
X175.87Y-42.0
X176.987Y-42.0
X182.0Y-56.5
X182.0Y-58.0
X182.0Y-138.0
X182.0Y-139.5
X182.003Y-93.91
X182.003Y-95.41
X183.5Y-56.5
X183.5Y-58.0
X183.5Y-138.0
X183.5Y-139.5
X183.503Y-93.91
X183.503Y-95.41
X184.5Y-72.5
X184.6Y-117.5
X185.0Y-56.5
X185.0Y-58.0
X185.0Y-138.0
X185.0Y-139.5
X185.003Y-93.91
X185.003Y-95.41
X186.9Y-49.3
X186.9Y-51.9
X186.9Y-86.9
X186.9Y-89.1
X187.0Y-133.1
X187.027Y-131.096
X187.7Y-45.5
X187.7Y-55.6
X187.7Y-82.7
X187.703Y-93.01
X187.8Y-137.5
X187.827Y-126.896
X188.5Y-49.3
X188.5Y-51.9
X188.5Y-86.9
X188.5Y-89.1
X188.6Y-133.1
X188.627Y-131.096
X193.167Y-42.0
X194.208Y-42.0
X195.148Y-42.0
X196.113Y-42.0
T4
X133.35Y-44.0
X133.35Y-138.0
X133.833Y-42.833
X133.833Y-45.167
X133.833Y-136.833
X133.833Y-139.167
X135.0Y-42.35
X135.0Y-45.65
X135.0Y-136.35
X135.0Y-139.65
X136.167Y-42.833
X136.167Y-45.167
X136.167Y-136.833
X136.167Y-139.167
X136.65Y-44.0
X136.65Y-138.0
X227.35Y-44.0
X227.35Y-138.0
X227.833Y-42.833
X227.833Y-45.167
X227.833Y-136.833
X227.833Y-139.167
X229.0Y-42.35
X229.0Y-45.65
X229.0Y-136.35
X229.0Y-139.65
X230.167Y-42.833
X230.167Y-45.167
X230.167Y-136.833
X230.167Y-139.167
X230.65Y-44.0
X230.65Y-138.0
T5
X135.775Y-78.125
X137.0Y-97.0
X139.5Y-93.5
X142.0Y-97.0
X150.0Y-97.0
X150.5Y-136.0
X152.5Y-94.0
X152.5Y-99.1
X154.0Y-136.0
X155.0Y-97.0
X157.5Y-136.0
X160.5Y-125.5
X160.5Y-128.5
X160.5Y-131.5
X160.5Y-134.5
T6
X146.025Y-44.312
X157.025Y-44.312
T7
X142.75Y-66.935
X142.75Y-76.525
X149.775Y-66.885
X149.775Y-76.475
T8
X149.025Y-54.312
X154.025Y-54.312
T9
X135.0Y-44.0
X135.0Y-138.0
X229.0Y-44.0
X229.0Y-138.0
T10
X142.75Y-60.175
X142.75Y-83.285
X149.775Y-60.125
X149.775Y-83.235
T6
X165.35Y-47.6G85X165.35Y-48.4
G05
X165.35Y-53.0G85X165.35Y-53.2
G05
X165.35Y-85.0G85X165.35Y-85.8
G05
X165.35Y-90.4G85X165.35Y-90.6
G05
X165.475Y-129.2G85X165.475Y-130.0
G05
X165.475Y-134.6G85X165.475Y-134.8
G05
X168.475Y-50.05G85X168.475Y-51.05
G05
X168.475Y-87.45G85X168.475Y-88.45
G05
X168.6Y-131.65G85X168.6Y-132.65
G05
X218.875Y-50.05G85X218.875Y-51.05
G05
X218.875Y-87.45G85X218.875Y-88.45
G05
X219.0Y-131.65G85X219.0Y-132.65
G05
X222.0Y-47.6G85X222.0Y-48.4
G05
X222.0Y-53.0G85X222.0Y-53.2
G05
X222.0Y-85.0G85X222.0Y-85.8
G05
X222.0Y-90.4G85X222.0Y-90.6
G05
X222.125Y-129.2G85X222.125Y-130.0
G05
X222.125Y-134.6G85X222.125Y-134.8
G05
M30
