%TF.GenerationSoftware,KiCad,Pcbnew,10.0.1-1.fc44*%
%TF.CreationDate,2026-05-23T22:45:55+02:00*%
%TF.ProjectId,resonance_converter_controller_mb,7265736f-6e61-46e6-9365-5f636f6e7665,rev?*%
%TF.SameCoordinates,Original*%
%TF.FileFunction,Copper,L6,Bot*%
%TF.FilePolarity,Positive*%
%FSLAX46Y46*%
G04 Gerber Fmt 4.6, Leading zero omitted, Abs format (unit mm)*
G04 Created by KiCad (PCBNEW 10.0.1-1.fc44) date 2026-05-23 22:45:55*
%MOMM*%
%LPD*%
G01*
G04 APERTURE LIST*
G04 Aperture macros list*
%AMRoundRect*
0 Rectangle with rounded corners*
0 $1 Rounding radius*
0 $2 $3 $4 $5 $6 $7 $8 $9 X,Y pos of 4 corners*
0 Add a 4 corners polygon primitive as box body*
4,1,4,$2,$3,$4,$5,$6,$7,$8,$9,$2,$3,0*
0 Add four circle primitives for the rounded corners*
1,1,$1+$1,$2,$3*
1,1,$1+$1,$4,$5*
1,1,$1+$1,$6,$7*
1,1,$1+$1,$8,$9*
0 Add four rect primitives between the rounded corners*
20,1,$1+$1,$2,$3,$4,$5,0*
20,1,$1+$1,$4,$5,$6,$7,0*
20,1,$1+$1,$6,$7,$8,$9,0*
20,1,$1+$1,$8,$9,$2,$3,0*%
G04 Aperture macros list end*
%TA.AperFunction,ComponentPad*%
%ADD10RoundRect,0.875000X-0.875000X0.875000X-0.875000X-0.875000X0.875000X-0.875000X0.875000X0.875000X0*%
%TD*%
%TA.AperFunction,ComponentPad*%
%ADD11RoundRect,0.675000X-0.675000X0.675000X-0.675000X-0.675000X0.675000X-0.675000X0.675000X0.675000X0*%
%TD*%
%TA.AperFunction,ComponentPad*%
%ADD12C,2.700000*%
%TD*%
%TA.AperFunction,ComponentPad*%
%ADD13C,3.500000*%
%TD*%
%TA.AperFunction,ComponentPad*%
%ADD14C,1.400000*%
%TD*%
%TA.AperFunction,ComponentPad*%
%ADD15RoundRect,0.770000X-0.980000X-0.980000X0.980000X-0.980000X0.980000X0.980000X-0.980000X0.980000X0*%
%TD*%
%TA.AperFunction,ComponentPad*%
%ADD16O,1.400000X2.200000*%
%TD*%
%TA.AperFunction,ComponentPad*%
%ADD17O,1.400000X1.600000*%
%TD*%
%TA.AperFunction,ComponentPad*%
%ADD18O,1.400000X2.400000*%
%TD*%
%TA.AperFunction,ComponentPad*%
%ADD19C,0.700000*%
%TD*%
%TA.AperFunction,ComponentPad*%
%ADD20C,4.400000*%
%TD*%
%TA.AperFunction,ComponentPad*%
%ADD21C,0.450000*%
%TD*%
%TA.AperFunction,ViaPad*%
%ADD22C,0.450000*%
%TD*%
%TA.AperFunction,ViaPad*%
%ADD23C,1.500000*%
%TD*%
%TA.AperFunction,ViaPad*%
%ADD24C,0.800000*%
%TD*%
%TA.AperFunction,Conductor*%
%ADD25C,1.000000*%
%TD*%
%TA.AperFunction,Conductor*%
%ADD26C,0.200000*%
%TD*%
%TA.AperFunction,Conductor*%
%ADD27C,0.400000*%
%TD*%
G04 APERTURE END LIST*
D10*
%TO.P,F1,1*%
%TO.N,EXT_VCC*%
X142750000Y-60175000D03*
D11*
X142750000Y-66935000D03*
D12*
%TO.P,F1,2*%
%TO.N,+3.3V*%
X142750000Y-76525000D03*
D13*
X142750000Y-83285000D03*
%TD*%
D10*
%TO.P,F2,1*%
%TO.N,Net-(J3-Pin_2)*%
X149775000Y-60125000D03*
D11*
X149775000Y-66885000D03*
D12*
%TO.P,F2,2*%
%TO.N,VDD*%
X149775000Y-76475000D03*
D13*
X149775000Y-83235000D03*
%TD*%
D14*
%TO.P,J3,*%
%TO.N,*%
X146025000Y-44312500D03*
X157025000Y-44312500D03*
D15*
%TO.P,J3,1,Pin_1_1*%
%TO.N,GND*%
X154025000Y-54312500D03*
D13*
%TO.P,J3,2,Pin_2_2*%
%TO.N,Net-(J3-Pin_2)*%
X149025000Y-54312500D03*
%TD*%
D16*
%TO.P,J2,MFA_1,MFA_1_MFA_1*%
%TO.N,VOUT*%
X165350000Y-85400000D03*
D17*
%TO.P,J2,MFA_2,MFA_2_MFA_2*%
%TO.N,VBUS_DOCK*%
X165350000Y-90500000D03*
D16*
%TO.P,J2,MFB_1,MFB_1_MFB_1*%
%TO.N,VSYS*%
X222000000Y-85400000D03*
D17*
%TO.P,J2,MFB_2,MFB_2_MFB_2*%
X222000000Y-90500000D03*
D18*
%TO.P,J2,SH1*%
%TO.N,N/C*%
X168475000Y-87950000D03*
%TO.P,J2,SH2*%
X218875000Y-87950000D03*
%TD*%
D16*
%TO.P,J1,MFA_1,MFA_1_MFA_1*%
%TO.N,VOUT*%
X165350000Y-48000000D03*
D17*
%TO.P,J1,MFA_2,MFA_2_MFA_2*%
%TO.N,VBUS_DOCK*%
X165350000Y-53100000D03*
D16*
%TO.P,J1,MFB_1,MFB_1_MFB_1*%
%TO.N,VSYS*%
X222000000Y-48000000D03*
D17*
%TO.P,J1,MFB_2,MFB_2_MFB_2*%
X222000000Y-53100000D03*
D18*
%TO.P,J1,SH1*%
%TO.N,N/C*%
X168475000Y-50550000D03*
%TO.P,J1,SH2*%
X218875000Y-50550000D03*
%TD*%
D19*
%TO.P,H2,1,1_1*%
%TO.N,GND*%
X133350000Y-138000000D03*
X133833274Y-136833274D03*
X133833274Y-139166726D03*
X135000000Y-136350000D03*
D20*
X135000000Y-138000000D03*
D19*
X135000000Y-139650000D03*
X136166726Y-136833274D03*
X136166726Y-139166726D03*
X136650000Y-138000000D03*
%TD*%
D16*
%TO.P,J4,MFA_1,MFA_1_MFA_1*%
%TO.N,VOUT*%
X165475000Y-129600000D03*
D17*
%TO.P,J4,MFA_2,MFA_2_MFA_2*%
%TO.N,VBUS_DOCK*%
X165475000Y-134700000D03*
D16*
%TO.P,J4,MFB_1,MFB_1_MFB_1*%
%TO.N,VSYS*%
X222125000Y-129600000D03*
D17*
%TO.P,J4,MFB_2,MFB_2_MFB_2*%
X222125000Y-134700000D03*
D18*
%TO.P,J4,SH1*%
%TO.N,N/C*%
X168600000Y-132150000D03*
%TO.P,J4,SH2*%
X219000000Y-132150000D03*
%TD*%
D19*
%TO.P,H6,1,1_1*%
%TO.N,GND*%
X227350000Y-138000000D03*
X227833274Y-136833274D03*
X227833274Y-139166726D03*
X229000000Y-136350000D03*
D20*
X229000000Y-138000000D03*
D19*
X229000000Y-139650000D03*
X230166726Y-136833274D03*
X230166726Y-139166726D03*
X230650000Y-138000000D03*
%TD*%
D21*
%TO.P,U1,17,EXP_17*%
%TO.N,GND*%
X147700000Y-104015000D03*
X147700000Y-105115000D03*
X148800000Y-104015000D03*
X148800000Y-105115000D03*
%TD*%
D19*
%TO.P,H3,1,1_1*%
%TO.N,GND*%
X227350000Y-44000000D03*
X227833274Y-42833274D03*
X227833274Y-45166726D03*
X229000000Y-42350000D03*
D20*
X229000000Y-44000000D03*
D19*
X229000000Y-45650000D03*
X230166726Y-42833274D03*
X230166726Y-45166726D03*
X230650000Y-44000000D03*
%TD*%
%TO.P,H1,1,1_1*%
%TO.N,GND*%
X133350000Y-44000000D03*
X133833274Y-42833274D03*
X133833274Y-45166726D03*
X135000000Y-42350000D03*
D20*
X135000000Y-44000000D03*
D19*
X135000000Y-45650000D03*
X136166726Y-42833274D03*
X136166726Y-45166726D03*
X136650000Y-44000000D03*
%TD*%
D22*
%TO.N,GND*%
X133510000Y-129780000D03*
X216630000Y-137706000D03*
X170866000Y-45421400D03*
X190875000Y-55200000D03*
X172491000Y-43496400D03*
X177267000Y-45415200D03*
X172491000Y-80936000D03*
X170078000Y-92500000D03*
X194075000Y-83300000D03*
X178103000Y-95009800D03*
X177275000Y-83300000D03*
X200475000Y-83300000D03*
X192456000Y-43510200D03*
X186300000Y-56100000D03*
X182977000Y-127500000D03*
X173275000Y-55200000D03*
X213275000Y-55200000D03*
X179678000Y-92500000D03*
X207010000Y-125120000D03*
X170866000Y-83300000D03*
X212598000Y-125095000D03*
D23*
X155000000Y-97000000D03*
D22*
X215671000Y-43459400D03*
X193278000Y-92500000D03*
X139400000Y-100100000D03*
X200602000Y-127500000D03*
X171678000Y-95009800D03*
X199675000Y-55200000D03*
D23*
X142000000Y-97000000D03*
D22*
X177402000Y-127500000D03*
X194202000Y-127500000D03*
X208500000Y-57600000D03*
X193430000Y-137706000D03*
X206875000Y-55200000D03*
X214900000Y-57600000D03*
X214903000Y-95009800D03*
X217300000Y-57600000D03*
X182880000Y-45415200D03*
X174066000Y-45415200D03*
X210875000Y-83300000D03*
X190100000Y-57600000D03*
X174075000Y-83300000D03*
X175666000Y-80949800D03*
D24*
X134750000Y-67690000D03*
D22*
X179675000Y-83300000D03*
X216475000Y-55200000D03*
X179802000Y-127500000D03*
X171675000Y-57600000D03*
X189430000Y-137706000D03*
X182850000Y-83300000D03*
D23*
X137000000Y-97000000D03*
D22*
X217272000Y-45364400D03*
X192583000Y-125146000D03*
X197282000Y-45389800D03*
X214202000Y-127500000D03*
D23*
X152500000Y-99100000D03*
D22*
X190230000Y-139206000D03*
X189281000Y-45415200D03*
X192456000Y-80949800D03*
X180500000Y-57600000D03*
X206230000Y-139206000D03*
X178230000Y-139206000D03*
X210078000Y-92500000D03*
X174900000Y-57600000D03*
X179805000Y-137281000D03*
X210230000Y-137706000D03*
X197402000Y-127500000D03*
X190068000Y-43510200D03*
X195030000Y-139206000D03*
X211700000Y-57600000D03*
X170993000Y-127500000D03*
X198882000Y-80949800D03*
X211703000Y-95009800D03*
X174903000Y-95009800D03*
X214097000Y-45364400D03*
X189275000Y-83300000D03*
X207030000Y-137706000D03*
X178892000Y-80949800D03*
X217402000Y-127500000D03*
X211002000Y-127500000D03*
X206883000Y-80924400D03*
X197275000Y-83300000D03*
X189278000Y-92500000D03*
X210075000Y-55200000D03*
X141685001Y-102485000D03*
D24*
X140100000Y-137500000D03*
D22*
X148300000Y-100100000D03*
X208630000Y-139206000D03*
X179019000Y-125146000D03*
X150476000Y-105315000D03*
X175666000Y-43510200D03*
X198103000Y-95009800D03*
X191030000Y-137706000D03*
X209271000Y-43459400D03*
X190195000Y-125146000D03*
X145110000Y-107467000D03*
X191703000Y-95009800D03*
X206883000Y-43484800D03*
X217303000Y-95009800D03*
X176630000Y-137306000D03*
X214075000Y-83300000D03*
X143300000Y-139600000D03*
X189402000Y-127500000D03*
X140000000Y-139600000D03*
X190903000Y-93509800D03*
X212471000Y-80899000D03*
D24*
X133490000Y-62870000D03*
D22*
X170230000Y-137306000D03*
X179680000Y-45415200D03*
X140950000Y-118850000D03*
X172618000Y-125132000D03*
X198100000Y-57600000D03*
X209398000Y-125095000D03*
D23*
X139500000Y-93500000D03*
D22*
X191830000Y-139206000D03*
X176475000Y-55200000D03*
X211830000Y-139206000D03*
D23*
X150000000Y-97000000D03*
D22*
X217275000Y-83300000D03*
X178100000Y-57600000D03*
X215798000Y-125095000D03*
X194900000Y-57600000D03*
X133510000Y-133380000D03*
X194056000Y-45415200D03*
X195656000Y-80949800D03*
X198882000Y-43510200D03*
X199678000Y-92500000D03*
X195656000Y-43510200D03*
X206103000Y-95009800D03*
X213430000Y-137706000D03*
X217430000Y-139206000D03*
X210871000Y-45364400D03*
X175030000Y-139206000D03*
X176478000Y-92500000D03*
X216478000Y-92500000D03*
X186430000Y-137706000D03*
X186100000Y-83300000D03*
X191802000Y-127500000D03*
X171805000Y-139206000D03*
X199009000Y-125146000D03*
X179675000Y-55200000D03*
D24*
X138040000Y-62870000D03*
D23*
X135775000Y-78125000D03*
D22*
X175793000Y-125146000D03*
X193300000Y-56100000D03*
X180630000Y-139206000D03*
X180503000Y-95009800D03*
D24*
X139380000Y-67660000D03*
D22*
X215671000Y-80899000D03*
X196630000Y-137706000D03*
X178892000Y-43510200D03*
X206878000Y-92500000D03*
X173430000Y-137306000D03*
X191694000Y-45415200D03*
X186075000Y-45415200D03*
X198230000Y-139206000D03*
X191700000Y-57600000D03*
X170075000Y-55200000D03*
X194903000Y-95009800D03*
X207670000Y-45364400D03*
X190068000Y-80949800D03*
X173278000Y-92500000D03*
X191675000Y-83300000D03*
X189275000Y-55200000D03*
X206100000Y-57600000D03*
X186227000Y-127500000D03*
D24*
X135610000Y-130080000D03*
D22*
X208503000Y-95009800D03*
X199830000Y-137706000D03*
X207802000Y-127500000D03*
X207675000Y-83300000D03*
X186078000Y-92500000D03*
D24*
X143600000Y-114900000D03*
X133450000Y-109470000D03*
D22*
X196478000Y-92500000D03*
X196475000Y-55200000D03*
X215030000Y-139206000D03*
X190103000Y-95009800D03*
X174202000Y-127500000D03*
D23*
X152500000Y-94000000D03*
D22*
X148488000Y-107569000D03*
X140630000Y-110200000D03*
X209271000Y-80899000D03*
X213278000Y-92500000D03*
X195783000Y-125146000D03*
X212471000Y-43459400D03*
X200482000Y-45389800D03*
D24*
%TO.N,EXT_VCC*%
X175870000Y-42000000D03*
X184600000Y-117500000D03*
X194208000Y-42000000D03*
X176987000Y-42000000D03*
X184500000Y-72500000D03*
X193167000Y-42000000D03*
X195148000Y-42000000D03*
X174904000Y-42000000D03*
X173939000Y-42037000D03*
X196113000Y-42000000D03*
D22*
%TO.N,+3.3V*%
X147815000Y-111341000D03*
X151800000Y-106000000D03*
X141500000Y-120600000D03*
D24*
X133450000Y-100550000D03*
D22*
X146300000Y-102900000D03*
X143160398Y-100100000D03*
%TO.N,I2C_EXT_SDA*%
X196500000Y-119500000D03*
X196469000Y-75000000D03*
X139700000Y-131800000D03*
X157450000Y-115798000D03*
X147500000Y-100800000D03*
X196469000Y-49479200D03*
%TO.N,I2C_EXT_SCL*%
X194266000Y-119088000D03*
X195707000Y-59766200D03*
X158741000Y-116486000D03*
X195710000Y-97176000D03*
X149749000Y-100010000D03*
X195783000Y-133198000D03*
X138625000Y-132775000D03*
%TO.N,FB_IN*%
X170869000Y-97150600D03*
X171018000Y-133176000D03*
X170866000Y-59740800D03*
%TO.N,VSENSE_IN*%
X172589000Y-132058000D03*
X172500000Y-63500000D03*
X172500000Y-103000000D03*
%TO.N,ISENSE_1*%
X174095000Y-97150600D03*
X174092000Y-59740800D03*
X174219000Y-133172000D03*
%TO.N,ISENSE_3*%
X175793000Y-132080000D03*
X175666000Y-63500000D03*
X175292000Y-89040200D03*
X175670000Y-103000000D03*
%TO.N,HRTIM_EEV9*%
X177419000Y-133172000D03*
X177267000Y-59740800D03*
X177270000Y-97150600D03*
%TO.N,DAC_OUT*%
X179000000Y-63500000D03*
X178994000Y-132080000D03*
X179000000Y-103000000D03*
D23*
%TO.N,VBUS_DOCK*%
X160500000Y-128500000D03*
D24*
X185000000Y-138000000D03*
D23*
X160500000Y-134500000D03*
D24*
X182000000Y-56500000D03*
D23*
X160500000Y-125500000D03*
D24*
X185003000Y-93909800D03*
X185003000Y-95409800D03*
X183500000Y-139500000D03*
D23*
X154000000Y-136000000D03*
D24*
X182000000Y-58000000D03*
X159000000Y-101600000D03*
X185000000Y-58000000D03*
X182003000Y-93909800D03*
X185000000Y-56500000D03*
X182003000Y-95409800D03*
D23*
X150500000Y-136000000D03*
D24*
X183503000Y-95409800D03*
X183500000Y-58000000D03*
X185000000Y-139500000D03*
X183500000Y-138000000D03*
X182000000Y-139500000D03*
D23*
X160500000Y-131500000D03*
D24*
X183503000Y-93909800D03*
X183500000Y-56500000D03*
X182000000Y-138000000D03*
D23*
X157500000Y-136000000D03*
D24*
%TO.N,VOUT*%
X188627000Y-131096000D03*
X186900000Y-51900000D03*
X188600000Y-133100000D03*
X187700000Y-55600000D03*
X186900000Y-49300000D03*
X187700000Y-45500000D03*
X188500000Y-89100000D03*
X187703000Y-93009800D03*
X186900000Y-89100000D03*
X187700000Y-82700000D03*
X188500000Y-51900000D03*
X187000000Y-133100000D03*
X187800000Y-137500000D03*
X188500000Y-49300000D03*
X188500000Y-86900000D03*
X186900000Y-86900000D03*
X187827000Y-126896000D03*
X187027000Y-131096000D03*
D22*
%TO.N,DOCK_LCD_SS*%
X192583000Y-133172000D03*
X192485000Y-97176000D03*
X192481000Y-59766200D03*
%TO.N,DOCK_LCD_MOSI*%
X193320000Y-88774100D03*
X194081000Y-63500000D03*
X194000000Y-103000000D03*
X194200000Y-132063000D03*
%TO.N,DOCK_CTRL_RX*%
X197409000Y-132080000D03*
X197260000Y-101000000D03*
X143700000Y-134500000D03*
X197256000Y-63500000D03*
%TO.N,DOCK_CTRL_TX*%
X198885000Y-97201400D03*
X145100000Y-133500000D03*
X199009000Y-133223000D03*
X198882000Y-59791600D03*
%TO.N,DOCK_LCD_RST*%
X200609000Y-132080000D03*
X200460000Y-105000000D03*
X200457000Y-66500000D03*
%TO.N,FAN_PWM*%
X201298000Y-98500000D03*
X201295000Y-63500000D03*
X201397000Y-133248000D03*
%TO.N,DOCK_ENCODER_CHA*%
X202209000Y-132080000D03*
X202075000Y-60000000D03*
X202060000Y-102000000D03*
%TO.N,DOCK_GPIO3*%
X202870000Y-66500000D03*
X202997000Y-133248000D03*
X202878000Y-95000000D03*
%TO.N,DOCK_GPIO2*%
X197139000Y-68100000D03*
X203661000Y-105000000D03*
X197379000Y-88566900D03*
X203784000Y-132080000D03*
%TO.N,DOCK_GPIO1*%
X204500000Y-60000000D03*
X204499000Y-98500000D03*
X204526000Y-88772500D03*
X204597000Y-133248000D03*
%TO.N,DOCK_GPIO0*%
X205384000Y-132080000D03*
X205312000Y-102000000D03*
X155591000Y-102430000D03*
X159734000Y-87900000D03*
X205308000Y-66500000D03*
X206932000Y-86754600D03*
%TO.N,AUX_PWM_CH1*%
X207696000Y-59791600D03*
X207699000Y-97201400D03*
X207797000Y-133248000D03*
%TO.N,OUT_SYNC_1-*%
X208897000Y-88772500D03*
X209271000Y-63500000D03*
X209398000Y-132080000D03*
X209274000Y-101000000D03*
%TO.N,OUT_SYNC_2+*%
X210870000Y-88772500D03*
X210896000Y-59791600D03*
X210900000Y-97201400D03*
X210998000Y-133248000D03*
%TO.N,OUT_SYNC_2-*%
X212598000Y-132080000D03*
X212471000Y-63500000D03*
X212474000Y-101000000D03*
%TO.N,OUT_SYNC_3+*%
X214071000Y-59791600D03*
X214075000Y-97201400D03*
X214173000Y-133248000D03*
%TO.N,OUT_SYNC_3-*%
X215697000Y-63500000D03*
X215798000Y-132080000D03*
X215700000Y-101000000D03*
%TO.N,AUX_ADC*%
X170053000Y-49530000D03*
X170205000Y-122975000D03*
X170078000Y-78779000D03*
%TO.N,OCD_IN*%
X171704000Y-50647600D03*
X171815000Y-119500000D03*
X171688000Y-75000000D03*
%TO.N,OCD2_IN*%
X173279000Y-49504600D03*
X173406000Y-122987000D03*
X173279000Y-78790800D03*
%TO.N,ISENSE_2*%
X174879000Y-50647600D03*
X175000000Y-119500000D03*
X174854000Y-75000000D03*
%TO.N,ISENSE_4*%
X176454000Y-78790800D03*
X176479000Y-49504600D03*
X176581000Y-122987000D03*
%TO.N,HRTIM_FLT3*%
X178181000Y-119500000D03*
X178079000Y-50647600D03*
X178054000Y-75000000D03*
%TO.N,MCO*%
X191008000Y-122961000D03*
X190881000Y-78765400D03*
X190881000Y-49530000D03*
%TO.N,DOCK_LCD_MISO*%
X193243000Y-75000000D03*
X193269000Y-49479200D03*
X193370000Y-119500000D03*
%TO.N,DOCK_LCD_SCK*%
X194869000Y-50673000D03*
X194996000Y-122911000D03*
X194869000Y-78714600D03*
%TO.N,AUX_RX*%
X198171000Y-122911000D03*
X198069000Y-50698400D03*
X198044000Y-78714600D03*
%TO.N,AUX_TX*%
X199669000Y-75000000D03*
X199796000Y-119500000D03*
X199669000Y-49479200D03*
%TO.N,DOCK_LCD_BL*%
X201371000Y-122911000D03*
X200062000Y-73185600D03*
X190731000Y-113266000D03*
X201270000Y-50698400D03*
X199315000Y-114662000D03*
X191092000Y-86754600D03*
X201244000Y-78714600D03*
%TO.N,DOCK_LCD_DC*%
X202209000Y-119500000D03*
X202082000Y-49479200D03*
X202000000Y-75000000D03*
%TO.N,DOCK_ENCODER_CHB*%
X203000000Y-115000000D03*
X202870000Y-72000000D03*
X202870000Y-50723800D03*
%TO.N,DOCK_GPIO4*%
X203675000Y-81000000D03*
X203683000Y-49479200D03*
X203802000Y-125000000D03*
%TO.N,DOCK_GPIO5*%
X204475000Y-78694200D03*
X204470000Y-50723800D03*
X204597000Y-119500000D03*
%TO.N,DOCK_GPIO6*%
X205283000Y-75000000D03*
X204990000Y-86753000D03*
X205283000Y-49479200D03*
X205410000Y-115000000D03*
%TO.N,DOCK_GPIO7*%
X206070000Y-72000000D03*
X206308000Y-89133500D03*
X206197000Y-122885000D03*
X206070000Y-50723800D03*
%TO.N,AUX_PWM_CH2*%
X208483000Y-75000000D03*
X208500000Y-119500000D03*
X208483000Y-49504600D03*
%TO.N,OUT_SYNC_1+*%
X210083000Y-50723800D03*
X210210000Y-122885000D03*
X210083000Y-78689200D03*
%TO.N,OUT4*%
X211785000Y-119500000D03*
X211658000Y-75000000D03*
X211684000Y-49530000D03*
%TO.N,OUT3*%
X213666000Y-88772500D03*
X213284000Y-50723800D03*
X213258000Y-78689200D03*
X213385000Y-122885000D03*
%TO.N,OUT2*%
X215000000Y-119500000D03*
X214875000Y-75000000D03*
X214859000Y-49530000D03*
X214527000Y-86754600D03*
%TO.N,OUT1*%
X216611000Y-122885000D03*
X216484000Y-78689200D03*
X216484000Y-50698400D03*
D24*
%TO.N,Net-(D6-A)*%
X155800000Y-110400000D03*
X155800000Y-116600000D03*
D22*
%TO.N,Net-(U1-A0)*%
X142300000Y-104290000D03*
X133450000Y-104800000D03*
%TO.N,Net-(U1-A1)*%
X141300000Y-104790000D03*
X136450000Y-104800000D03*
%TD*%
%TO.N,EXT_VCC*%
D25*
X195148000Y-42000000D02*
X196113000Y-42000000D01*
X173976000Y-42000000D02*
X174904000Y-42000000D01*
X175870000Y-42000000D02*
X176987000Y-42000000D01*
X173939000Y-42037000D02*
X173976000Y-42000000D01*
X176987000Y-42000000D02*
X193167000Y-42000000D01*
X193167000Y-42000000D02*
X194208000Y-42000000D01*
X174904000Y-42000000D02*
X175870000Y-42000000D01*
X194208000Y-42000000D02*
X195148000Y-42000000D01*
%TO.N,ISENSE_1*%
D26*
X174869000Y-82224400D02*
X174092000Y-81447400D01*
X174095000Y-97150600D02*
X174095000Y-89209200D01*
X174092000Y-81447400D02*
X174092000Y-59740800D01*
X174095000Y-89209200D02*
X174869000Y-88435200D01*
X174869000Y-88435200D02*
X174869000Y-82224400D01*
%TO.N,ISENSE_3*%
X175471000Y-81975100D02*
X175471000Y-88861100D01*
X175666000Y-63500000D02*
X175666000Y-78738200D01*
X175666000Y-78738200D02*
X174870000Y-79533700D01*
X174870000Y-79533700D02*
X174870000Y-81374900D01*
X175471000Y-88861100D02*
X175292000Y-89040200D01*
X174870000Y-81374900D02*
X175471000Y-81975100D01*
%TO.N,DOCK_LCD_MOSI*%
X194081000Y-63500000D02*
X194081000Y-81251100D01*
X193320000Y-82011700D02*
X193320000Y-88774100D01*
X194081000Y-81251100D02*
X193320000Y-82011700D01*
%TO.N,DOCK_CTRL_RX*%
X164399600Y-132774800D02*
X145412900Y-132774800D01*
X197409000Y-132080000D02*
X195492900Y-130163900D01*
X143700000Y-133761000D02*
X143700000Y-134500000D01*
X197260000Y-89475900D02*
X197260000Y-101000000D01*
X197256000Y-72855900D02*
X197256000Y-80375400D01*
X195492900Y-130163900D02*
X167010500Y-130163900D01*
X197256000Y-80375400D02*
X196531000Y-81100300D01*
X145322100Y-132684000D02*
X144777000Y-132684000D01*
X196410000Y-72010400D02*
X197256000Y-72855900D01*
X196531000Y-88746900D02*
X197260000Y-89475900D01*
X196531000Y-81100300D02*
X196531000Y-88746900D01*
X167010500Y-130163900D02*
X164399600Y-132774800D01*
X197256000Y-63500000D02*
X196410000Y-64345600D01*
X196410000Y-64345600D02*
X196410000Y-72010400D01*
X144777000Y-132684000D02*
X143700000Y-133761000D01*
X145412900Y-132774800D02*
X145322100Y-132684000D01*
%TO.N,DOCK_CTRL_TX*%
X145100000Y-133500000D02*
X156833500Y-133500000D01*
X159384400Y-136050900D02*
X196181100Y-136050900D01*
X156833500Y-133500000D02*
X159384400Y-136050900D01*
X196181100Y-136050900D02*
X199009000Y-133223000D01*
%TO.N,FAN_PWM*%
X202128000Y-123241000D02*
X202128000Y-120698000D01*
X201397000Y-133248000D02*
X201397000Y-123972000D01*
X201397000Y-123972000D02*
X202128000Y-123241000D01*
X201298000Y-119868000D02*
X201298000Y-98500000D01*
X202128000Y-120698000D02*
X201298000Y-119868000D01*
%TO.N,DOCK_ENCODER_CHA*%
X202060000Y-102000000D02*
X202060000Y-96928800D01*
X199701000Y-76206500D02*
X198896000Y-75401700D01*
X198896000Y-75401700D02*
X198896000Y-63179200D01*
X201122000Y-95991000D02*
X201122000Y-87593800D01*
X202060000Y-96928800D02*
X201122000Y-95991000D01*
X201122000Y-87593800D02*
X199701000Y-86172200D01*
X199701000Y-86172200D02*
X199701000Y-76206500D01*
X198896000Y-63179200D02*
X202075000Y-60000000D01*
%TO.N,DOCK_GPIO3*%
X202878000Y-95000000D02*
X201786000Y-93907500D01*
X201786000Y-83152000D02*
X200456000Y-81822500D01*
X200789000Y-68580800D02*
X202870000Y-66500000D01*
X200456000Y-81822500D02*
X200456000Y-73819800D01*
X200456000Y-73819800D02*
X200789000Y-73486600D01*
X200789000Y-73486600D02*
X200789000Y-68580800D01*
X201786000Y-93907500D02*
X201786000Y-83152000D01*
%TO.N,DOCK_GPIO2*%
X202988000Y-131284000D02*
X203784000Y-132080000D01*
X203766000Y-105105000D02*
X203766000Y-115375000D01*
X203661000Y-105000000D02*
X203766000Y-105105000D01*
X202988000Y-116153000D02*
X202988000Y-131284000D01*
X203766000Y-115375000D02*
X202988000Y-116153000D01*
%TO.N,DOCK_GPIO1*%
X204438000Y-83351900D02*
X204259000Y-83530000D01*
X203748000Y-79648800D02*
X204438000Y-80338000D01*
X203748000Y-72147200D02*
X203748000Y-79648800D01*
X204259000Y-88505500D02*
X204526000Y-88772500D01*
X204500000Y-60000000D02*
X204500000Y-71395500D01*
X204438000Y-80338000D02*
X204438000Y-83351900D01*
X204259000Y-83530000D02*
X204259000Y-88505500D01*
X204500000Y-71395500D02*
X203748000Y-72147200D01*
%TO.N,DOCK_GPIO0*%
X206932000Y-83015300D02*
X206932000Y-86754600D01*
X207610000Y-82337700D02*
X206932000Y-83015300D01*
X207610000Y-68801700D02*
X207610000Y-82337700D01*
X205308000Y-66500000D02*
X207610000Y-68801700D01*
%TO.N,OUT_SYNC_1-*%
X210023000Y-79918900D02*
X210023000Y-87646800D01*
X209271000Y-79167000D02*
X210023000Y-79918900D01*
X210023000Y-87646800D02*
X208897000Y-88772500D01*
X209271000Y-63500000D02*
X209271000Y-79167000D01*
%TO.N,OUT_SYNC_2+*%
X210896000Y-82293300D02*
X211663000Y-83060300D01*
X211663000Y-83060300D02*
X211663000Y-87980000D01*
X210896000Y-59791600D02*
X210896000Y-82293300D01*
X211663000Y-87980000D02*
X210870000Y-88772500D01*
%TO.N,OCD2_IN*%
X173279000Y-82027100D02*
X173279000Y-78790800D01*
X173406000Y-122987000D02*
X173406000Y-97502500D01*
X173406000Y-97502500D02*
X172515000Y-96611300D01*
X172515000Y-96611300D02*
X172515000Y-82791300D01*
X172515000Y-82791300D02*
X173279000Y-82027100D01*
%TO.N,DOCK_LCD_SCK*%
X196448000Y-94954700D02*
X194869000Y-93375400D01*
X194869000Y-93375400D02*
X194869000Y-78714600D01*
X194996000Y-119946000D02*
X196448000Y-118493000D01*
X194996000Y-122911000D02*
X194996000Y-119946000D01*
X196448000Y-118493000D02*
X196448000Y-94954700D01*
%TO.N,AUX_RX*%
X198171000Y-101114000D02*
X200460000Y-98825400D01*
X200460000Y-98825400D02*
X200460000Y-91345300D01*
X198105000Y-88990500D02*
X198105000Y-78775900D01*
X198171000Y-122911000D02*
X198171000Y-101114000D01*
X198105000Y-78775900D02*
X198044000Y-78714600D01*
X200460000Y-91345300D02*
X198105000Y-88990500D01*
%TO.N,DOCK_LCD_BL*%
X199315000Y-114662000D02*
X200602000Y-115948000D01*
X200602000Y-115948000D02*
X200602000Y-122142000D01*
X200602000Y-122142000D02*
X201371000Y-122911000D01*
%TO.N,DOCK_ENCODER_CHB*%
X202927000Y-72000000D02*
X202927000Y-92731400D01*
X202881000Y-96307100D02*
X202881000Y-114881000D01*
X203657000Y-64527600D02*
X203657000Y-71270200D01*
X203657000Y-71270200D02*
X202927000Y-72000000D01*
X202870000Y-63740600D02*
X203657000Y-64527600D01*
X202881000Y-114881000D02*
X203000000Y-115000000D01*
X202927000Y-92731400D02*
X203613000Y-93417200D01*
X202870000Y-50723800D02*
X202870000Y-63740600D01*
X203613000Y-95575200D02*
X202881000Y-96307100D01*
X202927000Y-72000000D02*
X202870000Y-72000000D01*
X203613000Y-93417200D02*
X203613000Y-95575200D01*
%TO.N,DOCK_GPIO4*%
X204388000Y-101889000D02*
X204388000Y-115039000D01*
X203763000Y-96276100D02*
X203763000Y-101264000D01*
X204388000Y-115039000D02*
X205344000Y-115995000D01*
X204277000Y-92930100D02*
X204277000Y-95762500D01*
X205344000Y-123458000D02*
X203802000Y-125000000D01*
X203613000Y-81062300D02*
X203613000Y-92266200D01*
X203613000Y-92266200D02*
X204277000Y-92930100D01*
X204277000Y-95762500D02*
X203763000Y-96276100D01*
X205344000Y-115995000D02*
X205344000Y-123458000D01*
X203675000Y-81000000D02*
X203613000Y-81062300D01*
X203763000Y-101264000D02*
X204388000Y-101889000D01*
%TO.N,DOCK_GPIO6*%
X206100000Y-114310000D02*
X206100000Y-99076000D01*
X205289000Y-98264500D02*
X205289000Y-87051900D01*
X205289000Y-87051900D02*
X204990000Y-86753000D01*
X206100000Y-99076000D02*
X205289000Y-98264500D01*
X205410000Y-115000000D02*
X206100000Y-114310000D01*
%TO.N,DOCK_GPIO7*%
X205978000Y-79169700D02*
X205978000Y-88803200D01*
X204545000Y-73524600D02*
X204545000Y-77736900D01*
X205978000Y-88803200D02*
X206308000Y-89133500D01*
X204545000Y-77736900D02*
X205978000Y-79169700D01*
X206070000Y-72000000D02*
X204545000Y-73524600D01*
%TO.N,OUT3*%
X211015000Y-120515000D02*
X211015000Y-98113700D01*
X214026000Y-89131900D02*
X213666000Y-88772500D01*
X212687000Y-96442400D02*
X212687000Y-94166500D01*
X214026000Y-92827300D02*
X214026000Y-89131900D01*
X211015000Y-98113700D02*
X212687000Y-96442400D01*
X213385000Y-122885000D02*
X211015000Y-120515000D01*
X212687000Y-94166500D02*
X214026000Y-92827300D01*
%TO.N,OUT2*%
X213323000Y-117823000D02*
X213323000Y-94456400D01*
X214678000Y-93101300D02*
X214678000Y-86905000D01*
X215000000Y-119500000D02*
X213323000Y-117823000D01*
X214678000Y-86905000D02*
X214527000Y-86754600D01*
X213323000Y-94456400D02*
X214678000Y-93101300D01*
%TO.N,Net-(D6-A)*%
D27*
X155800000Y-116600000D02*
X155800000Y-110400000D01*
%TO.N,Net-(U1-A0)*%
D26*
X134350000Y-103900000D02*
X133450000Y-104800000D01*
X141910000Y-103900000D02*
X134350000Y-103900000D01*
X142300000Y-104290000D02*
X141910000Y-103900000D01*
%TO.N,Net-(U1-A1)*%
X136460000Y-104790000D02*
X136450000Y-104800000D01*
X141300000Y-104790000D02*
X136460000Y-104790000D01*
%TD*%
M02*
