%TF.GenerationSoftware,KiCad,Pcbnew,10.0.1-1.fc44*%
%TF.CreationDate,2026-05-23T22:45:56+02:00*%
%TF.ProjectId,resonance_converter_controller_mb,7265736f-6e61-46e6-9365-5f636f6e7665,rev?*%
%TF.SameCoordinates,Original*%
%TF.FileFunction,Legend,Top*%
%TF.FilePolarity,Positive*%
%FSLAX46Y46*%
G04 Gerber Fmt 4.6, Leading zero omitted, Abs format (unit mm)*
G04 Created by KiCad (PCBNEW 10.0.1-1.fc44) date 2026-05-23 22:45:56*
%MOMM*%
%LPD*%
G01*
G04 APERTURE LIST*
%ADD10C,0.050000*%
%ADD11C,0.500000*%
%ADD12C,0.150000*%
%ADD13C,0.120000*%
%ADD14C,0.152400*%
%ADD15C,0.127000*%
%ADD16C,0.200000*%
G04 APERTURE END LIST*
D10*
X160000000Y-41000000D02*
X160000000Y-141000000D01*
D11*
X135515137Y-127619238D02*
X135515137Y-125619238D01*
X136372280Y-125809714D02*
X136467518Y-125714476D01*
X136467518Y-125714476D02*
X136657994Y-125619238D01*
X136657994Y-125619238D02*
X137134185Y-125619238D01*
X137134185Y-125619238D02*
X137324661Y-125714476D01*
X137324661Y-125714476D02*
X137419899Y-125809714D01*
X137419899Y-125809714D02*
X137515137Y-126000190D01*
X137515137Y-126000190D02*
X137515137Y-126190666D01*
X137515137Y-126190666D02*
X137419899Y-126476380D01*
X137419899Y-126476380D02*
X136277042Y-127619238D01*
X136277042Y-127619238D02*
X137515137Y-127619238D01*
X139515137Y-127428761D02*
X139419899Y-127524000D01*
X139419899Y-127524000D02*
X139134185Y-127619238D01*
X139134185Y-127619238D02*
X138943709Y-127619238D01*
X138943709Y-127619238D02*
X138657994Y-127524000D01*
X138657994Y-127524000D02*
X138467518Y-127333523D01*
X138467518Y-127333523D02*
X138372280Y-127143047D01*
X138372280Y-127143047D02*
X138277042Y-126762095D01*
X138277042Y-126762095D02*
X138277042Y-126476380D01*
X138277042Y-126476380D02*
X138372280Y-126095428D01*
X138372280Y-126095428D02*
X138467518Y-125904952D01*
X138467518Y-125904952D02*
X138657994Y-125714476D01*
X138657994Y-125714476D02*
X138943709Y-125619238D01*
X138943709Y-125619238D02*
X139134185Y-125619238D01*
X139134185Y-125619238D02*
X139419899Y-125714476D01*
X139419899Y-125714476D02*
X139515137Y-125809714D01*
X147407994Y-140008761D02*
X147312756Y-140104000D01*
X147312756Y-140104000D02*
X147027042Y-140199238D01*
X147027042Y-140199238D02*
X146836566Y-140199238D01*
X146836566Y-140199238D02*
X146550851Y-140104000D01*
X146550851Y-140104000D02*
X146360375Y-139913523D01*
X146360375Y-139913523D02*
X146265137Y-139723047D01*
X146265137Y-139723047D02*
X146169899Y-139342095D01*
X146169899Y-139342095D02*
X146169899Y-139056380D01*
X146169899Y-139056380D02*
X146265137Y-138675428D01*
X146265137Y-138675428D02*
X146360375Y-138484952D01*
X146360375Y-138484952D02*
X146550851Y-138294476D01*
X146550851Y-138294476D02*
X146836566Y-138199238D01*
X146836566Y-138199238D02*
X147027042Y-138199238D01*
X147027042Y-138199238D02*
X147312756Y-138294476D01*
X147312756Y-138294476D02*
X147407994Y-138389714D01*
X147979423Y-138199238D02*
X149122280Y-138199238D01*
X148550851Y-140199238D02*
X148550851Y-138199238D01*
X150931804Y-140199238D02*
X150265137Y-139246857D01*
X149788947Y-140199238D02*
X149788947Y-138199238D01*
X149788947Y-138199238D02*
X150550852Y-138199238D01*
X150550852Y-138199238D02*
X150741328Y-138294476D01*
X150741328Y-138294476D02*
X150836566Y-138389714D01*
X150836566Y-138389714D02*
X150931804Y-138580190D01*
X150931804Y-138580190D02*
X150931804Y-138865904D01*
X150931804Y-138865904D02*
X150836566Y-139056380D01*
X150836566Y-139056380D02*
X150741328Y-139151619D01*
X150741328Y-139151619D02*
X150550852Y-139246857D01*
X150550852Y-139246857D02*
X149788947Y-139246857D01*
X152741328Y-140199238D02*
X151788947Y-140199238D01*
X151788947Y-140199238D02*
X151788947Y-138199238D01*
X156074662Y-140199238D02*
X155407995Y-139246857D01*
X154931805Y-140199238D02*
X154931805Y-138199238D01*
X154931805Y-138199238D02*
X155693710Y-138199238D01*
X155693710Y-138199238D02*
X155884186Y-138294476D01*
X155884186Y-138294476D02*
X155979424Y-138389714D01*
X155979424Y-138389714D02*
X156074662Y-138580190D01*
X156074662Y-138580190D02*
X156074662Y-138865904D01*
X156074662Y-138865904D02*
X155979424Y-139056380D01*
X155979424Y-139056380D02*
X155884186Y-139151619D01*
X155884186Y-139151619D02*
X155693710Y-139246857D01*
X155693710Y-139246857D02*
X154931805Y-139246857D01*
X156741329Y-138199238D02*
X158074662Y-140199238D01*
X158074662Y-138199238D02*
X156741329Y-140199238D01*
X158550853Y-138199238D02*
X159693710Y-138199238D01*
X159122281Y-140199238D02*
X159122281Y-138199238D01*
X160169901Y-138199238D02*
X161503234Y-140199238D01*
X161503234Y-138199238D02*
X160169901Y-140199238D01*
X141009714Y-51250100D02*
X140914476Y-51154862D01*
X140914476Y-51154862D02*
X140819238Y-50964386D01*
X140819238Y-50964386D02*
X140819238Y-50488195D01*
X140819238Y-50488195D02*
X140914476Y-50297719D01*
X140914476Y-50297719D02*
X141009714Y-50202481D01*
X141009714Y-50202481D02*
X141200190Y-50107243D01*
X141200190Y-50107243D02*
X141390666Y-50107243D01*
X141390666Y-50107243D02*
X141676380Y-50202481D01*
X141676380Y-50202481D02*
X142819238Y-51345338D01*
X142819238Y-51345338D02*
X142819238Y-50107243D01*
X140819238Y-48869148D02*
X140819238Y-48678671D01*
X140819238Y-48678671D02*
X140914476Y-48488195D01*
X140914476Y-48488195D02*
X141009714Y-48392957D01*
X141009714Y-48392957D02*
X141200190Y-48297719D01*
X141200190Y-48297719D02*
X141581142Y-48202481D01*
X141581142Y-48202481D02*
X142057333Y-48202481D01*
X142057333Y-48202481D02*
X142438285Y-48297719D01*
X142438285Y-48297719D02*
X142628761Y-48392957D01*
X142628761Y-48392957D02*
X142724000Y-48488195D01*
X142724000Y-48488195D02*
X142819238Y-48678671D01*
X142819238Y-48678671D02*
X142819238Y-48869148D01*
X142819238Y-48869148D02*
X142724000Y-49059624D01*
X142724000Y-49059624D02*
X142628761Y-49154862D01*
X142628761Y-49154862D02*
X142438285Y-49250100D01*
X142438285Y-49250100D02*
X142057333Y-49345338D01*
X142057333Y-49345338D02*
X141581142Y-49345338D01*
X141581142Y-49345338D02*
X141200190Y-49250100D01*
X141200190Y-49250100D02*
X141009714Y-49154862D01*
X141009714Y-49154862D02*
X140914476Y-49059624D01*
X140914476Y-49059624D02*
X140819238Y-48869148D01*
X140819238Y-47631052D02*
X142819238Y-46964386D01*
X142819238Y-46964386D02*
X140819238Y-46297719D01*
X142819238Y-44107242D02*
X140819238Y-44107242D01*
X142819238Y-43154861D02*
X140819238Y-43154861D01*
X140819238Y-43154861D02*
X142819238Y-42012004D01*
X142819238Y-42012004D02*
X140819238Y-42012004D01*
D12*
X140968095Y-113984819D02*
X140968095Y-114794342D01*
X140968095Y-114794342D02*
X141015714Y-114889580D01*
X141015714Y-114889580D02*
X141063333Y-114937200D01*
X141063333Y-114937200D02*
X141158571Y-114984819D01*
X141158571Y-114984819D02*
X141349047Y-114984819D01*
X141349047Y-114984819D02*
X141444285Y-114937200D01*
X141444285Y-114937200D02*
X141491904Y-114889580D01*
X141491904Y-114889580D02*
X141539523Y-114794342D01*
X141539523Y-114794342D02*
X141539523Y-113984819D01*
X141968095Y-114080057D02*
X142015714Y-114032438D01*
X142015714Y-114032438D02*
X142110952Y-113984819D01*
X142110952Y-113984819D02*
X142349047Y-113984819D01*
X142349047Y-113984819D02*
X142444285Y-114032438D01*
X142444285Y-114032438D02*
X142491904Y-114080057D01*
X142491904Y-114080057D02*
X142539523Y-114175295D01*
X142539523Y-114175295D02*
X142539523Y-114270533D01*
X142539523Y-114270533D02*
X142491904Y-114413390D01*
X142491904Y-114413390D02*
X141920476Y-114984819D01*
X141920476Y-114984819D02*
X142539523Y-114984819D01*
X145974761Y-116950057D02*
X145879523Y-116902438D01*
X145879523Y-116902438D02*
X145784285Y-116807200D01*
X145784285Y-116807200D02*
X145641428Y-116664342D01*
X145641428Y-116664342D02*
X145546190Y-116616723D01*
X145546190Y-116616723D02*
X145450952Y-116616723D01*
X145498571Y-116854819D02*
X145403333Y-116807200D01*
X145403333Y-116807200D02*
X145308095Y-116711961D01*
X145308095Y-116711961D02*
X145260476Y-116521485D01*
X145260476Y-116521485D02*
X145260476Y-116188152D01*
X145260476Y-116188152D02*
X145308095Y-115997676D01*
X145308095Y-115997676D02*
X145403333Y-115902438D01*
X145403333Y-115902438D02*
X145498571Y-115854819D01*
X145498571Y-115854819D02*
X145689047Y-115854819D01*
X145689047Y-115854819D02*
X145784285Y-115902438D01*
X145784285Y-115902438D02*
X145879523Y-115997676D01*
X145879523Y-115997676D02*
X145927142Y-116188152D01*
X145927142Y-116188152D02*
X145927142Y-116521485D01*
X145927142Y-116521485D02*
X145879523Y-116711961D01*
X145879523Y-116711961D02*
X145784285Y-116807200D01*
X145784285Y-116807200D02*
X145689047Y-116854819D01*
X145689047Y-116854819D02*
X145498571Y-116854819D01*
X146308095Y-115950057D02*
X146355714Y-115902438D01*
X146355714Y-115902438D02*
X146450952Y-115854819D01*
X146450952Y-115854819D02*
X146689047Y-115854819D01*
X146689047Y-115854819D02*
X146784285Y-115902438D01*
X146784285Y-115902438D02*
X146831904Y-115950057D01*
X146831904Y-115950057D02*
X146879523Y-116045295D01*
X146879523Y-116045295D02*
X146879523Y-116140533D01*
X146879523Y-116140533D02*
X146831904Y-116283390D01*
X146831904Y-116283390D02*
X146260476Y-116854819D01*
X146260476Y-116854819D02*
X146879523Y-116854819D01*
X144616666Y-57471009D02*
X144283333Y-57471009D01*
X144283333Y-57994819D02*
X144283333Y-56994819D01*
X144283333Y-56994819D02*
X144759523Y-56994819D01*
X145664285Y-57994819D02*
X145092857Y-57994819D01*
X145378571Y-57994819D02*
X145378571Y-56994819D01*
X145378571Y-56994819D02*
X145283333Y-57137676D01*
X145283333Y-57137676D02*
X145188095Y-57232914D01*
X145188095Y-57232914D02*
X145092857Y-57280533D01*
X152366666Y-57441009D02*
X152033333Y-57441009D01*
X152033333Y-57964819D02*
X152033333Y-56964819D01*
X152033333Y-56964819D02*
X152509523Y-56964819D01*
X152842857Y-57060057D02*
X152890476Y-57012438D01*
X152890476Y-57012438D02*
X152985714Y-56964819D01*
X152985714Y-56964819D02*
X153223809Y-56964819D01*
X153223809Y-56964819D02*
X153319047Y-57012438D01*
X153319047Y-57012438D02*
X153366666Y-57060057D01*
X153366666Y-57060057D02*
X153414285Y-57155295D01*
X153414285Y-57155295D02*
X153414285Y-57250533D01*
X153414285Y-57250533D02*
X153366666Y-57393390D01*
X153366666Y-57393390D02*
X152795238Y-57964819D01*
X152795238Y-57964819D02*
X153414285Y-57964819D01*
X145946666Y-51214819D02*
X145946666Y-51929104D01*
X145946666Y-51929104D02*
X145899047Y-52071961D01*
X145899047Y-52071961D02*
X145803809Y-52167200D01*
X145803809Y-52167200D02*
X145660952Y-52214819D01*
X145660952Y-52214819D02*
X145565714Y-52214819D01*
X146327619Y-51214819D02*
X146946666Y-51214819D01*
X146946666Y-51214819D02*
X146613333Y-51595771D01*
X146613333Y-51595771D02*
X146756190Y-51595771D01*
X146756190Y-51595771D02*
X146851428Y-51643390D01*
X146851428Y-51643390D02*
X146899047Y-51691009D01*
X146899047Y-51691009D02*
X146946666Y-51786247D01*
X146946666Y-51786247D02*
X146946666Y-52024342D01*
X146946666Y-52024342D02*
X146899047Y-52119580D01*
X146899047Y-52119580D02*
X146851428Y-52167200D01*
X146851428Y-52167200D02*
X146756190Y-52214819D01*
X146756190Y-52214819D02*
X146470476Y-52214819D01*
X146470476Y-52214819D02*
X146375238Y-52167200D01*
X146375238Y-52167200D02*
X146327619Y-52119580D01*
X145453571Y-54427200D02*
X146596429Y-54427200D01*
X146025000Y-54998628D02*
X146025000Y-53855771D01*
X156453571Y-54427200D02*
X157596429Y-54427200D01*
X146064761Y-118470057D02*
X145969523Y-118422438D01*
X145969523Y-118422438D02*
X145874285Y-118327200D01*
X145874285Y-118327200D02*
X145731428Y-118184342D01*
X145731428Y-118184342D02*
X145636190Y-118136723D01*
X145636190Y-118136723D02*
X145540952Y-118136723D01*
X145588571Y-118374819D02*
X145493333Y-118327200D01*
X145493333Y-118327200D02*
X145398095Y-118231961D01*
X145398095Y-118231961D02*
X145350476Y-118041485D01*
X145350476Y-118041485D02*
X145350476Y-117708152D01*
X145350476Y-117708152D02*
X145398095Y-117517676D01*
X145398095Y-117517676D02*
X145493333Y-117422438D01*
X145493333Y-117422438D02*
X145588571Y-117374819D01*
X145588571Y-117374819D02*
X145779047Y-117374819D01*
X145779047Y-117374819D02*
X145874285Y-117422438D01*
X145874285Y-117422438D02*
X145969523Y-117517676D01*
X145969523Y-117517676D02*
X146017142Y-117708152D01*
X146017142Y-117708152D02*
X146017142Y-118041485D01*
X146017142Y-118041485D02*
X145969523Y-118231961D01*
X145969523Y-118231961D02*
X145874285Y-118327200D01*
X145874285Y-118327200D02*
X145779047Y-118374819D01*
X145779047Y-118374819D02*
X145588571Y-118374819D01*
X146969523Y-118374819D02*
X146398095Y-118374819D01*
X146683809Y-118374819D02*
X146683809Y-117374819D01*
X146683809Y-117374819D02*
X146588571Y-117517676D01*
X146588571Y-117517676D02*
X146493333Y-117612914D01*
X146493333Y-117612914D02*
X146398095Y-117660533D01*
X135008095Y-82274819D02*
X135008095Y-83084342D01*
X135008095Y-83084342D02*
X135055714Y-83179580D01*
X135055714Y-83179580D02*
X135103333Y-83227200D01*
X135103333Y-83227200D02*
X135198571Y-83274819D01*
X135198571Y-83274819D02*
X135389047Y-83274819D01*
X135389047Y-83274819D02*
X135484285Y-83227200D01*
X135484285Y-83227200D02*
X135531904Y-83179580D01*
X135531904Y-83179580D02*
X135579523Y-83084342D01*
X135579523Y-83084342D02*
X135579523Y-82274819D01*
X135960476Y-82274819D02*
X136579523Y-82274819D01*
X136579523Y-82274819D02*
X136246190Y-82655771D01*
X136246190Y-82655771D02*
X136389047Y-82655771D01*
X136389047Y-82655771D02*
X136484285Y-82703390D01*
X136484285Y-82703390D02*
X136531904Y-82751009D01*
X136531904Y-82751009D02*
X136579523Y-82846247D01*
X136579523Y-82846247D02*
X136579523Y-83084342D01*
X136579523Y-83084342D02*
X136531904Y-83179580D01*
X136531904Y-83179580D02*
X136484285Y-83227200D01*
X136484285Y-83227200D02*
X136389047Y-83274819D01*
X136389047Y-83274819D02*
X136103333Y-83274819D01*
X136103333Y-83274819D02*
X136008095Y-83227200D01*
X136008095Y-83227200D02*
X135960476Y-83179580D01*
X141554819Y-107434166D02*
X141078628Y-107767499D01*
X141554819Y-108005594D02*
X140554819Y-108005594D01*
X140554819Y-108005594D02*
X140554819Y-107624642D01*
X140554819Y-107624642D02*
X140602438Y-107529404D01*
X140602438Y-107529404D02*
X140650057Y-107481785D01*
X140650057Y-107481785D02*
X140745295Y-107434166D01*
X140745295Y-107434166D02*
X140888152Y-107434166D01*
X140888152Y-107434166D02*
X140983390Y-107481785D01*
X140983390Y-107481785D02*
X141031009Y-107529404D01*
X141031009Y-107529404D02*
X141078628Y-107624642D01*
X141078628Y-107624642D02*
X141078628Y-108005594D01*
X141554819Y-106481785D02*
X141554819Y-107053213D01*
X141554819Y-106767499D02*
X140554819Y-106767499D01*
X140554819Y-106767499D02*
X140697676Y-106862737D01*
X140697676Y-106862737D02*
X140792914Y-106957975D01*
X140792914Y-106957975D02*
X140840533Y-107053213D01*
X144440074Y-97789065D02*
X144440074Y-98426486D01*
X144440074Y-98426486D02*
X144477570Y-98501476D01*
X144477570Y-98501476D02*
X144515065Y-98538972D01*
X144515065Y-98538972D02*
X144590056Y-98576467D01*
X144590056Y-98576467D02*
X144740037Y-98576467D01*
X144740037Y-98576467D02*
X144815028Y-98538972D01*
X144815028Y-98538972D02*
X144852523Y-98501476D01*
X144852523Y-98501476D02*
X144890018Y-98426486D01*
X144890018Y-98426486D02*
X144890018Y-97789065D01*
X145602429Y-98051532D02*
X145602429Y-98576467D01*
X145414953Y-97751570D02*
X145227476Y-98314000D01*
X145227476Y-98314000D02*
X145714915Y-98314000D01*
X143820000Y-98374819D02*
X143820000Y-98612914D01*
X143581905Y-98517676D02*
X143820000Y-98612914D01*
X143820000Y-98612914D02*
X144058095Y-98517676D01*
X143677143Y-98803390D02*
X143820000Y-98612914D01*
X143820000Y-98612914D02*
X143962857Y-98803390D01*
X137784819Y-128993333D02*
X138499104Y-128993333D01*
X138499104Y-128993333D02*
X138641961Y-129040952D01*
X138641961Y-129040952D02*
X138737200Y-129136190D01*
X138737200Y-129136190D02*
X138784819Y-129279047D01*
X138784819Y-129279047D02*
X138784819Y-129374285D01*
X137784819Y-128040952D02*
X137784819Y-128517142D01*
X137784819Y-128517142D02*
X138261009Y-128564761D01*
X138261009Y-128564761D02*
X138213390Y-128517142D01*
X138213390Y-128517142D02*
X138165771Y-128421904D01*
X138165771Y-128421904D02*
X138165771Y-128183809D01*
X138165771Y-128183809D02*
X138213390Y-128088571D01*
X138213390Y-128088571D02*
X138261009Y-128040952D01*
X138261009Y-128040952D02*
X138356247Y-127993333D01*
X138356247Y-127993333D02*
X138594342Y-127993333D01*
X138594342Y-127993333D02*
X138689580Y-128040952D01*
X138689580Y-128040952D02*
X138737200Y-128088571D01*
X138737200Y-128088571D02*
X138784819Y-128183809D01*
X138784819Y-128183809D02*
X138784819Y-128421904D01*
X138784819Y-128421904D02*
X138737200Y-128517142D01*
X138737200Y-128517142D02*
X138689580Y-128564761D01*
X149259580Y-112506666D02*
X149307200Y-112554285D01*
X149307200Y-112554285D02*
X149354819Y-112697142D01*
X149354819Y-112697142D02*
X149354819Y-112792380D01*
X149354819Y-112792380D02*
X149307200Y-112935237D01*
X149307200Y-112935237D02*
X149211961Y-113030475D01*
X149211961Y-113030475D02*
X149116723Y-113078094D01*
X149116723Y-113078094D02*
X148926247Y-113125713D01*
X148926247Y-113125713D02*
X148783390Y-113125713D01*
X148783390Y-113125713D02*
X148592914Y-113078094D01*
X148592914Y-113078094D02*
X148497676Y-113030475D01*
X148497676Y-113030475D02*
X148402438Y-112935237D01*
X148402438Y-112935237D02*
X148354819Y-112792380D01*
X148354819Y-112792380D02*
X148354819Y-112697142D01*
X148354819Y-112697142D02*
X148402438Y-112554285D01*
X148402438Y-112554285D02*
X148450057Y-112506666D01*
X148688152Y-111649523D02*
X149354819Y-111649523D01*
X148307200Y-111887618D02*
X149021485Y-112125713D01*
X149021485Y-112125713D02*
X149021485Y-111506666D01*
X166516666Y-82019819D02*
X166516666Y-82734104D01*
X166516666Y-82734104D02*
X166469047Y-82876961D01*
X166469047Y-82876961D02*
X166373809Y-82972200D01*
X166373809Y-82972200D02*
X166230952Y-83019819D01*
X166230952Y-83019819D02*
X166135714Y-83019819D01*
X166945238Y-82115057D02*
X166992857Y-82067438D01*
X166992857Y-82067438D02*
X167088095Y-82019819D01*
X167088095Y-82019819D02*
X167326190Y-82019819D01*
X167326190Y-82019819D02*
X167421428Y-82067438D01*
X167421428Y-82067438D02*
X167469047Y-82115057D01*
X167469047Y-82115057D02*
X167516666Y-82210295D01*
X167516666Y-82210295D02*
X167516666Y-82305533D01*
X167516666Y-82305533D02*
X167469047Y-82448390D01*
X167469047Y-82448390D02*
X166897619Y-83019819D01*
X166897619Y-83019819D02*
X167516666Y-83019819D01*
X143383334Y-106989579D02*
X143335715Y-107037199D01*
X143335715Y-107037199D02*
X143192858Y-107084818D01*
X143192858Y-107084818D02*
X143097620Y-107084818D01*
X143097620Y-107084818D02*
X142954763Y-107037199D01*
X142954763Y-107037199D02*
X142859525Y-106941960D01*
X142859525Y-106941960D02*
X142811906Y-106846722D01*
X142811906Y-106846722D02*
X142764287Y-106656246D01*
X142764287Y-106656246D02*
X142764287Y-106513389D01*
X142764287Y-106513389D02*
X142811906Y-106322913D01*
X142811906Y-106322913D02*
X142859525Y-106227675D01*
X142859525Y-106227675D02*
X142954763Y-106132437D01*
X142954763Y-106132437D02*
X143097620Y-106084818D01*
X143097620Y-106084818D02*
X143192858Y-106084818D01*
X143192858Y-106084818D02*
X143335715Y-106132437D01*
X143335715Y-106132437D02*
X143383334Y-106180056D01*
X144288096Y-106084818D02*
X143811906Y-106084818D01*
X143811906Y-106084818D02*
X143764287Y-106561008D01*
X143764287Y-106561008D02*
X143811906Y-106513389D01*
X143811906Y-106513389D02*
X143907144Y-106465770D01*
X143907144Y-106465770D02*
X144145239Y-106465770D01*
X144145239Y-106465770D02*
X144240477Y-106513389D01*
X144240477Y-106513389D02*
X144288096Y-106561008D01*
X144288096Y-106561008D02*
X144335715Y-106656246D01*
X144335715Y-106656246D02*
X144335715Y-106894341D01*
X144335715Y-106894341D02*
X144288096Y-106989579D01*
X144288096Y-106989579D02*
X144240477Y-107037199D01*
X144240477Y-107037199D02*
X144145239Y-107084818D01*
X144145239Y-107084818D02*
X143907144Y-107084818D01*
X143907144Y-107084818D02*
X143811906Y-107037199D01*
X143811906Y-107037199D02*
X143764287Y-106989579D01*
X166516666Y-44619819D02*
X166516666Y-45334104D01*
X166516666Y-45334104D02*
X166469047Y-45476961D01*
X166469047Y-45476961D02*
X166373809Y-45572200D01*
X166373809Y-45572200D02*
X166230952Y-45619819D01*
X166230952Y-45619819D02*
X166135714Y-45619819D01*
X167516666Y-45619819D02*
X166945238Y-45619819D01*
X167230952Y-45619819D02*
X167230952Y-44619819D01*
X167230952Y-44619819D02*
X167135714Y-44762676D01*
X167135714Y-44762676D02*
X167040476Y-44857914D01*
X167040476Y-44857914D02*
X166945238Y-44905533D01*
X143161905Y-134154819D02*
X143161905Y-133154819D01*
X143161905Y-133154819D02*
X143400000Y-133154819D01*
X143400000Y-133154819D02*
X143542857Y-133202438D01*
X143542857Y-133202438D02*
X143638095Y-133297676D01*
X143638095Y-133297676D02*
X143685714Y-133392914D01*
X143685714Y-133392914D02*
X143733333Y-133583390D01*
X143733333Y-133583390D02*
X143733333Y-133726247D01*
X143733333Y-133726247D02*
X143685714Y-133916723D01*
X143685714Y-133916723D02*
X143638095Y-134011961D01*
X143638095Y-134011961D02*
X143542857Y-134107200D01*
X143542857Y-134107200D02*
X143400000Y-134154819D01*
X143400000Y-134154819D02*
X143161905Y-134154819D01*
X144304762Y-133583390D02*
X144209524Y-133535771D01*
X144209524Y-133535771D02*
X144161905Y-133488152D01*
X144161905Y-133488152D02*
X144114286Y-133392914D01*
X144114286Y-133392914D02*
X144114286Y-133345295D01*
X144114286Y-133345295D02*
X144161905Y-133250057D01*
X144161905Y-133250057D02*
X144209524Y-133202438D01*
X144209524Y-133202438D02*
X144304762Y-133154819D01*
X144304762Y-133154819D02*
X144495238Y-133154819D01*
X144495238Y-133154819D02*
X144590476Y-133202438D01*
X144590476Y-133202438D02*
X144638095Y-133250057D01*
X144638095Y-133250057D02*
X144685714Y-133345295D01*
X144685714Y-133345295D02*
X144685714Y-133392914D01*
X144685714Y-133392914D02*
X144638095Y-133488152D01*
X144638095Y-133488152D02*
X144590476Y-133535771D01*
X144590476Y-133535771D02*
X144495238Y-133583390D01*
X144495238Y-133583390D02*
X144304762Y-133583390D01*
X144304762Y-133583390D02*
X144209524Y-133631009D01*
X144209524Y-133631009D02*
X144161905Y-133678628D01*
X144161905Y-133678628D02*
X144114286Y-133773866D01*
X144114286Y-133773866D02*
X144114286Y-133964342D01*
X144114286Y-133964342D02*
X144161905Y-134059580D01*
X144161905Y-134059580D02*
X144209524Y-134107200D01*
X144209524Y-134107200D02*
X144304762Y-134154819D01*
X144304762Y-134154819D02*
X144495238Y-134154819D01*
X144495238Y-134154819D02*
X144590476Y-134107200D01*
X144590476Y-134107200D02*
X144638095Y-134059580D01*
X144638095Y-134059580D02*
X144685714Y-133964342D01*
X144685714Y-133964342D02*
X144685714Y-133773866D01*
X144685714Y-133773866D02*
X144638095Y-133678628D01*
X144638095Y-133678628D02*
X144590476Y-133631009D01*
X144590476Y-133631009D02*
X144495238Y-133583390D01*
X157594761Y-122050057D02*
X157499523Y-122002438D01*
X157499523Y-122002438D02*
X157404285Y-121907200D01*
X157404285Y-121907200D02*
X157261428Y-121764342D01*
X157261428Y-121764342D02*
X157166190Y-121716723D01*
X157166190Y-121716723D02*
X157070952Y-121716723D01*
X157118571Y-121954819D02*
X157023333Y-121907200D01*
X157023333Y-121907200D02*
X156928095Y-121811961D01*
X156928095Y-121811961D02*
X156880476Y-121621485D01*
X156880476Y-121621485D02*
X156880476Y-121288152D01*
X156880476Y-121288152D02*
X156928095Y-121097676D01*
X156928095Y-121097676D02*
X157023333Y-121002438D01*
X157023333Y-121002438D02*
X157118571Y-120954819D01*
X157118571Y-120954819D02*
X157309047Y-120954819D01*
X157309047Y-120954819D02*
X157404285Y-121002438D01*
X157404285Y-121002438D02*
X157499523Y-121097676D01*
X157499523Y-121097676D02*
X157547142Y-121288152D01*
X157547142Y-121288152D02*
X157547142Y-121621485D01*
X157547142Y-121621485D02*
X157499523Y-121811961D01*
X157499523Y-121811961D02*
X157404285Y-121907200D01*
X157404285Y-121907200D02*
X157309047Y-121954819D01*
X157309047Y-121954819D02*
X157118571Y-121954819D01*
X157880476Y-120954819D02*
X158499523Y-120954819D01*
X158499523Y-120954819D02*
X158166190Y-121335771D01*
X158166190Y-121335771D02*
X158309047Y-121335771D01*
X158309047Y-121335771D02*
X158404285Y-121383390D01*
X158404285Y-121383390D02*
X158451904Y-121431009D01*
X158451904Y-121431009D02*
X158499523Y-121526247D01*
X158499523Y-121526247D02*
X158499523Y-121764342D01*
X158499523Y-121764342D02*
X158451904Y-121859580D01*
X158451904Y-121859580D02*
X158404285Y-121907200D01*
X158404285Y-121907200D02*
X158309047Y-121954819D01*
X158309047Y-121954819D02*
X158023333Y-121954819D01*
X158023333Y-121954819D02*
X157928095Y-121907200D01*
X157928095Y-121907200D02*
X157880476Y-121859580D01*
X151833333Y-101874819D02*
X151500000Y-101398628D01*
X151261905Y-101874819D02*
X151261905Y-100874819D01*
X151261905Y-100874819D02*
X151642857Y-100874819D01*
X151642857Y-100874819D02*
X151738095Y-100922438D01*
X151738095Y-100922438D02*
X151785714Y-100970057D01*
X151785714Y-100970057D02*
X151833333Y-101065295D01*
X151833333Y-101065295D02*
X151833333Y-101208152D01*
X151833333Y-101208152D02*
X151785714Y-101303390D01*
X151785714Y-101303390D02*
X151738095Y-101351009D01*
X151738095Y-101351009D02*
X151642857Y-101398628D01*
X151642857Y-101398628D02*
X151261905Y-101398628D01*
X152166667Y-100874819D02*
X152833333Y-100874819D01*
X152833333Y-100874819D02*
X152404762Y-101874819D01*
X135444819Y-107416666D02*
X134968628Y-107749999D01*
X135444819Y-107988094D02*
X134444819Y-107988094D01*
X134444819Y-107988094D02*
X134444819Y-107607142D01*
X134444819Y-107607142D02*
X134492438Y-107511904D01*
X134492438Y-107511904D02*
X134540057Y-107464285D01*
X134540057Y-107464285D02*
X134635295Y-107416666D01*
X134635295Y-107416666D02*
X134778152Y-107416666D01*
X134778152Y-107416666D02*
X134873390Y-107464285D01*
X134873390Y-107464285D02*
X134921009Y-107511904D01*
X134921009Y-107511904D02*
X134968628Y-107607142D01*
X134968628Y-107607142D02*
X134968628Y-107988094D01*
X134444819Y-107083332D02*
X134444819Y-106464285D01*
X134444819Y-106464285D02*
X134825771Y-106797618D01*
X134825771Y-106797618D02*
X134825771Y-106654761D01*
X134825771Y-106654761D02*
X134873390Y-106559523D01*
X134873390Y-106559523D02*
X134921009Y-106511904D01*
X134921009Y-106511904D02*
X135016247Y-106464285D01*
X135016247Y-106464285D02*
X135254342Y-106464285D01*
X135254342Y-106464285D02*
X135349580Y-106511904D01*
X135349580Y-106511904D02*
X135397200Y-106559523D01*
X135397200Y-106559523D02*
X135444819Y-106654761D01*
X135444819Y-106654761D02*
X135444819Y-106940475D01*
X135444819Y-106940475D02*
X135397200Y-107035713D01*
X135397200Y-107035713D02*
X135349580Y-107083332D01*
X148304819Y-121330357D02*
X147828628Y-121663690D01*
X148304819Y-121901785D02*
X147304819Y-121901785D01*
X147304819Y-121901785D02*
X147304819Y-121520833D01*
X147304819Y-121520833D02*
X147352438Y-121425595D01*
X147352438Y-121425595D02*
X147400057Y-121377976D01*
X147400057Y-121377976D02*
X147495295Y-121330357D01*
X147495295Y-121330357D02*
X147638152Y-121330357D01*
X147638152Y-121330357D02*
X147733390Y-121377976D01*
X147733390Y-121377976D02*
X147781009Y-121425595D01*
X147781009Y-121425595D02*
X147828628Y-121520833D01*
X147828628Y-121520833D02*
X147828628Y-121901785D01*
X147304819Y-120425595D02*
X147304819Y-120901785D01*
X147304819Y-120901785D02*
X147781009Y-120949404D01*
X147781009Y-120949404D02*
X147733390Y-120901785D01*
X147733390Y-120901785D02*
X147685771Y-120806547D01*
X147685771Y-120806547D02*
X147685771Y-120568452D01*
X147685771Y-120568452D02*
X147733390Y-120473214D01*
X147733390Y-120473214D02*
X147781009Y-120425595D01*
X147781009Y-120425595D02*
X147876247Y-120377976D01*
X147876247Y-120377976D02*
X148114342Y-120377976D01*
X148114342Y-120377976D02*
X148209580Y-120425595D01*
X148209580Y-120425595D02*
X148257200Y-120473214D01*
X148257200Y-120473214D02*
X148304819Y-120568452D01*
X148304819Y-120568452D02*
X148304819Y-120806547D01*
X148304819Y-120806547D02*
X148257200Y-120901785D01*
X148257200Y-120901785D02*
X148209580Y-120949404D01*
X147304819Y-119520833D02*
X147304819Y-119711309D01*
X147304819Y-119711309D02*
X147352438Y-119806547D01*
X147352438Y-119806547D02*
X147400057Y-119854166D01*
X147400057Y-119854166D02*
X147542914Y-119949404D01*
X147542914Y-119949404D02*
X147733390Y-119997023D01*
X147733390Y-119997023D02*
X148114342Y-119997023D01*
X148114342Y-119997023D02*
X148209580Y-119949404D01*
X148209580Y-119949404D02*
X148257200Y-119901785D01*
X148257200Y-119901785D02*
X148304819Y-119806547D01*
X148304819Y-119806547D02*
X148304819Y-119616071D01*
X148304819Y-119616071D02*
X148257200Y-119520833D01*
X148257200Y-119520833D02*
X148209580Y-119473214D01*
X148209580Y-119473214D02*
X148114342Y-119425595D01*
X148114342Y-119425595D02*
X147876247Y-119425595D01*
X147876247Y-119425595D02*
X147781009Y-119473214D01*
X147781009Y-119473214D02*
X147733390Y-119520833D01*
X147733390Y-119520833D02*
X147685771Y-119616071D01*
X147685771Y-119616071D02*
X147685771Y-119806547D01*
X147685771Y-119806547D02*
X147733390Y-119901785D01*
X147733390Y-119901785D02*
X147781009Y-119949404D01*
X147781009Y-119949404D02*
X147876247Y-119997023D01*
X138554819Y-103069166D02*
X138078628Y-103402499D01*
X138554819Y-103640594D02*
X137554819Y-103640594D01*
X137554819Y-103640594D02*
X137554819Y-103259642D01*
X137554819Y-103259642D02*
X137602438Y-103164404D01*
X137602438Y-103164404D02*
X137650057Y-103116785D01*
X137650057Y-103116785D02*
X137745295Y-103069166D01*
X137745295Y-103069166D02*
X137888152Y-103069166D01*
X137888152Y-103069166D02*
X137983390Y-103116785D01*
X137983390Y-103116785D02*
X138031009Y-103164404D01*
X138031009Y-103164404D02*
X138078628Y-103259642D01*
X138078628Y-103259642D02*
X138078628Y-103640594D01*
X137554819Y-102164404D02*
X137554819Y-102640594D01*
X137554819Y-102640594D02*
X138031009Y-102688213D01*
X138031009Y-102688213D02*
X137983390Y-102640594D01*
X137983390Y-102640594D02*
X137935771Y-102545356D01*
X137935771Y-102545356D02*
X137935771Y-102307261D01*
X137935771Y-102307261D02*
X137983390Y-102212023D01*
X137983390Y-102212023D02*
X138031009Y-102164404D01*
X138031009Y-102164404D02*
X138126247Y-102116785D01*
X138126247Y-102116785D02*
X138364342Y-102116785D01*
X138364342Y-102116785D02*
X138459580Y-102164404D01*
X138459580Y-102164404D02*
X138507200Y-102212023D01*
X138507200Y-102212023D02*
X138554819Y-102307261D01*
X138554819Y-102307261D02*
X138554819Y-102545356D01*
X138554819Y-102545356D02*
X138507200Y-102640594D01*
X138507200Y-102640594D02*
X138459580Y-102688213D01*
X156011905Y-73664819D02*
X156011905Y-72664819D01*
X156011905Y-72664819D02*
X156250000Y-72664819D01*
X156250000Y-72664819D02*
X156392857Y-72712438D01*
X156392857Y-72712438D02*
X156488095Y-72807676D01*
X156488095Y-72807676D02*
X156535714Y-72902914D01*
X156535714Y-72902914D02*
X156583333Y-73093390D01*
X156583333Y-73093390D02*
X156583333Y-73236247D01*
X156583333Y-73236247D02*
X156535714Y-73426723D01*
X156535714Y-73426723D02*
X156488095Y-73521961D01*
X156488095Y-73521961D02*
X156392857Y-73617200D01*
X156392857Y-73617200D02*
X156250000Y-73664819D01*
X156250000Y-73664819D02*
X156011905Y-73664819D01*
X157440476Y-72998152D02*
X157440476Y-73664819D01*
X157202381Y-72617200D02*
X156964286Y-73331485D01*
X156964286Y-73331485D02*
X157583333Y-73331485D01*
X146059580Y-92366666D02*
X146107200Y-92414285D01*
X146107200Y-92414285D02*
X146154819Y-92557142D01*
X146154819Y-92557142D02*
X146154819Y-92652380D01*
X146154819Y-92652380D02*
X146107200Y-92795237D01*
X146107200Y-92795237D02*
X146011961Y-92890475D01*
X146011961Y-92890475D02*
X145916723Y-92938094D01*
X145916723Y-92938094D02*
X145726247Y-92985713D01*
X145726247Y-92985713D02*
X145583390Y-92985713D01*
X145583390Y-92985713D02*
X145392914Y-92938094D01*
X145392914Y-92938094D02*
X145297676Y-92890475D01*
X145297676Y-92890475D02*
X145202438Y-92795237D01*
X145202438Y-92795237D02*
X145154819Y-92652380D01*
X145154819Y-92652380D02*
X145154819Y-92557142D01*
X145154819Y-92557142D02*
X145202438Y-92414285D01*
X145202438Y-92414285D02*
X145250057Y-92366666D01*
X146154819Y-91414285D02*
X146154819Y-91985713D01*
X146154819Y-91699999D02*
X145154819Y-91699999D01*
X145154819Y-91699999D02*
X145297676Y-91795237D01*
X145297676Y-91795237D02*
X145392914Y-91890475D01*
X145392914Y-91890475D02*
X145440533Y-91985713D01*
X141624819Y-103646666D02*
X141148628Y-103979999D01*
X141624819Y-104218094D02*
X140624819Y-104218094D01*
X140624819Y-104218094D02*
X140624819Y-103837142D01*
X140624819Y-103837142D02*
X140672438Y-103741904D01*
X140672438Y-103741904D02*
X140720057Y-103694285D01*
X140720057Y-103694285D02*
X140815295Y-103646666D01*
X140815295Y-103646666D02*
X140958152Y-103646666D01*
X140958152Y-103646666D02*
X141053390Y-103694285D01*
X141053390Y-103694285D02*
X141101009Y-103741904D01*
X141101009Y-103741904D02*
X141148628Y-103837142D01*
X141148628Y-103837142D02*
X141148628Y-104218094D01*
X140624819Y-102789523D02*
X140624819Y-102979999D01*
X140624819Y-102979999D02*
X140672438Y-103075237D01*
X140672438Y-103075237D02*
X140720057Y-103122856D01*
X140720057Y-103122856D02*
X140862914Y-103218094D01*
X140862914Y-103218094D02*
X141053390Y-103265713D01*
X141053390Y-103265713D02*
X141434342Y-103265713D01*
X141434342Y-103265713D02*
X141529580Y-103218094D01*
X141529580Y-103218094D02*
X141577200Y-103170475D01*
X141577200Y-103170475D02*
X141624819Y-103075237D01*
X141624819Y-103075237D02*
X141624819Y-102884761D01*
X141624819Y-102884761D02*
X141577200Y-102789523D01*
X141577200Y-102789523D02*
X141529580Y-102741904D01*
X141529580Y-102741904D02*
X141434342Y-102694285D01*
X141434342Y-102694285D02*
X141196247Y-102694285D01*
X141196247Y-102694285D02*
X141101009Y-102741904D01*
X141101009Y-102741904D02*
X141053390Y-102789523D01*
X141053390Y-102789523D02*
X141005771Y-102884761D01*
X141005771Y-102884761D02*
X141005771Y-103075237D01*
X141005771Y-103075237D02*
X141053390Y-103170475D01*
X141053390Y-103170475D02*
X141101009Y-103218094D01*
X141101009Y-103218094D02*
X141196247Y-103265713D01*
X141954819Y-112532857D02*
X141478628Y-112866190D01*
X141954819Y-113104285D02*
X140954819Y-113104285D01*
X140954819Y-113104285D02*
X140954819Y-112723333D01*
X140954819Y-112723333D02*
X141002438Y-112628095D01*
X141002438Y-112628095D02*
X141050057Y-112580476D01*
X141050057Y-112580476D02*
X141145295Y-112532857D01*
X141145295Y-112532857D02*
X141288152Y-112532857D01*
X141288152Y-112532857D02*
X141383390Y-112580476D01*
X141383390Y-112580476D02*
X141431009Y-112628095D01*
X141431009Y-112628095D02*
X141478628Y-112723333D01*
X141478628Y-112723333D02*
X141478628Y-113104285D01*
X141954819Y-111580476D02*
X141954819Y-112151904D01*
X141954819Y-111866190D02*
X140954819Y-111866190D01*
X140954819Y-111866190D02*
X141097676Y-111961428D01*
X141097676Y-111961428D02*
X141192914Y-112056666D01*
X141192914Y-112056666D02*
X141240533Y-112151904D01*
X141050057Y-111199523D02*
X141002438Y-111151904D01*
X141002438Y-111151904D02*
X140954819Y-111056666D01*
X140954819Y-111056666D02*
X140954819Y-110818571D01*
X140954819Y-110818571D02*
X141002438Y-110723333D01*
X141002438Y-110723333D02*
X141050057Y-110675714D01*
X141050057Y-110675714D02*
X141145295Y-110628095D01*
X141145295Y-110628095D02*
X141240533Y-110628095D01*
X141240533Y-110628095D02*
X141383390Y-110675714D01*
X141383390Y-110675714D02*
X141954819Y-111247142D01*
X141954819Y-111247142D02*
X141954819Y-110628095D01*
X136498095Y-135964819D02*
X136498095Y-134964819D01*
X136498095Y-135441009D02*
X137069523Y-135441009D01*
X137069523Y-135964819D02*
X137069523Y-134964819D01*
X137498095Y-135060057D02*
X137545714Y-135012438D01*
X137545714Y-135012438D02*
X137640952Y-134964819D01*
X137640952Y-134964819D02*
X137879047Y-134964819D01*
X137879047Y-134964819D02*
X137974285Y-135012438D01*
X137974285Y-135012438D02*
X138021904Y-135060057D01*
X138021904Y-135060057D02*
X138069523Y-135155295D01*
X138069523Y-135155295D02*
X138069523Y-135250533D01*
X138069523Y-135250533D02*
X138021904Y-135393390D01*
X138021904Y-135393390D02*
X137450476Y-135964819D01*
X137450476Y-135964819D02*
X138069523Y-135964819D01*
X138424819Y-107426666D02*
X137948628Y-107759999D01*
X138424819Y-107998094D02*
X137424819Y-107998094D01*
X137424819Y-107998094D02*
X137424819Y-107617142D01*
X137424819Y-107617142D02*
X137472438Y-107521904D01*
X137472438Y-107521904D02*
X137520057Y-107474285D01*
X137520057Y-107474285D02*
X137615295Y-107426666D01*
X137615295Y-107426666D02*
X137758152Y-107426666D01*
X137758152Y-107426666D02*
X137853390Y-107474285D01*
X137853390Y-107474285D02*
X137901009Y-107521904D01*
X137901009Y-107521904D02*
X137948628Y-107617142D01*
X137948628Y-107617142D02*
X137948628Y-107998094D01*
X137520057Y-107045713D02*
X137472438Y-106998094D01*
X137472438Y-106998094D02*
X137424819Y-106902856D01*
X137424819Y-106902856D02*
X137424819Y-106664761D01*
X137424819Y-106664761D02*
X137472438Y-106569523D01*
X137472438Y-106569523D02*
X137520057Y-106521904D01*
X137520057Y-106521904D02*
X137615295Y-106474285D01*
X137615295Y-106474285D02*
X137710533Y-106474285D01*
X137710533Y-106474285D02*
X137853390Y-106521904D01*
X137853390Y-106521904D02*
X138424819Y-107093332D01*
X138424819Y-107093332D02*
X138424819Y-106474285D01*
X143161905Y-130554819D02*
X143161905Y-129554819D01*
X143161905Y-129554819D02*
X143400000Y-129554819D01*
X143400000Y-129554819D02*
X143542857Y-129602438D01*
X143542857Y-129602438D02*
X143638095Y-129697676D01*
X143638095Y-129697676D02*
X143685714Y-129792914D01*
X143685714Y-129792914D02*
X143733333Y-129983390D01*
X143733333Y-129983390D02*
X143733333Y-130126247D01*
X143733333Y-130126247D02*
X143685714Y-130316723D01*
X143685714Y-130316723D02*
X143638095Y-130411961D01*
X143638095Y-130411961D02*
X143542857Y-130507200D01*
X143542857Y-130507200D02*
X143400000Y-130554819D01*
X143400000Y-130554819D02*
X143161905Y-130554819D01*
X144066667Y-129554819D02*
X144733333Y-129554819D01*
X144733333Y-129554819D02*
X144304762Y-130554819D01*
X166641666Y-126219819D02*
X166641666Y-126934104D01*
X166641666Y-126934104D02*
X166594047Y-127076961D01*
X166594047Y-127076961D02*
X166498809Y-127172200D01*
X166498809Y-127172200D02*
X166355952Y-127219819D01*
X166355952Y-127219819D02*
X166260714Y-127219819D01*
X167546428Y-126553152D02*
X167546428Y-127219819D01*
X167308333Y-126172200D02*
X167070238Y-126886485D01*
X167070238Y-126886485D02*
X167689285Y-126886485D01*
X135454819Y-103056666D02*
X134978628Y-103389999D01*
X135454819Y-103628094D02*
X134454819Y-103628094D01*
X134454819Y-103628094D02*
X134454819Y-103247142D01*
X134454819Y-103247142D02*
X134502438Y-103151904D01*
X134502438Y-103151904D02*
X134550057Y-103104285D01*
X134550057Y-103104285D02*
X134645295Y-103056666D01*
X134645295Y-103056666D02*
X134788152Y-103056666D01*
X134788152Y-103056666D02*
X134883390Y-103104285D01*
X134883390Y-103104285D02*
X134931009Y-103151904D01*
X134931009Y-103151904D02*
X134978628Y-103247142D01*
X134978628Y-103247142D02*
X134978628Y-103628094D01*
X134788152Y-102199523D02*
X135454819Y-102199523D01*
X134407200Y-102437618D02*
X135121485Y-102675713D01*
X135121485Y-102675713D02*
X135121485Y-102056666D01*
X155281905Y-104254819D02*
X155281905Y-103254819D01*
X155281905Y-103254819D02*
X155520000Y-103254819D01*
X155520000Y-103254819D02*
X155662857Y-103302438D01*
X155662857Y-103302438D02*
X155758095Y-103397676D01*
X155758095Y-103397676D02*
X155805714Y-103492914D01*
X155805714Y-103492914D02*
X155853333Y-103683390D01*
X155853333Y-103683390D02*
X155853333Y-103826247D01*
X155853333Y-103826247D02*
X155805714Y-104016723D01*
X155805714Y-104016723D02*
X155758095Y-104111961D01*
X155758095Y-104111961D02*
X155662857Y-104207200D01*
X155662857Y-104207200D02*
X155520000Y-104254819D01*
X155520000Y-104254819D02*
X155281905Y-104254819D01*
X156710476Y-103254819D02*
X156520000Y-103254819D01*
X156520000Y-103254819D02*
X156424762Y-103302438D01*
X156424762Y-103302438D02*
X156377143Y-103350057D01*
X156377143Y-103350057D02*
X156281905Y-103492914D01*
X156281905Y-103492914D02*
X156234286Y-103683390D01*
X156234286Y-103683390D02*
X156234286Y-104064342D01*
X156234286Y-104064342D02*
X156281905Y-104159580D01*
X156281905Y-104159580D02*
X156329524Y-104207200D01*
X156329524Y-104207200D02*
X156424762Y-104254819D01*
X156424762Y-104254819D02*
X156615238Y-104254819D01*
X156615238Y-104254819D02*
X156710476Y-104207200D01*
X156710476Y-104207200D02*
X156758095Y-104159580D01*
X156758095Y-104159580D02*
X156805714Y-104064342D01*
X156805714Y-104064342D02*
X156805714Y-103826247D01*
X156805714Y-103826247D02*
X156758095Y-103731009D01*
X156758095Y-103731009D02*
X156710476Y-103683390D01*
X156710476Y-103683390D02*
X156615238Y-103635771D01*
X156615238Y-103635771D02*
X156424762Y-103635771D01*
X156424762Y-103635771D02*
X156329524Y-103683390D01*
X156329524Y-103683390D02*
X156281905Y-103731009D01*
X156281905Y-103731009D02*
X156234286Y-103826247D01*
X161039579Y-104291666D02*
X161087199Y-104339285D01*
X161087199Y-104339285D02*
X161134818Y-104482142D01*
X161134818Y-104482142D02*
X161134818Y-104577380D01*
X161134818Y-104577380D02*
X161087199Y-104720237D01*
X161087199Y-104720237D02*
X160991960Y-104815475D01*
X160991960Y-104815475D02*
X160896722Y-104863094D01*
X160896722Y-104863094D02*
X160706246Y-104910713D01*
X160706246Y-104910713D02*
X160563389Y-104910713D01*
X160563389Y-104910713D02*
X160372913Y-104863094D01*
X160372913Y-104863094D02*
X160277675Y-104815475D01*
X160277675Y-104815475D02*
X160182437Y-104720237D01*
X160182437Y-104720237D02*
X160134818Y-104577380D01*
X160134818Y-104577380D02*
X160134818Y-104482142D01*
X160134818Y-104482142D02*
X160182437Y-104339285D01*
X160182437Y-104339285D02*
X160230056Y-104291666D01*
X160134818Y-103958332D02*
X160134818Y-103339285D01*
X160134818Y-103339285D02*
X160515770Y-103672618D01*
X160515770Y-103672618D02*
X160515770Y-103529761D01*
X160515770Y-103529761D02*
X160563389Y-103434523D01*
X160563389Y-103434523D02*
X160611008Y-103386904D01*
X160611008Y-103386904D02*
X160706246Y-103339285D01*
X160706246Y-103339285D02*
X160944341Y-103339285D01*
X160944341Y-103339285D02*
X161039579Y-103386904D01*
X161039579Y-103386904D02*
X161087199Y-103434523D01*
X161087199Y-103434523D02*
X161134818Y-103529761D01*
X161134818Y-103529761D02*
X161134818Y-103815475D01*
X161134818Y-103815475D02*
X161087199Y-103910713D01*
X161087199Y-103910713D02*
X161039579Y-103958332D01*
X159059580Y-92366666D02*
X159107200Y-92414285D01*
X159107200Y-92414285D02*
X159154819Y-92557142D01*
X159154819Y-92557142D02*
X159154819Y-92652380D01*
X159154819Y-92652380D02*
X159107200Y-92795237D01*
X159107200Y-92795237D02*
X159011961Y-92890475D01*
X159011961Y-92890475D02*
X158916723Y-92938094D01*
X158916723Y-92938094D02*
X158726247Y-92985713D01*
X158726247Y-92985713D02*
X158583390Y-92985713D01*
X158583390Y-92985713D02*
X158392914Y-92938094D01*
X158392914Y-92938094D02*
X158297676Y-92890475D01*
X158297676Y-92890475D02*
X158202438Y-92795237D01*
X158202438Y-92795237D02*
X158154819Y-92652380D01*
X158154819Y-92652380D02*
X158154819Y-92557142D01*
X158154819Y-92557142D02*
X158202438Y-92414285D01*
X158202438Y-92414285D02*
X158250057Y-92366666D01*
X158250057Y-91985713D02*
X158202438Y-91938094D01*
X158202438Y-91938094D02*
X158154819Y-91842856D01*
X158154819Y-91842856D02*
X158154819Y-91604761D01*
X158154819Y-91604761D02*
X158202438Y-91509523D01*
X158202438Y-91509523D02*
X158250057Y-91461904D01*
X158250057Y-91461904D02*
X158345295Y-91414285D01*
X158345295Y-91414285D02*
X158440533Y-91414285D01*
X158440533Y-91414285D02*
X158583390Y-91461904D01*
X158583390Y-91461904D02*
X159154819Y-92033332D01*
X159154819Y-92033332D02*
X159154819Y-91414285D01*
X137377142Y-61689580D02*
X137329523Y-61737200D01*
X137329523Y-61737200D02*
X137186666Y-61784819D01*
X137186666Y-61784819D02*
X137091428Y-61784819D01*
X137091428Y-61784819D02*
X136948571Y-61737200D01*
X136948571Y-61737200D02*
X136853333Y-61641961D01*
X136853333Y-61641961D02*
X136805714Y-61546723D01*
X136805714Y-61546723D02*
X136758095Y-61356247D01*
X136758095Y-61356247D02*
X136758095Y-61213390D01*
X136758095Y-61213390D02*
X136805714Y-61022914D01*
X136805714Y-61022914D02*
X136853333Y-60927676D01*
X136853333Y-60927676D02*
X136948571Y-60832438D01*
X136948571Y-60832438D02*
X137091428Y-60784819D01*
X137091428Y-60784819D02*
X137186666Y-60784819D01*
X137186666Y-60784819D02*
X137329523Y-60832438D01*
X137329523Y-60832438D02*
X137377142Y-60880057D01*
X138329523Y-61784819D02*
X137758095Y-61784819D01*
X138043809Y-61784819D02*
X138043809Y-60784819D01*
X138043809Y-60784819D02*
X137948571Y-60927676D01*
X137948571Y-60927676D02*
X137853333Y-61022914D01*
X137853333Y-61022914D02*
X137758095Y-61070533D01*
X138948571Y-60784819D02*
X139043809Y-60784819D01*
X139043809Y-60784819D02*
X139139047Y-60832438D01*
X139139047Y-60832438D02*
X139186666Y-60880057D01*
X139186666Y-60880057D02*
X139234285Y-60975295D01*
X139234285Y-60975295D02*
X139281904Y-61165771D01*
X139281904Y-61165771D02*
X139281904Y-61403866D01*
X139281904Y-61403866D02*
X139234285Y-61594342D01*
X139234285Y-61594342D02*
X139186666Y-61689580D01*
X139186666Y-61689580D02*
X139139047Y-61737200D01*
X139139047Y-61737200D02*
X139043809Y-61784819D01*
X139043809Y-61784819D02*
X138948571Y-61784819D01*
X138948571Y-61784819D02*
X138853333Y-61737200D01*
X138853333Y-61737200D02*
X138805714Y-61689580D01*
X138805714Y-61689580D02*
X138758095Y-61594342D01*
X138758095Y-61594342D02*
X138710476Y-61403866D01*
X138710476Y-61403866D02*
X138710476Y-61165771D01*
X138710476Y-61165771D02*
X138758095Y-60975295D01*
X138758095Y-60975295D02*
X138805714Y-60880057D01*
X138805714Y-60880057D02*
X138853333Y-60832438D01*
X138853333Y-60832438D02*
X138948571Y-60784819D01*
X228238095Y-135304819D02*
X228238095Y-134304819D01*
X228238095Y-134781009D02*
X228809523Y-134781009D01*
X228809523Y-135304819D02*
X228809523Y-134304819D01*
X229714285Y-134304819D02*
X229523809Y-134304819D01*
X229523809Y-134304819D02*
X229428571Y-134352438D01*
X229428571Y-134352438D02*
X229380952Y-134400057D01*
X229380952Y-134400057D02*
X229285714Y-134542914D01*
X229285714Y-134542914D02*
X229238095Y-134733390D01*
X229238095Y-134733390D02*
X229238095Y-135114342D01*
X229238095Y-135114342D02*
X229285714Y-135209580D01*
X229285714Y-135209580D02*
X229333333Y-135257200D01*
X229333333Y-135257200D02*
X229428571Y-135304819D01*
X229428571Y-135304819D02*
X229619047Y-135304819D01*
X229619047Y-135304819D02*
X229714285Y-135257200D01*
X229714285Y-135257200D02*
X229761904Y-135209580D01*
X229761904Y-135209580D02*
X229809523Y-135114342D01*
X229809523Y-135114342D02*
X229809523Y-134876247D01*
X229809523Y-134876247D02*
X229761904Y-134781009D01*
X229761904Y-134781009D02*
X229714285Y-134733390D01*
X229714285Y-134733390D02*
X229619047Y-134685771D01*
X229619047Y-134685771D02*
X229428571Y-134685771D01*
X229428571Y-134685771D02*
X229333333Y-134733390D01*
X229333333Y-134733390D02*
X229285714Y-134781009D01*
X229285714Y-134781009D02*
X229238095Y-134876247D01*
X187454819Y-78838094D02*
X186454819Y-78838094D01*
X186454819Y-78838094D02*
X186454819Y-78599999D01*
X186454819Y-78599999D02*
X186502438Y-78457142D01*
X186502438Y-78457142D02*
X186597676Y-78361904D01*
X186597676Y-78361904D02*
X186692914Y-78314285D01*
X186692914Y-78314285D02*
X186883390Y-78266666D01*
X186883390Y-78266666D02*
X187026247Y-78266666D01*
X187026247Y-78266666D02*
X187216723Y-78314285D01*
X187216723Y-78314285D02*
X187311961Y-78361904D01*
X187311961Y-78361904D02*
X187407200Y-78457142D01*
X187407200Y-78457142D02*
X187454819Y-78599999D01*
X187454819Y-78599999D02*
X187454819Y-78838094D01*
X186550057Y-77885713D02*
X186502438Y-77838094D01*
X186502438Y-77838094D02*
X186454819Y-77742856D01*
X186454819Y-77742856D02*
X186454819Y-77504761D01*
X186454819Y-77504761D02*
X186502438Y-77409523D01*
X186502438Y-77409523D02*
X186550057Y-77361904D01*
X186550057Y-77361904D02*
X186645295Y-77314285D01*
X186645295Y-77314285D02*
X186740533Y-77314285D01*
X186740533Y-77314285D02*
X186883390Y-77361904D01*
X186883390Y-77361904D02*
X187454819Y-77933332D01*
X187454819Y-77933332D02*
X187454819Y-77314285D01*
X148978095Y-101174819D02*
X148978095Y-101984342D01*
X148978095Y-101984342D02*
X149025714Y-102079580D01*
X149025714Y-102079580D02*
X149073333Y-102127200D01*
X149073333Y-102127200D02*
X149168571Y-102174819D01*
X149168571Y-102174819D02*
X149359047Y-102174819D01*
X149359047Y-102174819D02*
X149454285Y-102127200D01*
X149454285Y-102127200D02*
X149501904Y-102079580D01*
X149501904Y-102079580D02*
X149549523Y-101984342D01*
X149549523Y-101984342D02*
X149549523Y-101174819D01*
X150549523Y-102174819D02*
X149978095Y-102174819D01*
X150263809Y-102174819D02*
X150263809Y-101174819D01*
X150263809Y-101174819D02*
X150168571Y-101317676D01*
X150168571Y-101317676D02*
X150073333Y-101412914D01*
X150073333Y-101412914D02*
X149978095Y-101460533D01*
X228318095Y-48084819D02*
X228318095Y-47084819D01*
X228318095Y-47561009D02*
X228889523Y-47561009D01*
X228889523Y-48084819D02*
X228889523Y-47084819D01*
X229270476Y-47084819D02*
X229889523Y-47084819D01*
X229889523Y-47084819D02*
X229556190Y-47465771D01*
X229556190Y-47465771D02*
X229699047Y-47465771D01*
X229699047Y-47465771D02*
X229794285Y-47513390D01*
X229794285Y-47513390D02*
X229841904Y-47561009D01*
X229841904Y-47561009D02*
X229889523Y-47656247D01*
X229889523Y-47656247D02*
X229889523Y-47894342D01*
X229889523Y-47894342D02*
X229841904Y-47989580D01*
X229841904Y-47989580D02*
X229794285Y-48037200D01*
X229794285Y-48037200D02*
X229699047Y-48084819D01*
X229699047Y-48084819D02*
X229413333Y-48084819D01*
X229413333Y-48084819D02*
X229318095Y-48037200D01*
X229318095Y-48037200D02*
X229270476Y-47989580D01*
X151454819Y-113942857D02*
X150978628Y-114276190D01*
X151454819Y-114514285D02*
X150454819Y-114514285D01*
X150454819Y-114514285D02*
X150454819Y-114133333D01*
X150454819Y-114133333D02*
X150502438Y-114038095D01*
X150502438Y-114038095D02*
X150550057Y-113990476D01*
X150550057Y-113990476D02*
X150645295Y-113942857D01*
X150645295Y-113942857D02*
X150788152Y-113942857D01*
X150788152Y-113942857D02*
X150883390Y-113990476D01*
X150883390Y-113990476D02*
X150931009Y-114038095D01*
X150931009Y-114038095D02*
X150978628Y-114133333D01*
X150978628Y-114133333D02*
X150978628Y-114514285D01*
X151454819Y-112990476D02*
X151454819Y-113561904D01*
X151454819Y-113276190D02*
X150454819Y-113276190D01*
X150454819Y-113276190D02*
X150597676Y-113371428D01*
X150597676Y-113371428D02*
X150692914Y-113466666D01*
X150692914Y-113466666D02*
X150740533Y-113561904D01*
X150454819Y-112371428D02*
X150454819Y-112276190D01*
X150454819Y-112276190D02*
X150502438Y-112180952D01*
X150502438Y-112180952D02*
X150550057Y-112133333D01*
X150550057Y-112133333D02*
X150645295Y-112085714D01*
X150645295Y-112085714D02*
X150835771Y-112038095D01*
X150835771Y-112038095D02*
X151073866Y-112038095D01*
X151073866Y-112038095D02*
X151264342Y-112085714D01*
X151264342Y-112085714D02*
X151359580Y-112133333D01*
X151359580Y-112133333D02*
X151407200Y-112180952D01*
X151407200Y-112180952D02*
X151454819Y-112276190D01*
X151454819Y-112276190D02*
X151454819Y-112371428D01*
X151454819Y-112371428D02*
X151407200Y-112466666D01*
X151407200Y-112466666D02*
X151359580Y-112514285D01*
X151359580Y-112514285D02*
X151264342Y-112561904D01*
X151264342Y-112561904D02*
X151073866Y-112609523D01*
X151073866Y-112609523D02*
X150835771Y-112609523D01*
X150835771Y-112609523D02*
X150645295Y-112561904D01*
X150645295Y-112561904D02*
X150550057Y-112514285D01*
X150550057Y-112514285D02*
X150502438Y-112466666D01*
X150502438Y-112466666D02*
X150454819Y-112371428D01*
X134787142Y-110814819D02*
X134453809Y-110338628D01*
X134215714Y-110814819D02*
X134215714Y-109814819D01*
X134215714Y-109814819D02*
X134596666Y-109814819D01*
X134596666Y-109814819D02*
X134691904Y-109862438D01*
X134691904Y-109862438D02*
X134739523Y-109910057D01*
X134739523Y-109910057D02*
X134787142Y-110005295D01*
X134787142Y-110005295D02*
X134787142Y-110148152D01*
X134787142Y-110148152D02*
X134739523Y-110243390D01*
X134739523Y-110243390D02*
X134691904Y-110291009D01*
X134691904Y-110291009D02*
X134596666Y-110338628D01*
X134596666Y-110338628D02*
X134215714Y-110338628D01*
X135691904Y-109814819D02*
X135215714Y-109814819D01*
X135215714Y-109814819D02*
X135168095Y-110291009D01*
X135168095Y-110291009D02*
X135215714Y-110243390D01*
X135215714Y-110243390D02*
X135310952Y-110195771D01*
X135310952Y-110195771D02*
X135549047Y-110195771D01*
X135549047Y-110195771D02*
X135644285Y-110243390D01*
X135644285Y-110243390D02*
X135691904Y-110291009D01*
X135691904Y-110291009D02*
X135739523Y-110386247D01*
X135739523Y-110386247D02*
X135739523Y-110624342D01*
X135739523Y-110624342D02*
X135691904Y-110719580D01*
X135691904Y-110719580D02*
X135644285Y-110767200D01*
X135644285Y-110767200D02*
X135549047Y-110814819D01*
X135549047Y-110814819D02*
X135310952Y-110814819D01*
X135310952Y-110814819D02*
X135215714Y-110767200D01*
X135215714Y-110767200D02*
X135168095Y-110719580D01*
X136310952Y-110243390D02*
X136215714Y-110195771D01*
X136215714Y-110195771D02*
X136168095Y-110148152D01*
X136168095Y-110148152D02*
X136120476Y-110052914D01*
X136120476Y-110052914D02*
X136120476Y-110005295D01*
X136120476Y-110005295D02*
X136168095Y-109910057D01*
X136168095Y-109910057D02*
X136215714Y-109862438D01*
X136215714Y-109862438D02*
X136310952Y-109814819D01*
X136310952Y-109814819D02*
X136501428Y-109814819D01*
X136501428Y-109814819D02*
X136596666Y-109862438D01*
X136596666Y-109862438D02*
X136644285Y-109910057D01*
X136644285Y-109910057D02*
X136691904Y-110005295D01*
X136691904Y-110005295D02*
X136691904Y-110052914D01*
X136691904Y-110052914D02*
X136644285Y-110148152D01*
X136644285Y-110148152D02*
X136596666Y-110195771D01*
X136596666Y-110195771D02*
X136501428Y-110243390D01*
X136501428Y-110243390D02*
X136310952Y-110243390D01*
X136310952Y-110243390D02*
X136215714Y-110291009D01*
X136215714Y-110291009D02*
X136168095Y-110338628D01*
X136168095Y-110338628D02*
X136120476Y-110433866D01*
X136120476Y-110433866D02*
X136120476Y-110624342D01*
X136120476Y-110624342D02*
X136168095Y-110719580D01*
X136168095Y-110719580D02*
X136215714Y-110767200D01*
X136215714Y-110767200D02*
X136310952Y-110814819D01*
X136310952Y-110814819D02*
X136501428Y-110814819D01*
X136501428Y-110814819D02*
X136596666Y-110767200D01*
X136596666Y-110767200D02*
X136644285Y-110719580D01*
X136644285Y-110719580D02*
X136691904Y-110624342D01*
X136691904Y-110624342D02*
X136691904Y-110433866D01*
X136691904Y-110433866D02*
X136644285Y-110338628D01*
X136644285Y-110338628D02*
X136596666Y-110291009D01*
X136596666Y-110291009D02*
X136501428Y-110243390D01*
X136789580Y-68056666D02*
X136837200Y-68104285D01*
X136837200Y-68104285D02*
X136884819Y-68247142D01*
X136884819Y-68247142D02*
X136884819Y-68342380D01*
X136884819Y-68342380D02*
X136837200Y-68485237D01*
X136837200Y-68485237D02*
X136741961Y-68580475D01*
X136741961Y-68580475D02*
X136646723Y-68628094D01*
X136646723Y-68628094D02*
X136456247Y-68675713D01*
X136456247Y-68675713D02*
X136313390Y-68675713D01*
X136313390Y-68675713D02*
X136122914Y-68628094D01*
X136122914Y-68628094D02*
X136027676Y-68580475D01*
X136027676Y-68580475D02*
X135932438Y-68485237D01*
X135932438Y-68485237D02*
X135884819Y-68342380D01*
X135884819Y-68342380D02*
X135884819Y-68247142D01*
X135884819Y-68247142D02*
X135932438Y-68104285D01*
X135932438Y-68104285D02*
X135980057Y-68056666D01*
X136313390Y-67485237D02*
X136265771Y-67580475D01*
X136265771Y-67580475D02*
X136218152Y-67628094D01*
X136218152Y-67628094D02*
X136122914Y-67675713D01*
X136122914Y-67675713D02*
X136075295Y-67675713D01*
X136075295Y-67675713D02*
X135980057Y-67628094D01*
X135980057Y-67628094D02*
X135932438Y-67580475D01*
X135932438Y-67580475D02*
X135884819Y-67485237D01*
X135884819Y-67485237D02*
X135884819Y-67294761D01*
X135884819Y-67294761D02*
X135932438Y-67199523D01*
X135932438Y-67199523D02*
X135980057Y-67151904D01*
X135980057Y-67151904D02*
X136075295Y-67104285D01*
X136075295Y-67104285D02*
X136122914Y-67104285D01*
X136122914Y-67104285D02*
X136218152Y-67151904D01*
X136218152Y-67151904D02*
X136265771Y-67199523D01*
X136265771Y-67199523D02*
X136313390Y-67294761D01*
X136313390Y-67294761D02*
X136313390Y-67485237D01*
X136313390Y-67485237D02*
X136361009Y-67580475D01*
X136361009Y-67580475D02*
X136408628Y-67628094D01*
X136408628Y-67628094D02*
X136503866Y-67675713D01*
X136503866Y-67675713D02*
X136694342Y-67675713D01*
X136694342Y-67675713D02*
X136789580Y-67628094D01*
X136789580Y-67628094D02*
X136837200Y-67580475D01*
X136837200Y-67580475D02*
X136884819Y-67485237D01*
X136884819Y-67485237D02*
X136884819Y-67294761D01*
X136884819Y-67294761D02*
X136837200Y-67199523D01*
X136837200Y-67199523D02*
X136789580Y-67151904D01*
X136789580Y-67151904D02*
X136694342Y-67104285D01*
X136694342Y-67104285D02*
X136503866Y-67104285D01*
X136503866Y-67104285D02*
X136408628Y-67151904D01*
X136408628Y-67151904D02*
X136361009Y-67199523D01*
X136361009Y-67199523D02*
X136313390Y-67294761D01*
X136881905Y-58684819D02*
X136881905Y-57684819D01*
X136881905Y-57684819D02*
X137120000Y-57684819D01*
X137120000Y-57684819D02*
X137262857Y-57732438D01*
X137262857Y-57732438D02*
X137358095Y-57827676D01*
X137358095Y-57827676D02*
X137405714Y-57922914D01*
X137405714Y-57922914D02*
X137453333Y-58113390D01*
X137453333Y-58113390D02*
X137453333Y-58256247D01*
X137453333Y-58256247D02*
X137405714Y-58446723D01*
X137405714Y-58446723D02*
X137358095Y-58541961D01*
X137358095Y-58541961D02*
X137262857Y-58637200D01*
X137262857Y-58637200D02*
X137120000Y-58684819D01*
X137120000Y-58684819D02*
X136881905Y-58684819D01*
X137929524Y-58684819D02*
X138120000Y-58684819D01*
X138120000Y-58684819D02*
X138215238Y-58637200D01*
X138215238Y-58637200D02*
X138262857Y-58589580D01*
X138262857Y-58589580D02*
X138358095Y-58446723D01*
X138358095Y-58446723D02*
X138405714Y-58256247D01*
X138405714Y-58256247D02*
X138405714Y-57875295D01*
X138405714Y-57875295D02*
X138358095Y-57780057D01*
X138358095Y-57780057D02*
X138310476Y-57732438D01*
X138310476Y-57732438D02*
X138215238Y-57684819D01*
X138215238Y-57684819D02*
X138024762Y-57684819D01*
X138024762Y-57684819D02*
X137929524Y-57732438D01*
X137929524Y-57732438D02*
X137881905Y-57780057D01*
X137881905Y-57780057D02*
X137834286Y-57875295D01*
X137834286Y-57875295D02*
X137834286Y-58113390D01*
X137834286Y-58113390D02*
X137881905Y-58208628D01*
X137881905Y-58208628D02*
X137929524Y-58256247D01*
X137929524Y-58256247D02*
X138024762Y-58303866D01*
X138024762Y-58303866D02*
X138215238Y-58303866D01*
X138215238Y-58303866D02*
X138310476Y-58256247D01*
X138310476Y-58256247D02*
X138358095Y-58208628D01*
X138358095Y-58208628D02*
X138405714Y-58113390D01*
X145854819Y-123426666D02*
X145378628Y-123759999D01*
X145854819Y-123998094D02*
X144854819Y-123998094D01*
X144854819Y-123998094D02*
X144854819Y-123617142D01*
X144854819Y-123617142D02*
X144902438Y-123521904D01*
X144902438Y-123521904D02*
X144950057Y-123474285D01*
X144950057Y-123474285D02*
X145045295Y-123426666D01*
X145045295Y-123426666D02*
X145188152Y-123426666D01*
X145188152Y-123426666D02*
X145283390Y-123474285D01*
X145283390Y-123474285D02*
X145331009Y-123521904D01*
X145331009Y-123521904D02*
X145378628Y-123617142D01*
X145378628Y-123617142D02*
X145378628Y-123998094D01*
X145283390Y-122855237D02*
X145235771Y-122950475D01*
X145235771Y-122950475D02*
X145188152Y-122998094D01*
X145188152Y-122998094D02*
X145092914Y-123045713D01*
X145092914Y-123045713D02*
X145045295Y-123045713D01*
X145045295Y-123045713D02*
X144950057Y-122998094D01*
X144950057Y-122998094D02*
X144902438Y-122950475D01*
X144902438Y-122950475D02*
X144854819Y-122855237D01*
X144854819Y-122855237D02*
X144854819Y-122664761D01*
X144854819Y-122664761D02*
X144902438Y-122569523D01*
X144902438Y-122569523D02*
X144950057Y-122521904D01*
X144950057Y-122521904D02*
X145045295Y-122474285D01*
X145045295Y-122474285D02*
X145092914Y-122474285D01*
X145092914Y-122474285D02*
X145188152Y-122521904D01*
X145188152Y-122521904D02*
X145235771Y-122569523D01*
X145235771Y-122569523D02*
X145283390Y-122664761D01*
X145283390Y-122664761D02*
X145283390Y-122855237D01*
X145283390Y-122855237D02*
X145331009Y-122950475D01*
X145331009Y-122950475D02*
X145378628Y-122998094D01*
X145378628Y-122998094D02*
X145473866Y-123045713D01*
X145473866Y-123045713D02*
X145664342Y-123045713D01*
X145664342Y-123045713D02*
X145759580Y-122998094D01*
X145759580Y-122998094D02*
X145807200Y-122950475D01*
X145807200Y-122950475D02*
X145854819Y-122855237D01*
X145854819Y-122855237D02*
X145854819Y-122664761D01*
X145854819Y-122664761D02*
X145807200Y-122569523D01*
X145807200Y-122569523D02*
X145759580Y-122521904D01*
X145759580Y-122521904D02*
X145664342Y-122474285D01*
X145664342Y-122474285D02*
X145473866Y-122474285D01*
X145473866Y-122474285D02*
X145378628Y-122521904D01*
X145378628Y-122521904D02*
X145331009Y-122569523D01*
X145331009Y-122569523D02*
X145283390Y-122664761D01*
X141266666Y-133174819D02*
X141266666Y-133889104D01*
X141266666Y-133889104D02*
X141219047Y-134031961D01*
X141219047Y-134031961D02*
X141123809Y-134127200D01*
X141123809Y-134127200D02*
X140980952Y-134174819D01*
X140980952Y-134174819D02*
X140885714Y-134174819D01*
X142171428Y-133174819D02*
X141980952Y-133174819D01*
X141980952Y-133174819D02*
X141885714Y-133222438D01*
X141885714Y-133222438D02*
X141838095Y-133270057D01*
X141838095Y-133270057D02*
X141742857Y-133412914D01*
X141742857Y-133412914D02*
X141695238Y-133603390D01*
X141695238Y-133603390D02*
X141695238Y-133984342D01*
X141695238Y-133984342D02*
X141742857Y-134079580D01*
X141742857Y-134079580D02*
X141790476Y-134127200D01*
X141790476Y-134127200D02*
X141885714Y-134174819D01*
X141885714Y-134174819D02*
X142076190Y-134174819D01*
X142076190Y-134174819D02*
X142171428Y-134127200D01*
X142171428Y-134127200D02*
X142219047Y-134079580D01*
X142219047Y-134079580D02*
X142266666Y-133984342D01*
X142266666Y-133984342D02*
X142266666Y-133746247D01*
X142266666Y-133746247D02*
X142219047Y-133651009D01*
X142219047Y-133651009D02*
X142171428Y-133603390D01*
X142171428Y-133603390D02*
X142076190Y-133555771D01*
X142076190Y-133555771D02*
X141885714Y-133555771D01*
X141885714Y-133555771D02*
X141790476Y-133603390D01*
X141790476Y-133603390D02*
X141742857Y-133651009D01*
X141742857Y-133651009D02*
X141695238Y-133746247D01*
X187554819Y-122938094D02*
X186554819Y-122938094D01*
X186554819Y-122938094D02*
X186554819Y-122699999D01*
X186554819Y-122699999D02*
X186602438Y-122557142D01*
X186602438Y-122557142D02*
X186697676Y-122461904D01*
X186697676Y-122461904D02*
X186792914Y-122414285D01*
X186792914Y-122414285D02*
X186983390Y-122366666D01*
X186983390Y-122366666D02*
X187126247Y-122366666D01*
X187126247Y-122366666D02*
X187316723Y-122414285D01*
X187316723Y-122414285D02*
X187411961Y-122461904D01*
X187411961Y-122461904D02*
X187507200Y-122557142D01*
X187507200Y-122557142D02*
X187554819Y-122699999D01*
X187554819Y-122699999D02*
X187554819Y-122938094D01*
X186554819Y-122033332D02*
X186554819Y-121414285D01*
X186554819Y-121414285D02*
X186935771Y-121747618D01*
X186935771Y-121747618D02*
X186935771Y-121604761D01*
X186935771Y-121604761D02*
X186983390Y-121509523D01*
X186983390Y-121509523D02*
X187031009Y-121461904D01*
X187031009Y-121461904D02*
X187126247Y-121414285D01*
X187126247Y-121414285D02*
X187364342Y-121414285D01*
X187364342Y-121414285D02*
X187459580Y-121461904D01*
X187459580Y-121461904D02*
X187507200Y-121509523D01*
X187507200Y-121509523D02*
X187554819Y-121604761D01*
X187554819Y-121604761D02*
X187554819Y-121890475D01*
X187554819Y-121890475D02*
X187507200Y-121985713D01*
X187507200Y-121985713D02*
X187459580Y-122033332D01*
X161204819Y-108742857D02*
X160728628Y-109076190D01*
X161204819Y-109314285D02*
X160204819Y-109314285D01*
X160204819Y-109314285D02*
X160204819Y-108933333D01*
X160204819Y-108933333D02*
X160252438Y-108838095D01*
X160252438Y-108838095D02*
X160300057Y-108790476D01*
X160300057Y-108790476D02*
X160395295Y-108742857D01*
X160395295Y-108742857D02*
X160538152Y-108742857D01*
X160538152Y-108742857D02*
X160633390Y-108790476D01*
X160633390Y-108790476D02*
X160681009Y-108838095D01*
X160681009Y-108838095D02*
X160728628Y-108933333D01*
X160728628Y-108933333D02*
X160728628Y-109314285D01*
X161204819Y-107790476D02*
X161204819Y-108361904D01*
X161204819Y-108076190D02*
X160204819Y-108076190D01*
X160204819Y-108076190D02*
X160347676Y-108171428D01*
X160347676Y-108171428D02*
X160442914Y-108266666D01*
X160442914Y-108266666D02*
X160490533Y-108361904D01*
X161204819Y-106838095D02*
X161204819Y-107409523D01*
X161204819Y-107123809D02*
X160204819Y-107123809D01*
X160204819Y-107123809D02*
X160347676Y-107219047D01*
X160347676Y-107219047D02*
X160442914Y-107314285D01*
X160442914Y-107314285D02*
X160490533Y-107409523D01*
X153633333Y-106174819D02*
X153300000Y-105698628D01*
X153061905Y-106174819D02*
X153061905Y-105174819D01*
X153061905Y-105174819D02*
X153442857Y-105174819D01*
X153442857Y-105174819D02*
X153538095Y-105222438D01*
X153538095Y-105222438D02*
X153585714Y-105270057D01*
X153585714Y-105270057D02*
X153633333Y-105365295D01*
X153633333Y-105365295D02*
X153633333Y-105508152D01*
X153633333Y-105508152D02*
X153585714Y-105603390D01*
X153585714Y-105603390D02*
X153538095Y-105651009D01*
X153538095Y-105651009D02*
X153442857Y-105698628D01*
X153442857Y-105698628D02*
X153061905Y-105698628D01*
X154109524Y-106174819D02*
X154300000Y-106174819D01*
X154300000Y-106174819D02*
X154395238Y-106127200D01*
X154395238Y-106127200D02*
X154442857Y-106079580D01*
X154442857Y-106079580D02*
X154538095Y-105936723D01*
X154538095Y-105936723D02*
X154585714Y-105746247D01*
X154585714Y-105746247D02*
X154585714Y-105365295D01*
X154585714Y-105365295D02*
X154538095Y-105270057D01*
X154538095Y-105270057D02*
X154490476Y-105222438D01*
X154490476Y-105222438D02*
X154395238Y-105174819D01*
X154395238Y-105174819D02*
X154204762Y-105174819D01*
X154204762Y-105174819D02*
X154109524Y-105222438D01*
X154109524Y-105222438D02*
X154061905Y-105270057D01*
X154061905Y-105270057D02*
X154014286Y-105365295D01*
X154014286Y-105365295D02*
X154014286Y-105603390D01*
X154014286Y-105603390D02*
X154061905Y-105698628D01*
X154061905Y-105698628D02*
X154109524Y-105746247D01*
X154109524Y-105746247D02*
X154204762Y-105793866D01*
X154204762Y-105793866D02*
X154395238Y-105793866D01*
X154395238Y-105793866D02*
X154490476Y-105746247D01*
X154490476Y-105746247D02*
X154538095Y-105698628D01*
X154538095Y-105698628D02*
X154585714Y-105603390D01*
X141941905Y-120834819D02*
X141941905Y-119834819D01*
X141941905Y-119834819D02*
X142180000Y-119834819D01*
X142180000Y-119834819D02*
X142322857Y-119882438D01*
X142322857Y-119882438D02*
X142418095Y-119977676D01*
X142418095Y-119977676D02*
X142465714Y-120072914D01*
X142465714Y-120072914D02*
X142513333Y-120263390D01*
X142513333Y-120263390D02*
X142513333Y-120406247D01*
X142513333Y-120406247D02*
X142465714Y-120596723D01*
X142465714Y-120596723D02*
X142418095Y-120691961D01*
X142418095Y-120691961D02*
X142322857Y-120787200D01*
X142322857Y-120787200D02*
X142180000Y-120834819D01*
X142180000Y-120834819D02*
X141941905Y-120834819D01*
X143418095Y-119834819D02*
X142941905Y-119834819D01*
X142941905Y-119834819D02*
X142894286Y-120311009D01*
X142894286Y-120311009D02*
X142941905Y-120263390D01*
X142941905Y-120263390D02*
X143037143Y-120215771D01*
X143037143Y-120215771D02*
X143275238Y-120215771D01*
X143275238Y-120215771D02*
X143370476Y-120263390D01*
X143370476Y-120263390D02*
X143418095Y-120311009D01*
X143418095Y-120311009D02*
X143465714Y-120406247D01*
X143465714Y-120406247D02*
X143465714Y-120644342D01*
X143465714Y-120644342D02*
X143418095Y-120739580D01*
X143418095Y-120739580D02*
X143370476Y-120787200D01*
X143370476Y-120787200D02*
X143275238Y-120834819D01*
X143275238Y-120834819D02*
X143037143Y-120834819D01*
X143037143Y-120834819D02*
X142941905Y-120787200D01*
X142941905Y-120787200D02*
X142894286Y-120739580D01*
X186971905Y-43304819D02*
X186971905Y-42304819D01*
X186971905Y-42304819D02*
X187210000Y-42304819D01*
X187210000Y-42304819D02*
X187352857Y-42352438D01*
X187352857Y-42352438D02*
X187448095Y-42447676D01*
X187448095Y-42447676D02*
X187495714Y-42542914D01*
X187495714Y-42542914D02*
X187543333Y-42733390D01*
X187543333Y-42733390D02*
X187543333Y-42876247D01*
X187543333Y-42876247D02*
X187495714Y-43066723D01*
X187495714Y-43066723D02*
X187448095Y-43161961D01*
X187448095Y-43161961D02*
X187352857Y-43257200D01*
X187352857Y-43257200D02*
X187210000Y-43304819D01*
X187210000Y-43304819D02*
X186971905Y-43304819D01*
X188495714Y-43304819D02*
X187924286Y-43304819D01*
X188210000Y-43304819D02*
X188210000Y-42304819D01*
X188210000Y-42304819D02*
X188114762Y-42447676D01*
X188114762Y-42447676D02*
X188019524Y-42542914D01*
X188019524Y-42542914D02*
X187924286Y-42590533D01*
X142418095Y-108754819D02*
X142418095Y-109564342D01*
X142418095Y-109564342D02*
X142465714Y-109659580D01*
X142465714Y-109659580D02*
X142513333Y-109707200D01*
X142513333Y-109707200D02*
X142608571Y-109754819D01*
X142608571Y-109754819D02*
X142799047Y-109754819D01*
X142799047Y-109754819D02*
X142894285Y-109707200D01*
X142894285Y-109707200D02*
X142941904Y-109659580D01*
X142941904Y-109659580D02*
X142989523Y-109564342D01*
X142989523Y-109564342D02*
X142989523Y-108754819D01*
X143370476Y-108754819D02*
X143989523Y-108754819D01*
X143989523Y-108754819D02*
X143656190Y-109135771D01*
X143656190Y-109135771D02*
X143799047Y-109135771D01*
X143799047Y-109135771D02*
X143894285Y-109183390D01*
X143894285Y-109183390D02*
X143941904Y-109231009D01*
X143941904Y-109231009D02*
X143989523Y-109326247D01*
X143989523Y-109326247D02*
X143989523Y-109564342D01*
X143989523Y-109564342D02*
X143941904Y-109659580D01*
X143941904Y-109659580D02*
X143894285Y-109707200D01*
X143894285Y-109707200D02*
X143799047Y-109754819D01*
X143799047Y-109754819D02*
X143513333Y-109754819D01*
X143513333Y-109754819D02*
X143418095Y-109707200D01*
X143418095Y-109707200D02*
X143370476Y-109659580D01*
X137903333Y-100439580D02*
X137855714Y-100487200D01*
X137855714Y-100487200D02*
X137712857Y-100534819D01*
X137712857Y-100534819D02*
X137617619Y-100534819D01*
X137617619Y-100534819D02*
X137474762Y-100487200D01*
X137474762Y-100487200D02*
X137379524Y-100391961D01*
X137379524Y-100391961D02*
X137331905Y-100296723D01*
X137331905Y-100296723D02*
X137284286Y-100106247D01*
X137284286Y-100106247D02*
X137284286Y-99963390D01*
X137284286Y-99963390D02*
X137331905Y-99772914D01*
X137331905Y-99772914D02*
X137379524Y-99677676D01*
X137379524Y-99677676D02*
X137474762Y-99582438D01*
X137474762Y-99582438D02*
X137617619Y-99534819D01*
X137617619Y-99534819D02*
X137712857Y-99534819D01*
X137712857Y-99534819D02*
X137855714Y-99582438D01*
X137855714Y-99582438D02*
X137903333Y-99630057D01*
X138760476Y-99534819D02*
X138570000Y-99534819D01*
X138570000Y-99534819D02*
X138474762Y-99582438D01*
X138474762Y-99582438D02*
X138427143Y-99630057D01*
X138427143Y-99630057D02*
X138331905Y-99772914D01*
X138331905Y-99772914D02*
X138284286Y-99963390D01*
X138284286Y-99963390D02*
X138284286Y-100344342D01*
X138284286Y-100344342D02*
X138331905Y-100439580D01*
X138331905Y-100439580D02*
X138379524Y-100487200D01*
X138379524Y-100487200D02*
X138474762Y-100534819D01*
X138474762Y-100534819D02*
X138665238Y-100534819D01*
X138665238Y-100534819D02*
X138760476Y-100487200D01*
X138760476Y-100487200D02*
X138808095Y-100439580D01*
X138808095Y-100439580D02*
X138855714Y-100344342D01*
X138855714Y-100344342D02*
X138855714Y-100106247D01*
X138855714Y-100106247D02*
X138808095Y-100011009D01*
X138808095Y-100011009D02*
X138760476Y-99963390D01*
X138760476Y-99963390D02*
X138665238Y-99915771D01*
X138665238Y-99915771D02*
X138474762Y-99915771D01*
X138474762Y-99915771D02*
X138379524Y-99963390D01*
X138379524Y-99963390D02*
X138331905Y-100011009D01*
X138331905Y-100011009D02*
X138284286Y-100106247D01*
X133323333Y-61699580D02*
X133275714Y-61747200D01*
X133275714Y-61747200D02*
X133132857Y-61794819D01*
X133132857Y-61794819D02*
X133037619Y-61794819D01*
X133037619Y-61794819D02*
X132894762Y-61747200D01*
X132894762Y-61747200D02*
X132799524Y-61651961D01*
X132799524Y-61651961D02*
X132751905Y-61556723D01*
X132751905Y-61556723D02*
X132704286Y-61366247D01*
X132704286Y-61366247D02*
X132704286Y-61223390D01*
X132704286Y-61223390D02*
X132751905Y-61032914D01*
X132751905Y-61032914D02*
X132799524Y-60937676D01*
X132799524Y-60937676D02*
X132894762Y-60842438D01*
X132894762Y-60842438D02*
X133037619Y-60794819D01*
X133037619Y-60794819D02*
X133132857Y-60794819D01*
X133132857Y-60794819D02*
X133275714Y-60842438D01*
X133275714Y-60842438D02*
X133323333Y-60890057D01*
X133799524Y-61794819D02*
X133990000Y-61794819D01*
X133990000Y-61794819D02*
X134085238Y-61747200D01*
X134085238Y-61747200D02*
X134132857Y-61699580D01*
X134132857Y-61699580D02*
X134228095Y-61556723D01*
X134228095Y-61556723D02*
X134275714Y-61366247D01*
X134275714Y-61366247D02*
X134275714Y-60985295D01*
X134275714Y-60985295D02*
X134228095Y-60890057D01*
X134228095Y-60890057D02*
X134180476Y-60842438D01*
X134180476Y-60842438D02*
X134085238Y-60794819D01*
X134085238Y-60794819D02*
X133894762Y-60794819D01*
X133894762Y-60794819D02*
X133799524Y-60842438D01*
X133799524Y-60842438D02*
X133751905Y-60890057D01*
X133751905Y-60890057D02*
X133704286Y-60985295D01*
X133704286Y-60985295D02*
X133704286Y-61223390D01*
X133704286Y-61223390D02*
X133751905Y-61318628D01*
X133751905Y-61318628D02*
X133799524Y-61366247D01*
X133799524Y-61366247D02*
X133894762Y-61413866D01*
X133894762Y-61413866D02*
X134085238Y-61413866D01*
X134085238Y-61413866D02*
X134180476Y-61366247D01*
X134180476Y-61366247D02*
X134228095Y-61318628D01*
X134228095Y-61318628D02*
X134275714Y-61223390D01*
X134258095Y-48694819D02*
X134258095Y-47694819D01*
X134258095Y-48171009D02*
X134829523Y-48171009D01*
X134829523Y-48694819D02*
X134829523Y-47694819D01*
X135829523Y-48694819D02*
X135258095Y-48694819D01*
X135543809Y-48694819D02*
X135543809Y-47694819D01*
X135543809Y-47694819D02*
X135448571Y-47837676D01*
X135448571Y-47837676D02*
X135353333Y-47932914D01*
X135353333Y-47932914D02*
X135258095Y-47980533D01*
X135739580Y-69566666D02*
X135787200Y-69614285D01*
X135787200Y-69614285D02*
X135834819Y-69757142D01*
X135834819Y-69757142D02*
X135834819Y-69852380D01*
X135834819Y-69852380D02*
X135787200Y-69995237D01*
X135787200Y-69995237D02*
X135691961Y-70090475D01*
X135691961Y-70090475D02*
X135596723Y-70138094D01*
X135596723Y-70138094D02*
X135406247Y-70185713D01*
X135406247Y-70185713D02*
X135263390Y-70185713D01*
X135263390Y-70185713D02*
X135072914Y-70138094D01*
X135072914Y-70138094D02*
X134977676Y-70090475D01*
X134977676Y-70090475D02*
X134882438Y-69995237D01*
X134882438Y-69995237D02*
X134834819Y-69852380D01*
X134834819Y-69852380D02*
X134834819Y-69757142D01*
X134834819Y-69757142D02*
X134882438Y-69614285D01*
X134882438Y-69614285D02*
X134930057Y-69566666D01*
X134834819Y-69233332D02*
X134834819Y-68566666D01*
X134834819Y-68566666D02*
X135834819Y-68995237D01*
%TO.C,U2*%
D13*
X134940000Y-111415001D02*
X139060000Y-111415001D01*
X134940000Y-111510000D02*
X134940000Y-111415001D01*
X134940000Y-116534999D02*
X134940000Y-116440000D01*
X139060000Y-111415001D02*
X139060000Y-111510000D01*
X139060000Y-116440000D02*
X139060000Y-116534999D01*
X139060000Y-116534999D02*
X134940000Y-116534999D01*
X139840000Y-116775000D02*
X139360000Y-116775000D01*
X139600000Y-116445000D01*
X139840000Y-116775000D01*
G36*
X139840000Y-116775000D02*
G01*
X139360000Y-116775000D01*
X139600000Y-116445000D01*
X139840000Y-116775000D01*
G37*
%TO.C,Q2*%
X145302500Y-112440000D02*
X146822500Y-112440000D01*
X145302500Y-112490000D02*
X145302500Y-112440000D01*
X145302500Y-114390000D02*
X145302500Y-113610000D01*
X145302500Y-115560000D02*
X145302500Y-115510000D01*
X146822500Y-112440000D02*
X146822500Y-113440000D01*
X146822500Y-114560000D02*
X146822500Y-115560000D01*
X146822500Y-115560000D02*
X145302500Y-115560000D01*
X145002500Y-113950000D02*
X144522500Y-113950000D01*
X144762500Y-113620000D01*
X145002500Y-113950000D01*
G36*
X145002500Y-113950000D02*
G01*
X144522500Y-113950000D01*
X144762500Y-113620000D01*
X145002500Y-113950000D01*
G37*
%TO.C,F1*%
X139575000Y-60430000D02*
X140750000Y-60430000D01*
X139575000Y-66680001D02*
X139575000Y-60430000D01*
X139575000Y-66680001D02*
X141150000Y-66680000D01*
X139575000Y-76780000D02*
X139574999Y-83030000D01*
X139575000Y-76780000D02*
X141150000Y-76780000D01*
X140250000Y-76780000D02*
X140250000Y-66680001D01*
X140750000Y-83030000D02*
X139574999Y-83030000D01*
X144750000Y-83030000D02*
X145925001Y-83030000D01*
X145250000Y-76780000D02*
X145250000Y-66680001D01*
X145925000Y-60430000D02*
X144750000Y-60430000D01*
X145925000Y-66680001D02*
X144350000Y-66680000D01*
X145925000Y-66680001D02*
X145925000Y-60430000D01*
X145925000Y-76780000D02*
X144350000Y-76780000D01*
X145925001Y-83030000D02*
X145925000Y-76780000D01*
%TO.C,F2*%
X146600000Y-60380000D02*
X147775000Y-60380000D01*
X146600000Y-66630001D02*
X146600000Y-60380000D01*
X146600000Y-66630001D02*
X148175000Y-66630000D01*
X146600000Y-76730000D02*
X146599999Y-82980000D01*
X146600000Y-76730000D02*
X148175000Y-76730000D01*
X147275000Y-76730000D02*
X147275000Y-66630001D01*
X147775000Y-82980000D02*
X146599999Y-82980000D01*
X151775000Y-82980000D02*
X152950001Y-82980000D01*
X152275000Y-76730000D02*
X152275000Y-66630001D01*
X152950000Y-60380000D02*
X151775000Y-60380000D01*
X152950000Y-66630001D02*
X151375000Y-66630000D01*
X152950000Y-66630001D02*
X152950000Y-60380000D01*
X152950000Y-76730000D02*
X151375000Y-76730000D01*
X152950001Y-82980000D02*
X152950000Y-76730000D01*
%TO.C,J3*%
X145875000Y-43202500D02*
X146465000Y-43202500D01*
X145875000Y-45422500D02*
X146465000Y-45422500D01*
X146465000Y-41102500D02*
X146465000Y-43202500D01*
X146465000Y-41102500D02*
X156585000Y-41102500D01*
X146465000Y-45422500D02*
X146465000Y-50322500D01*
X146465000Y-50322500D02*
X156584999Y-50322500D01*
X156585000Y-41102500D02*
X156585000Y-43202500D01*
X156585000Y-43202500D02*
X157175000Y-43202500D01*
X156585000Y-45422500D02*
X156584999Y-50322500D01*
X156585000Y-45422500D02*
X157175000Y-45422500D01*
X145875000Y-45422500D02*
G75*
G02*
X145875000Y-43202500I0J1110000D01*
G01*
X157175000Y-43202500D02*
G75*
G02*
X157175000Y-45422500I0J-1110000D01*
G01*
%TO.C,Q1*%
X142340000Y-116340000D02*
X143860000Y-116340000D01*
X142340000Y-116390000D02*
X142340000Y-116340000D01*
X142340000Y-118290000D02*
X142340000Y-117510000D01*
X142340000Y-119460000D02*
X142340000Y-119410000D01*
X143860000Y-116340000D02*
X143860000Y-117340000D01*
X143860000Y-118460000D02*
X143860000Y-119460000D01*
X143860000Y-119460000D02*
X142340000Y-119460000D01*
X142040000Y-117850000D02*
X141560000Y-117850000D01*
X141800000Y-117520000D01*
X142040000Y-117850000D01*
G36*
X142040000Y-117850000D02*
G01*
X141560000Y-117850000D01*
X141800000Y-117520000D01*
X142040000Y-117850000D01*
G37*
%TO.C,U3*%
X132325000Y-73555000D02*
X132595000Y-73555000D01*
X132325000Y-79975000D02*
X132325000Y-73555000D01*
X139225000Y-73555000D02*
X138955000Y-73555000D01*
X139225000Y-79975000D02*
X139225000Y-73555000D01*
X139385000Y-72165000D02*
X138915000Y-71825000D01*
X139385000Y-71485000D01*
X139385000Y-72165000D01*
G36*
X139385000Y-72165000D02*
G01*
X138915000Y-71825000D01*
X139385000Y-71485000D01*
X139385000Y-72165000D01*
G37*
%TO.C,R1*%
X138715000Y-107040436D02*
X138715000Y-107494564D01*
X140185000Y-107040436D02*
X140185000Y-107494564D01*
%TO.C,U4*%
D14*
X144322000Y-101269200D02*
X145947600Y-101269200D01*
X145947600Y-98830800D02*
X144322000Y-98830800D01*
%TO.C,J5*%
D13*
X132725000Y-129640000D02*
X132725000Y-133520000D01*
X134695000Y-128470000D02*
X137195000Y-128470000D01*
X134695000Y-134690000D02*
X137195000Y-134690000D01*
X137195000Y-128470000D02*
X137195000Y-129520000D01*
X137195000Y-129520000D02*
X138185000Y-129520000D01*
X137195000Y-134690000D02*
X137195000Y-133640000D01*
%TO.C,C4*%
X148065000Y-109811253D02*
X148065000Y-109288747D01*
X149535000Y-109811253D02*
X149535000Y-109288747D01*
%TO.C,J2*%
D15*
X163725000Y-85250000D02*
X163725000Y-91850000D01*
X163725000Y-91850000D02*
X169100000Y-91850000D01*
X164330000Y-84645000D02*
X163725000Y-85250000D01*
X169100000Y-84050000D02*
X166270200Y-84050000D01*
X169100000Y-85400000D02*
X169100000Y-84050000D01*
X169100000Y-90500000D02*
X169555000Y-90500000D01*
X169100000Y-91850000D02*
X169100000Y-90500000D01*
X169555000Y-85400000D02*
X169100000Y-85400000D01*
X217795000Y-90500000D02*
X218250000Y-90500000D01*
X218250000Y-84050000D02*
X218250000Y-85400000D01*
X218250000Y-84050000D02*
X221079800Y-84050000D01*
X218250000Y-85400000D02*
X217795000Y-85400000D01*
X218250000Y-90500000D02*
X218250000Y-91850000D01*
X223020000Y-84645000D02*
X223625000Y-85250000D01*
X223625000Y-85250000D02*
X223625000Y-91850000D01*
X223625000Y-91850000D02*
X218250000Y-91850000D01*
D16*
X170175000Y-92700000D02*
G75*
G02*
X169975000Y-92700000I-100000J0D01*
G01*
X169975000Y-92700000D02*
G75*
G02*
X170175000Y-92700000I100000J0D01*
G01*
%TO.C,C5*%
D13*
X143811254Y-101765000D02*
X143288748Y-101765000D01*
X143811254Y-103235000D02*
X143288748Y-103235000D01*
%TO.C,J1*%
D15*
X163725000Y-47850000D02*
X163725000Y-54450000D01*
X163725000Y-54450000D02*
X169100000Y-54450000D01*
X164330000Y-47245000D02*
X163725000Y-47850000D01*
X169100000Y-46650000D02*
X166270200Y-46650000D01*
X169100000Y-48000000D02*
X169100000Y-46650000D01*
X169100000Y-53100000D02*
X169555000Y-53100000D01*
X169100000Y-54450000D02*
X169100000Y-53100000D01*
X169555000Y-48000000D02*
X169100000Y-48000000D01*
X217795000Y-53100000D02*
X218250000Y-53100000D01*
X218250000Y-46650000D02*
X218250000Y-48000000D01*
X218250000Y-46650000D02*
X221079800Y-46650000D01*
X218250000Y-48000000D02*
X217795000Y-48000000D01*
X218250000Y-53100000D02*
X218250000Y-54450000D01*
X223020000Y-47245000D02*
X223625000Y-47850000D01*
X223625000Y-47850000D02*
X223625000Y-54450000D01*
X223625000Y-54450000D02*
X218250000Y-54450000D01*
D16*
X170175000Y-55300000D02*
G75*
G02*
X169975000Y-55300000I-100000J0D01*
G01*
X169975000Y-55300000D02*
G75*
G02*
X170175000Y-55300000I100000J0D01*
G01*
%TO.C,D8*%
D13*
X147410000Y-129550000D02*
X141900000Y-129550000D01*
X147410000Y-132850000D02*
X141900000Y-132850000D01*
X147410000Y-132850000D02*
X147410000Y-129550000D01*
%TO.C,Q3*%
X148025000Y-122550000D02*
X149835000Y-122550000D01*
X148025000Y-123915000D02*
X148025000Y-122550000D01*
X158425000Y-122550000D02*
X156615000Y-122550000D01*
X158425000Y-123915000D02*
X158425000Y-122550000D01*
X157044999Y-120065000D02*
X156575000Y-119725000D01*
X157045000Y-119385000D01*
X157044999Y-120065000D01*
G36*
X157044999Y-120065000D02*
G01*
X156575000Y-119725000D01*
X157045000Y-119385000D01*
X157044999Y-120065000D01*
G37*
%TO.C,R7*%
X151265000Y-104139564D02*
X151265000Y-103685436D01*
X152735000Y-104139564D02*
X152735000Y-103685436D01*
%TO.C,R3*%
X132715000Y-107040436D02*
X132715000Y-107494564D01*
X134185000Y-107040436D02*
X134185000Y-107494564D01*
%TO.C,R56*%
X145465000Y-120460436D02*
X145465000Y-120914564D01*
X146935000Y-120460436D02*
X146935000Y-120914564D01*
%TO.C,R5*%
X135715000Y-102675436D02*
X135715000Y-103129564D01*
X137185000Y-102675436D02*
X137185000Y-103129564D01*
%TO.C,D4*%
X153560000Y-84630000D02*
X153560000Y-76120001D01*
X160060000Y-84630000D02*
X153560000Y-84630000D01*
X160060000Y-84630000D02*
X160060000Y-76120001D01*
%TO.C,C1*%
X134240000Y-88004437D02*
X134240000Y-97460000D01*
X134240000Y-97460000D02*
X137990000Y-97460000D01*
X135304437Y-86940000D02*
X134240000Y-88004437D01*
X135304437Y-86940000D02*
X137990000Y-86940000D01*
X142260000Y-85450000D02*
X142260000Y-86700000D01*
X142884999Y-86075000D02*
X141635000Y-86075000D01*
X143695563Y-86940000D02*
X141010000Y-86940000D01*
X143695563Y-86940000D02*
X144760000Y-88004437D01*
X144760000Y-88004437D02*
X144760000Y-97460000D01*
X144760000Y-97460000D02*
X141010000Y-97460000D01*
%TO.C,R6*%
X138765000Y-102675436D02*
X138765000Y-103129564D01*
X140235000Y-102675436D02*
X140235000Y-103129564D01*
%TO.C,R12*%
X142265000Y-111685436D02*
X142265000Y-112139564D01*
X143735000Y-111685436D02*
X143735000Y-112139564D01*
%TO.C,R2*%
X135715000Y-107040436D02*
X135715000Y-107494564D01*
X137185000Y-107040436D02*
X137185000Y-107494564D01*
%TO.C,D7*%
X147410000Y-125950000D02*
X141900000Y-125950000D01*
X147410000Y-129250000D02*
X141900000Y-129250000D01*
X147410000Y-129250000D02*
X147410000Y-125950000D01*
%TO.C,J4*%
D15*
X163850000Y-129450000D02*
X163850000Y-136050000D01*
X163850000Y-136050000D02*
X169225000Y-136050000D01*
X164455000Y-128845000D02*
X163850000Y-129450000D01*
X169225000Y-128250000D02*
X166395200Y-128250000D01*
X169225000Y-129600000D02*
X169225000Y-128250000D01*
X169225000Y-134700000D02*
X169680000Y-134700000D01*
X169225000Y-136050000D02*
X169225000Y-134700000D01*
X169680000Y-129600000D02*
X169225000Y-129600000D01*
X217920000Y-134700000D02*
X218375000Y-134700000D01*
X218375000Y-128250000D02*
X218375000Y-129600000D01*
X218375000Y-128250000D02*
X221204800Y-128250000D01*
X218375000Y-129600000D02*
X217920000Y-129600000D01*
X218375000Y-134700000D02*
X218375000Y-136050000D01*
X223145000Y-128845000D02*
X223750000Y-129450000D01*
X223750000Y-129450000D02*
X223750000Y-136050000D01*
X223750000Y-136050000D02*
X218375000Y-136050000D01*
D16*
X170300000Y-136900000D02*
G75*
G02*
X170100000Y-136900000I-100000J0D01*
G01*
X170100000Y-136900000D02*
G75*
G02*
X170300000Y-136900000I100000J0D01*
G01*
%TO.C,R4*%
D13*
X132715000Y-102675436D02*
X132715000Y-103129564D01*
X134185000Y-102675436D02*
X134185000Y-103129564D01*
%TO.C,D6*%
X154890000Y-104589999D02*
X154890000Y-108999999D01*
X157110000Y-104589999D02*
X154890000Y-104589999D01*
X157110000Y-108999999D02*
X157110000Y-104589999D01*
%TO.C,C3*%
X158265000Y-103863747D02*
X158265000Y-104386253D01*
X159735000Y-103863747D02*
X159735000Y-104386253D01*
%TO.C,C2*%
X147240000Y-88004437D02*
X147240000Y-97460000D01*
X147240000Y-97460000D02*
X150990000Y-97460000D01*
X148304437Y-86940000D02*
X147240000Y-88004437D01*
X148304437Y-86940000D02*
X150990000Y-86940000D01*
X155260000Y-85450000D02*
X155260000Y-86700000D01*
X155884999Y-86075000D02*
X154635000Y-86075000D01*
X156695563Y-86940000D02*
X154010000Y-86940000D01*
X156695563Y-86940000D02*
X157760000Y-88004437D01*
X157760000Y-88004437D02*
X157760000Y-97460000D01*
X157760000Y-97460000D02*
X154010000Y-97460000D01*
%TO.C,C10*%
X137315000Y-65221252D02*
X137315000Y-64698748D01*
X138785000Y-65221252D02*
X138785000Y-64698748D01*
%TO.C,D2*%
X182850000Y-74590000D02*
X182850000Y-80100000D01*
X186150000Y-74590000D02*
X182850000Y-74590000D01*
X186150000Y-74590000D02*
X186150000Y-80100000D01*
%TO.C,RV1*%
X133485000Y-123375000D02*
X133485000Y-120320000D01*
X135055000Y-118835000D02*
X138485000Y-118835000D01*
X135945000Y-123375000D02*
X133485000Y-123375000D01*
X140055000Y-120320000D02*
X140055000Y-123375000D01*
X140055000Y-123375000D02*
X137595000Y-123375000D01*
%TO.C,U1*%
D15*
X146750000Y-103065000D02*
X146750000Y-103365000D01*
X146750000Y-103065000D02*
X147050000Y-103065000D01*
X146750000Y-106065000D02*
X146750000Y-105765000D01*
X146750000Y-106065000D02*
X147050000Y-106065000D01*
X149750000Y-103065000D02*
X149450000Y-103065000D01*
X149750000Y-103065000D02*
X149750000Y-103365000D01*
X149750000Y-106065000D02*
X149450000Y-106065000D01*
X149750000Y-106065000D02*
X149750000Y-105765000D01*
D16*
X145875000Y-103615000D02*
G75*
G02*
X145675000Y-103615000I-100000J0D01*
G01*
X145675000Y-103615000D02*
G75*
G02*
X145875000Y-103615000I100000J0D01*
G01*
%TO.C,R10*%
D13*
X150265000Y-109685436D02*
X150265000Y-110139564D01*
X151735000Y-109685436D02*
X151735000Y-110139564D01*
%TO.C,R58*%
X138442936Y-109465000D02*
X138897064Y-109465000D01*
X138442936Y-110935000D02*
X138897064Y-110935000D01*
%TO.C,C8*%
X137315000Y-68886252D02*
X137315000Y-68363748D01*
X138785000Y-68886252D02*
X138785000Y-68363748D01*
%TO.C,D9*%
X141130000Y-54080000D02*
X135620000Y-54080000D01*
X141130000Y-57380000D02*
X135620000Y-57380000D01*
X141130000Y-57380000D02*
X141130000Y-54080000D01*
%TO.C,R8*%
X143010000Y-123607064D02*
X143010000Y-123152936D01*
X144480000Y-123607064D02*
X144480000Y-123152936D01*
%TO.C,J6*%
X138490000Y-135915000D02*
X139540000Y-135915000D01*
X138490000Y-138415000D02*
X138490000Y-135915000D01*
X139540000Y-135915000D02*
X139540000Y-134925000D01*
X139660000Y-140385000D02*
X143540000Y-140385000D01*
X144710000Y-135915000D02*
X143660000Y-135915000D01*
X144710000Y-138415000D02*
X144710000Y-135915000D01*
%TO.C,D3*%
X182950000Y-118690000D02*
X182950000Y-124200000D01*
X186250000Y-118690000D02*
X182950000Y-118690000D01*
X186250000Y-118690000D02*
X186250000Y-124200000D01*
%TO.C,R11*%
X158265000Y-108314564D02*
X158265000Y-107860436D01*
X159735000Y-108314564D02*
X159735000Y-107860436D01*
%TO.C,R9*%
X152765000Y-107860436D02*
X152765000Y-108314564D01*
X154235000Y-107860436D02*
X154235000Y-108314564D01*
%TO.C,D5*%
X140365000Y-121700000D02*
X140365000Y-125585000D01*
X140365000Y-125585000D02*
X142635000Y-125585000D01*
X142635000Y-125585000D02*
X142635000Y-121700000D01*
%TO.C,D1*%
X179700200Y-41199800D02*
X179700200Y-44499800D01*
X179700200Y-41199800D02*
X185210200Y-41199800D01*
X179700200Y-44499800D02*
X185210200Y-44499800D01*
%TO.C,U3*%
X144490000Y-108952500D02*
X144540000Y-108952500D01*
X144490000Y-110772500D02*
X144490000Y-108952500D01*
X144540000Y-110772500D02*
X144490000Y-110772500D01*
X146440000Y-110772500D02*
X145660000Y-110772500D01*
X147560000Y-108952500D02*
X147610000Y-108952500D01*
X147610000Y-108952500D02*
X147610000Y-110772500D01*
X147610000Y-110772500D02*
X147560000Y-110772500D01*
X147890000Y-108652500D02*
X147560000Y-108412500D01*
X147890000Y-108172500D01*
X147890000Y-108652500D01*
G36*
X147890000Y-108652500D02*
G01*
X147560000Y-108412500D01*
X147890000Y-108172500D01*
X147890000Y-108652500D01*
G37*
%TO.C,C6*%
X141711252Y-99365000D02*
X141188748Y-99365000D01*
X141711252Y-100835000D02*
X141188748Y-100835000D01*
%TO.C,C9*%
X132755000Y-65211252D02*
X132755000Y-64688748D01*
X134225000Y-65211252D02*
X134225000Y-64688748D01*
%TO.C,C7*%
X132775000Y-68901252D02*
X132775000Y-68378748D01*
X134245000Y-68901252D02*
X134245000Y-68378748D01*
%TD*%
M02*
