%TF.GenerationSoftware,KiCad,Pcbnew,10.0.1-1.fc44*%
%TF.CreationDate,2026-05-23T22:45:57+02:00*%
%TF.ProjectId,resonance_converter_controller_mb,7265736f-6e61-46e6-9365-5f636f6e7665,rev?*%
%TF.SameCoordinates,Original*%
%TF.FileFunction,Soldermask,Bot*%
%TF.FilePolarity,Negative*%
%FSLAX46Y46*%
G04 Gerber Fmt 4.6, Leading zero omitted, Abs format (unit mm)*
G04 Created by KiCad (PCBNEW 10.0.1-1.fc44) date 2026-05-23 22:45:57*
%MOMM*%
%LPD*%
G01*
G04 APERTURE LIST*
G04 Aperture macros list*
%AMRoundRect*
0 Rectangle with rounded corners*
0 $1 Rounding radius*
0 $2 $3 $4 $5 $6 $7 $8 $9 X,Y pos of 4 corners*
0 Add a 4 corners polygon primitive as box body*
4,1,4,$2,$3,$4,$5,$6,$7,$8,$9,$2,$3,0*
0 Add four circle primitives for the rounded corners*
1,1,$1+$1,$2,$3*
1,1,$1+$1,$4,$5*
1,1,$1+$1,$6,$7*
1,1,$1+$1,$8,$9*
0 Add four rect primitives between the rounded corners*
20,1,$1+$1,$2,$3,$4,$5,0*
20,1,$1+$1,$4,$5,$6,$7,0*
20,1,$1+$1,$6,$7,$8,$9,0*
20,1,$1+$1,$8,$9,$2,$3,0*%
G04 Aperture macros list end*
%ADD10RoundRect,0.875000X-0.875000X0.875000X-0.875000X-0.875000X0.875000X-0.875000X0.875000X0.875000X0*%
%ADD11RoundRect,0.675000X-0.675000X0.675000X-0.675000X-0.675000X0.675000X-0.675000X0.675000X0.675000X0*%
%ADD12C,2.700000*%
%ADD13C,3.500000*%
%ADD14C,1.400000*%
%ADD15RoundRect,0.770000X-0.980000X-0.980000X0.980000X-0.980000X0.980000X0.980000X-0.980000X0.980000X0*%
%ADD16O,1.604000X2.404000*%
%ADD17O,1.604000X1.804000*%
%ADD18O,1.604000X2.604000*%
%ADD19C,0.700000*%
%ADD20C,4.400000*%
G04 APERTURE END LIST*
D10*
%TO.C,F1*%
X142750000Y-60175000D03*
D11*
X142750000Y-66935000D03*
D12*
X142750000Y-76525000D03*
D13*
X142750000Y-83285000D03*
%TD*%
D10*
%TO.C,F2*%
X149775000Y-60125000D03*
D11*
X149775000Y-66885000D03*
D12*
X149775000Y-76475000D03*
D13*
X149775000Y-83235000D03*
%TD*%
D14*
%TO.C,J3*%
X146025000Y-44312500D03*
X157025000Y-44312500D03*
D15*
X154025000Y-54312500D03*
D13*
X149025000Y-54312500D03*
%TD*%
D16*
%TO.C,J2*%
X165350000Y-85400000D03*
D17*
X165350000Y-90500000D03*
D16*
X222000000Y-85400000D03*
D17*
X222000000Y-90500000D03*
D18*
X168475000Y-87950000D03*
X218875000Y-87950000D03*
%TD*%
D16*
%TO.C,J1*%
X165350000Y-48000000D03*
D17*
X165350000Y-53100000D03*
D16*
X222000000Y-48000000D03*
D17*
X222000000Y-53100000D03*
D18*
X168475000Y-50550000D03*
X218875000Y-50550000D03*
%TD*%
D19*
%TO.C,H2*%
X133350000Y-138000000D03*
X133833274Y-136833274D03*
X133833274Y-139166726D03*
X135000000Y-136350000D03*
D20*
X135000000Y-138000000D03*
D19*
X135000000Y-139650000D03*
X136166726Y-136833274D03*
X136166726Y-139166726D03*
X136650000Y-138000000D03*
%TD*%
D16*
%TO.C,J4*%
X165475000Y-129600000D03*
D17*
X165475000Y-134700000D03*
D16*
X222125000Y-129600000D03*
D17*
X222125000Y-134700000D03*
D18*
X168600000Y-132150000D03*
X219000000Y-132150000D03*
%TD*%
D19*
%TO.C,H6*%
X227350000Y-138000000D03*
X227833274Y-136833274D03*
X227833274Y-139166726D03*
X229000000Y-136350000D03*
D20*
X229000000Y-138000000D03*
D19*
X229000000Y-139650000D03*
X230166726Y-136833274D03*
X230166726Y-139166726D03*
X230650000Y-138000000D03*
%TD*%
%TO.C,H3*%
X227350000Y-44000000D03*
X227833274Y-42833274D03*
X227833274Y-45166726D03*
X229000000Y-42350000D03*
D20*
X229000000Y-44000000D03*
D19*
X229000000Y-45650000D03*
X230166726Y-42833274D03*
X230166726Y-45166726D03*
X230650000Y-44000000D03*
%TD*%
%TO.C,H1*%
X133350000Y-44000000D03*
X133833274Y-42833274D03*
X133833274Y-45166726D03*
X135000000Y-42350000D03*
D20*
X135000000Y-44000000D03*
D19*
X135000000Y-45650000D03*
X136166726Y-42833274D03*
X136166726Y-45166726D03*
X136650000Y-44000000D03*
%TD*%
M02*
