%TF.GenerationSoftware,KiCad,Pcbnew,10.0.1-1.fc44*%
%TF.CreationDate,2026-05-23T22:29:22+02:00*%
%TF.ProjectId,resonance_converter_controller_io,7265736f-6e61-46e6-9365-5f636f6e7665,rev?*%
%TF.SameCoordinates,Original*%
%TF.FileFunction,Paste,Top*%
%TF.FilePolarity,Positive*%
%FSLAX46Y46*%
G04 Gerber Fmt 4.6, Leading zero omitted, Abs format (unit mm)*
G04 Created by KiCad (PCBNEW 10.0.1-1.fc44) date 2026-05-23 22:29:22*
%MOMM*%
%LPD*%
G01*
G04 APERTURE LIST*
G04 Aperture macros list*
%AMRoundRect*
0 Rectangle with rounded corners*
0 $1 Rounding radius*
0 $2 $3 $4 $5 $6 $7 $8 $9 X,Y pos of 4 corners*
0 Add a 4 corners polygon primitive as box body*
4,1,4,$2,$3,$4,$5,$6,$7,$8,$9,$2,$3,0*
0 Add four circle primitives for the rounded corners*
1,1,$1+$1,$2,$3*
1,1,$1+$1,$4,$5*
1,1,$1+$1,$6,$7*
1,1,$1+$1,$8,$9*
0 Add four rect primitives between the rounded corners*
20,1,$1+$1,$2,$3,$4,$5,0*
20,1,$1+$1,$4,$5,$6,$7,0*
20,1,$1+$1,$6,$7,$8,$9,0*
20,1,$1+$1,$8,$9,$2,$3,0*%
G04 Aperture macros list end*
%ADD10C,0.010000*%
%ADD11RoundRect,0.140000X0.140000X0.170000X-0.140000X0.170000X-0.140000X-0.170000X0.140000X-0.170000X0*%
%ADD12RoundRect,0.250000X0.325000X0.650000X-0.325000X0.650000X-0.325000X-0.650000X0.325000X-0.650000X0*%
%ADD13R,2.000000X1.600000*%
%ADD14RoundRect,0.033750X-0.396250X-0.101250X0.396250X-0.101250X0.396250X0.101250X-0.396250X0.101250X0*%
%ADD15RoundRect,0.033750X-0.101250X-0.396250X0.101250X-0.396250X0.101250X0.396250X-0.101250X0.396250X0*%
%ADD16RoundRect,0.150000X0.150000X-0.512500X0.150000X0.512500X-0.150000X0.512500X-0.150000X-0.512500X0*%
%ADD17RoundRect,0.135000X-0.185000X0.135000X-0.185000X-0.135000X0.185000X-0.135000X0.185000X0.135000X0*%
%ADD18RoundRect,0.135000X0.185000X-0.135000X0.185000X0.135000X-0.185000X0.135000X-0.185000X-0.135000X0*%
%ADD19RoundRect,0.135000X-0.135000X-0.185000X0.135000X-0.185000X0.135000X0.185000X-0.135000X0.185000X0*%
%ADD20RoundRect,0.140000X0.170000X-0.140000X0.170000X0.140000X-0.170000X0.140000X-0.170000X-0.140000X0*%
%ADD21RoundRect,0.250000X-1.075000X0.375000X-1.075000X-0.375000X1.075000X-0.375000X1.075000X0.375000X0*%
%ADD22RoundRect,0.140000X-0.140000X-0.170000X0.140000X-0.170000X0.140000X0.170000X-0.140000X0.170000X0*%
%ADD23RoundRect,0.250000X-0.325000X-0.650000X0.325000X-0.650000X0.325000X0.650000X-0.325000X0.650000X0*%
%ADD24R,2.000000X1.900000*%
%ADD25RoundRect,0.250000X1.000000X0.650000X-1.000000X0.650000X-1.000000X-0.650000X1.000000X-0.650000X0*%
G04 APERTURE END LIST*
D10*
%TO.C,U1*%
X105356000Y-111871000D02*
X104344000Y-111871000D01*
X104344000Y-110859000D01*
X105356000Y-110859000D01*
X105356000Y-111871000D01*
G36*
X105356000Y-111871000D02*
G01*
X104344000Y-111871000D01*
X104344000Y-110859000D01*
X105356000Y-110859000D01*
X105356000Y-111871000D01*
G37*
%TD*%
D11*
%TO.C,C5*%
X107300000Y-115150000D03*
X106340000Y-115150000D03*
%TD*%
D12*
%TO.C,C50*%
X102650000Y-118350000D03*
X99700000Y-118350000D03*
%TD*%
D13*
%TO.C,SW4*%
X142300000Y-64250000D03*
X136900000Y-64250000D03*
%TD*%
D14*
%TO.C,U1*%
X103415000Y-110615000D03*
X103415000Y-111115000D03*
X103415000Y-111615000D03*
X103415000Y-112115000D03*
D15*
X104100000Y-112800000D03*
X104600000Y-112800000D03*
X105100000Y-112800000D03*
X105600000Y-112800000D03*
D14*
X106285000Y-112115000D03*
X106285000Y-111615000D03*
X106285000Y-111115000D03*
X106285000Y-110615000D03*
D15*
X105600000Y-109930000D03*
X105100000Y-109930000D03*
X104600000Y-109930000D03*
X104100000Y-109930000D03*
%TD*%
D16*
%TO.C,U2*%
X102500000Y-85825000D03*
X103450000Y-85825000D03*
X104400000Y-85825000D03*
X104400000Y-83550000D03*
X102500000Y-83550000D03*
%TD*%
D12*
%TO.C,C13*%
X103950000Y-91950000D03*
X101000000Y-91950000D03*
%TD*%
D17*
%TO.C,R1*%
X101650000Y-110780000D03*
X101650000Y-111800000D03*
%TD*%
D11*
%TO.C,C15*%
X134900000Y-64250000D03*
X133940000Y-64250000D03*
%TD*%
D18*
%TO.C,R11*%
X106100000Y-88950000D03*
X106100000Y-87930000D03*
%TD*%
D19*
%TO.C,R7*%
X133100000Y-117650000D03*
X134120000Y-117650000D03*
%TD*%
D12*
%TO.C,C12*%
X103950000Y-94350000D03*
X101000000Y-94350000D03*
%TD*%
D20*
%TO.C,C9*%
X102200000Y-109530000D03*
X102200000Y-108570000D03*
%TD*%
D21*
%TO.C,L1*%
X99900000Y-83350000D03*
X99900000Y-86150000D03*
%TD*%
D22*
%TO.C,C3*%
X126800000Y-111150000D03*
X127760000Y-111150000D03*
%TD*%
%TO.C,C1*%
X126800000Y-119150000D03*
X127760000Y-119150000D03*
%TD*%
D13*
%TO.C,SW2*%
X101200000Y-64150000D03*
X106600000Y-64150000D03*
%TD*%
D11*
%TO.C,C4*%
X107300000Y-119150000D03*
X106340000Y-119150000D03*
%TD*%
D23*
%TO.C,C41*%
X101550000Y-80250000D03*
X104500000Y-80250000D03*
%TD*%
D17*
%TO.C,R4*%
X100550000Y-112800000D03*
X100550000Y-113820000D03*
%TD*%
D13*
%TO.C,SW5*%
X114250000Y-64150000D03*
X119650000Y-64150000D03*
%TD*%
D11*
%TO.C,C19*%
X148000000Y-64300000D03*
X147040000Y-64300000D03*
%TD*%
D17*
%TO.C,R14*%
X99450000Y-112800000D03*
X99450000Y-113820000D03*
%TD*%
D24*
%TO.C,S1*%
X109700000Y-111150000D03*
X109700000Y-115150000D03*
X109700000Y-119150000D03*
X124700000Y-111150000D03*
X124700000Y-115150000D03*
X124700000Y-119150000D03*
%TD*%
D17*
%TO.C,R3*%
X100550000Y-110780000D03*
X100550000Y-111800000D03*
%TD*%
D20*
%TO.C,C14*%
X153300000Y-115630000D03*
X153300000Y-114670000D03*
%TD*%
D18*
%TO.C,R12*%
X106100000Y-86950000D03*
X106100000Y-85930000D03*
%TD*%
D11*
%TO.C,C7*%
X134100000Y-111400000D03*
X133140000Y-111400000D03*
%TD*%
D22*
%TO.C,C11*%
X103100000Y-81950000D03*
X104060000Y-81950000D03*
%TD*%
%TO.C,C2*%
X126800000Y-115150000D03*
X127760000Y-115150000D03*
%TD*%
D25*
%TO.C,D1*%
X103900000Y-88950000D03*
X99900000Y-88950000D03*
%TD*%
D17*
%TO.C,R2*%
X101650000Y-112800000D03*
X101650000Y-113820000D03*
%TD*%
D11*
%TO.C,C6*%
X134090000Y-118750000D03*
X133130000Y-118750000D03*
%TD*%
D13*
%TO.C,SW3*%
X155500000Y-64250000D03*
X150100000Y-64250000D03*
%TD*%
D19*
%TO.C,R8*%
X133100000Y-112650000D03*
X134120000Y-112650000D03*
%TD*%
D17*
%TO.C,R5*%
X99450000Y-110800000D03*
X99450000Y-111820000D03*
%TD*%
D22*
%TO.C,C20*%
X108800000Y-65300000D03*
X109760000Y-65300000D03*
%TD*%
%TO.C,C8*%
X121600000Y-64150000D03*
X122560000Y-64150000D03*
%TD*%
M02*
