%TF.GenerationSoftware,KiCad,Pcbnew,10.0.1-1.fc44*%
%TF.CreationDate,2026-05-23T22:29:23+02:00*%
%TF.ProjectId,resonance_converter_controller_io,7265736f-6e61-46e6-9365-5f636f6e7665,rev?*%
%TF.SameCoordinates,Original*%
%TF.FileFunction,Soldermask,Bot*%
%TF.FilePolarity,Negative*%
%FSLAX46Y46*%
G04 Gerber Fmt 4.6, Leading zero omitted, Abs format (unit mm)*
G04 Created by KiCad (PCBNEW 10.0.1-1.fc44) date 2026-05-23 22:29:23*
%MOMM*%
%LPD*%
G01*
G04 APERTURE LIST*
G04 Aperture macros list*
%AMRoundRect*
0 Rectangle with rounded corners*
0 $1 Rounding radius*
0 $2 $3 $4 $5 $6 $7 $8 $9 X,Y pos of 4 corners*
0 Add a 4 corners polygon primitive as box body*
4,1,4,$2,$3,$4,$5,$6,$7,$8,$9,$2,$3,0*
0 Add four circle primitives for the rounded corners*
1,1,$1+$1,$2,$3*
1,1,$1+$1,$4,$5*
1,1,$1+$1,$6,$7*
1,1,$1+$1,$8,$9*
0 Add four rect primitives between the rounded corners*
20,1,$1+$1,$2,$3,$4,$5,0*
20,1,$1+$1,$4,$5,$6,$7,0*
20,1,$1+$1,$6,$7,$8,$9,0*
20,1,$1+$1,$8,$9,$2,$3,0*%
G04 Aperture macros list end*
%ADD10C,0.010000*%
%ADD11C,0.700000*%
%ADD12C,4.400000*%
%ADD13RoundRect,0.250000X1.550000X-0.650000X1.550000X0.650000X-1.550000X0.650000X-1.550000X-0.650000X0*%
%ADD14O,3.600000X1.800000*%
%ADD15C,1.600000*%
%ADD16O,2.200000X1.600000*%
%ADD17C,2.100000*%
%ADD18R,2.000000X2.000000*%
%ADD19C,2.000000*%
%ADD20R,3.200000X2.000000*%
%ADD21C,2.374900*%
%ADD22C,0.990600*%
%ADD23RoundRect,0.250000X0.250000X0.475000X-0.250000X0.475000X-0.250000X-0.475000X0.250000X-0.475000X0*%
%ADD24RoundRect,0.102000X0.400000X0.900000X-0.400000X0.900000X-0.400000X-0.900000X0.400000X-0.900000X0*%
%ADD25RoundRect,0.250000X-0.475000X0.250000X-0.475000X-0.250000X0.475000X-0.250000X0.475000X0.250000X0*%
%ADD26RoundRect,0.250000X-0.250000X-0.475000X0.250000X-0.475000X0.250000X0.475000X-0.250000X0.475000X0*%
%ADD27RoundRect,0.135000X-0.135000X-0.185000X0.135000X-0.185000X0.135000X0.185000X-0.135000X0.185000X0*%
%ADD28R,0.300000X1.300000*%
%ADD29R,1.800000X2.200000*%
%ADD30R,0.250000X1.500000*%
%ADD31RoundRect,0.250000X-0.450000X0.262500X-0.450000X-0.262500X0.450000X-0.262500X0.450000X0.262500X0*%
G04 APERTURE END LIST*
D10*
%TO.C,J1*%
X131450000Y-83250000D02*
X131050000Y-83250000D01*
X131050000Y-81550000D01*
X131450000Y-81550000D01*
X131450000Y-83250000D01*
G36*
X131450000Y-83250000D02*
G01*
X131050000Y-83250000D01*
X131050000Y-81550000D01*
X131450000Y-81550000D01*
X131450000Y-83250000D01*
G37*
X131450000Y-86850000D02*
X131050000Y-86850000D01*
X131050000Y-85150000D01*
X131450000Y-85150000D01*
X131450000Y-86850000D01*
G36*
X131450000Y-86850000D02*
G01*
X131050000Y-86850000D01*
X131050000Y-85150000D01*
X131450000Y-85150000D01*
X131450000Y-86850000D01*
G37*
X131950000Y-83250000D02*
X131550000Y-83250000D01*
X131550000Y-81550000D01*
X131950000Y-81550000D01*
X131950000Y-83250000D01*
G36*
X131950000Y-83250000D02*
G01*
X131550000Y-83250000D01*
X131550000Y-81550000D01*
X131950000Y-81550000D01*
X131950000Y-83250000D01*
G37*
X131950000Y-86850000D02*
X131550000Y-86850000D01*
X131550000Y-85150000D01*
X131950000Y-85150000D01*
X131950000Y-86850000D01*
G36*
X131950000Y-86850000D02*
G01*
X131550000Y-86850000D01*
X131550000Y-85150000D01*
X131950000Y-85150000D01*
X131950000Y-86850000D01*
G37*
X132450000Y-83250000D02*
X132050000Y-83250000D01*
X132050000Y-81550000D01*
X132450000Y-81550000D01*
X132450000Y-83250000D01*
G36*
X132450000Y-83250000D02*
G01*
X132050000Y-83250000D01*
X132050000Y-81550000D01*
X132450000Y-81550000D01*
X132450000Y-83250000D01*
G37*
X132450000Y-86850000D02*
X132050000Y-86850000D01*
X132050000Y-85150000D01*
X132450000Y-85150000D01*
X132450000Y-86850000D01*
G36*
X132450000Y-86850000D02*
G01*
X132050000Y-86850000D01*
X132050000Y-85150000D01*
X132450000Y-85150000D01*
X132450000Y-86850000D01*
G37*
X132950000Y-83250000D02*
X132550000Y-83250000D01*
X132550000Y-81550000D01*
X132950000Y-81550000D01*
X132950000Y-83250000D01*
G36*
X132950000Y-83250000D02*
G01*
X132550000Y-83250000D01*
X132550000Y-81550000D01*
X132950000Y-81550000D01*
X132950000Y-83250000D01*
G37*
X132950000Y-86850000D02*
X132550000Y-86850000D01*
X132550000Y-85150000D01*
X132950000Y-85150000D01*
X132950000Y-86850000D01*
G36*
X132950000Y-86850000D02*
G01*
X132550000Y-86850000D01*
X132550000Y-85150000D01*
X132950000Y-85150000D01*
X132950000Y-86850000D01*
G37*
X133450000Y-83250000D02*
X133050000Y-83250000D01*
X133050000Y-81550000D01*
X133450000Y-81550000D01*
X133450000Y-83250000D01*
G36*
X133450000Y-83250000D02*
G01*
X133050000Y-83250000D01*
X133050000Y-81550000D01*
X133450000Y-81550000D01*
X133450000Y-83250000D01*
G37*
X133450000Y-86850000D02*
X133050000Y-86850000D01*
X133050000Y-85150000D01*
X133450000Y-85150000D01*
X133450000Y-86850000D01*
G36*
X133450000Y-86850000D02*
G01*
X133050000Y-86850000D01*
X133050000Y-85150000D01*
X133450000Y-85150000D01*
X133450000Y-86850000D01*
G37*
X133950000Y-83250000D02*
X133550000Y-83250000D01*
X133550000Y-81550000D01*
X133950000Y-81550000D01*
X133950000Y-83250000D01*
G36*
X133950000Y-83250000D02*
G01*
X133550000Y-83250000D01*
X133550000Y-81550000D01*
X133950000Y-81550000D01*
X133950000Y-83250000D01*
G37*
X133950000Y-86850000D02*
X133550000Y-86850000D01*
X133550000Y-85150000D01*
X133950000Y-85150000D01*
X133950000Y-86850000D01*
G36*
X133950000Y-86850000D02*
G01*
X133550000Y-86850000D01*
X133550000Y-85150000D01*
X133950000Y-85150000D01*
X133950000Y-86850000D01*
G37*
X134450000Y-83250000D02*
X134050000Y-83250000D01*
X134050000Y-81550000D01*
X134450000Y-81550000D01*
X134450000Y-83250000D01*
G36*
X134450000Y-83250000D02*
G01*
X134050000Y-83250000D01*
X134050000Y-81550000D01*
X134450000Y-81550000D01*
X134450000Y-83250000D01*
G37*
X134450000Y-86850000D02*
X134050000Y-86850000D01*
X134050000Y-85150000D01*
X134450000Y-85150000D01*
X134450000Y-86850000D01*
G36*
X134450000Y-86850000D02*
G01*
X134050000Y-86850000D01*
X134050000Y-85150000D01*
X134450000Y-85150000D01*
X134450000Y-86850000D01*
G37*
X134950000Y-83250000D02*
X134550000Y-83250000D01*
X134550000Y-81550000D01*
X134950000Y-81550000D01*
X134950000Y-83250000D01*
G36*
X134950000Y-83250000D02*
G01*
X134550000Y-83250000D01*
X134550000Y-81550000D01*
X134950000Y-81550000D01*
X134950000Y-83250000D01*
G37*
X134950000Y-86850000D02*
X134550000Y-86850000D01*
X134550000Y-85150000D01*
X134950000Y-85150000D01*
X134950000Y-86850000D01*
G36*
X134950000Y-86850000D02*
G01*
X134550000Y-86850000D01*
X134550000Y-85150000D01*
X134950000Y-85150000D01*
X134950000Y-86850000D01*
G37*
X135450000Y-83250000D02*
X135050000Y-83250000D01*
X135050000Y-81550000D01*
X135450000Y-81550000D01*
X135450000Y-83250000D01*
G36*
X135450000Y-83250000D02*
G01*
X135050000Y-83250000D01*
X135050000Y-81550000D01*
X135450000Y-81550000D01*
X135450000Y-83250000D01*
G37*
X135450000Y-86850000D02*
X135050000Y-86850000D01*
X135050000Y-85150000D01*
X135450000Y-85150000D01*
X135450000Y-86850000D01*
G36*
X135450000Y-86850000D02*
G01*
X135050000Y-86850000D01*
X135050000Y-85150000D01*
X135450000Y-85150000D01*
X135450000Y-86850000D01*
G37*
X135950000Y-83250000D02*
X135550000Y-83250000D01*
X135550000Y-81550000D01*
X135950000Y-81550000D01*
X135950000Y-83250000D01*
G36*
X135950000Y-83250000D02*
G01*
X135550000Y-83250000D01*
X135550000Y-81550000D01*
X135950000Y-81550000D01*
X135950000Y-83250000D01*
G37*
X135950000Y-86850000D02*
X135550000Y-86850000D01*
X135550000Y-85150000D01*
X135950000Y-85150000D01*
X135950000Y-86850000D01*
G36*
X135950000Y-86850000D02*
G01*
X135550000Y-86850000D01*
X135550000Y-85150000D01*
X135950000Y-85150000D01*
X135950000Y-86850000D01*
G37*
%TD*%
D11*
%TO.C,H4*%
X153875000Y-123075000D03*
X154358274Y-121908274D03*
X154358274Y-124241726D03*
X155525000Y-121425000D03*
D12*
X155525000Y-123075000D03*
D11*
X155525000Y-124725000D03*
X156691726Y-121908274D03*
X156691726Y-124241726D03*
X157175000Y-123075000D03*
%TD*%
%TO.C,H2*%
X153875000Y-74775000D03*
X154358274Y-73608274D03*
X154358274Y-75941726D03*
X155525000Y-73125000D03*
D12*
X155525000Y-74775000D03*
D11*
X155525000Y-76425000D03*
X156691726Y-73608274D03*
X156691726Y-75941726D03*
X157175000Y-74775000D03*
%TD*%
%TO.C,H1*%
X126625000Y-64175000D03*
X127108274Y-63008274D03*
X127108274Y-65341726D03*
X128275000Y-62525000D03*
D12*
X128275000Y-64175000D03*
D11*
X128275000Y-65825000D03*
X129441726Y-63008274D03*
X129441726Y-65341726D03*
X129925000Y-64175000D03*
%TD*%
%TO.C,H6*%
X99475000Y-122925000D03*
X99958274Y-121758274D03*
X99958274Y-124091726D03*
X101125000Y-121275000D03*
D12*
X101125000Y-122925000D03*
D11*
X101125000Y-124575000D03*
X102291726Y-121758274D03*
X102291726Y-124091726D03*
X102775000Y-122925000D03*
%TD*%
D13*
%TO.C,J3*%
X154100000Y-104800000D03*
D14*
X154100000Y-101300000D03*
%TD*%
D13*
%TO.C,J4*%
X154100000Y-94732500D03*
D14*
X154100000Y-91232500D03*
%TD*%
D11*
%TO.C,H3*%
X99475000Y-74775000D03*
X99958274Y-73608274D03*
X99958274Y-75941726D03*
X101125000Y-73125000D03*
D12*
X101125000Y-74775000D03*
D11*
X101125000Y-76425000D03*
X102291726Y-73608274D03*
X102291726Y-75941726D03*
X102775000Y-74775000D03*
%TD*%
D15*
%TO.C,S1*%
X114200000Y-118150000D03*
X120200000Y-112150000D03*
%TD*%
D16*
%TO.C,SW1*%
X139500000Y-115150000D03*
D17*
X144000000Y-115150000D03*
D18*
X136500000Y-112650000D03*
D19*
X136500000Y-117650000D03*
X136500000Y-115150000D03*
D20*
X144000000Y-109550000D03*
X144000000Y-120750000D03*
D19*
X151000000Y-117650000D03*
X151000000Y-112650000D03*
%TD*%
D21*
%TO.C,J7*%
X152730000Y-79510000D03*
D22*
X152730000Y-82050000D03*
D21*
X152730000Y-84590000D03*
X155905000Y-79510000D03*
X155905000Y-84590000D03*
D22*
X157810000Y-81034000D03*
X157810000Y-83066000D03*
%TD*%
D23*
%TO.C,C17*%
X125550000Y-95850000D03*
X123650000Y-95850000D03*
%TD*%
D24*
%TO.C,J1*%
X137500000Y-84200000D03*
X129500000Y-84200000D03*
%TD*%
D25*
%TO.C,C16*%
X134050000Y-93900000D03*
X134050000Y-95800000D03*
%TD*%
D26*
%TO.C,C18*%
X120150000Y-95850000D03*
X122050000Y-95850000D03*
%TD*%
D27*
%TO.C,R6*%
X130930000Y-96050000D03*
X131950000Y-96050000D03*
%TD*%
D28*
%TO.C,J2*%
X135550000Y-98000000D03*
X135050000Y-98000000D03*
X134550000Y-98000000D03*
X134050000Y-98000000D03*
X133550000Y-98000000D03*
X133050000Y-98000000D03*
X132550000Y-98000000D03*
X132050000Y-98000000D03*
X131550000Y-98000000D03*
X131050000Y-98000000D03*
X130550000Y-98000000D03*
X130050000Y-98000000D03*
X129550000Y-98000000D03*
X129050000Y-98000000D03*
X128550000Y-98000000D03*
X128050000Y-98000000D03*
X127550000Y-98000000D03*
X127050000Y-98000000D03*
X126550000Y-98000000D03*
X126050000Y-98000000D03*
X125550000Y-98000000D03*
X125050000Y-98000000D03*
X124550000Y-98000000D03*
X124050000Y-98000000D03*
X123550000Y-98000000D03*
X123050000Y-98000000D03*
X122550000Y-98000000D03*
X122050000Y-98000000D03*
X121550000Y-98000000D03*
X121050000Y-98000000D03*
D29*
X137450000Y-101250000D03*
X119150000Y-101250000D03*
%TD*%
D30*
%TO.C,U3*%
X119900000Y-76100000D03*
X119900000Y-72100000D03*
X119400000Y-76100000D03*
X119400000Y-72100000D03*
X118900000Y-76100000D03*
X118900000Y-72100000D03*
X118400000Y-76100000D03*
X118400000Y-72100000D03*
X117900000Y-76100000D03*
X117900000Y-72100000D03*
X117400000Y-76100000D03*
X117400000Y-72100000D03*
X116900000Y-76100000D03*
X116900000Y-72100000D03*
X116400000Y-76100000D03*
X116400000Y-72100000D03*
X115900000Y-76100000D03*
X115900000Y-72100000D03*
X115400000Y-76100000D03*
X115400000Y-72100000D03*
X114900000Y-76100000D03*
X114900000Y-72100000D03*
X114400000Y-76100000D03*
X114400000Y-72100000D03*
X113900000Y-76100000D03*
X113900000Y-72100000D03*
X113400000Y-76100000D03*
X113400000Y-72100000D03*
X112900000Y-76100000D03*
X112900000Y-72100000D03*
X112400000Y-76100000D03*
X112400000Y-72100000D03*
X111900000Y-76100000D03*
X111900000Y-72100000D03*
X111400000Y-76100000D03*
X111400000Y-72100000D03*
X110900000Y-76100000D03*
X110900000Y-72100000D03*
X110400000Y-76100000D03*
X110400000Y-72100000D03*
%TD*%
D31*
%TO.C,R9*%
X116650000Y-97325000D03*
X116650000Y-99150000D03*
%TD*%
D25*
%TO.C,C10*%
X136750000Y-93900000D03*
X136750000Y-95800000D03*
%TD*%
M02*
