%TF.GenerationSoftware,KiCad,Pcbnew,10.0.1-1.fc44*%
%TF.CreationDate,2026-05-23T22:29:23+02:00*%
%TF.ProjectId,resonance_converter_controller_io,7265736f-6e61-46e6-9365-5f636f6e7665,rev?*%
%TF.SameCoordinates,Original*%
%TF.FileFunction,Legend,Bot*%
%TF.FilePolarity,Positive*%
%FSLAX46Y46*%
G04 Gerber Fmt 4.6, Leading zero omitted, Abs format (unit mm)*
G04 Created by KiCad (PCBNEW 10.0.1-1.fc44) date 2026-05-23 22:29:23*
%MOMM*%
%LPD*%
G01*
G04 APERTURE LIST*
%ADD10C,0.150000*%
%ADD11C,0.120000*%
%ADD12C,0.127000*%
%ADD13C,0.200000*%
%ADD14C,0.250000*%
G04 APERTURE END LIST*
D10*
X125242857Y-94529580D02*
X125290476Y-94577200D01*
X125290476Y-94577200D02*
X125433333Y-94624819D01*
X125433333Y-94624819D02*
X125528571Y-94624819D01*
X125528571Y-94624819D02*
X125671428Y-94577200D01*
X125671428Y-94577200D02*
X125766666Y-94481961D01*
X125766666Y-94481961D02*
X125814285Y-94386723D01*
X125814285Y-94386723D02*
X125861904Y-94196247D01*
X125861904Y-94196247D02*
X125861904Y-94053390D01*
X125861904Y-94053390D02*
X125814285Y-93862914D01*
X125814285Y-93862914D02*
X125766666Y-93767676D01*
X125766666Y-93767676D02*
X125671428Y-93672438D01*
X125671428Y-93672438D02*
X125528571Y-93624819D01*
X125528571Y-93624819D02*
X125433333Y-93624819D01*
X125433333Y-93624819D02*
X125290476Y-93672438D01*
X125290476Y-93672438D02*
X125242857Y-93720057D01*
X124290476Y-94624819D02*
X124861904Y-94624819D01*
X124576190Y-94624819D02*
X124576190Y-93624819D01*
X124576190Y-93624819D02*
X124671428Y-93767676D01*
X124671428Y-93767676D02*
X124766666Y-93862914D01*
X124766666Y-93862914D02*
X124861904Y-93910533D01*
X123957142Y-93624819D02*
X123290476Y-93624819D01*
X123290476Y-93624819D02*
X123719047Y-94624819D01*
X135308333Y-79669819D02*
X135308333Y-80384104D01*
X135308333Y-80384104D02*
X135355952Y-80526961D01*
X135355952Y-80526961D02*
X135451190Y-80622200D01*
X135451190Y-80622200D02*
X135594047Y-80669819D01*
X135594047Y-80669819D02*
X135689285Y-80669819D01*
X134308333Y-80669819D02*
X134879761Y-80669819D01*
X134594047Y-80669819D02*
X134594047Y-79669819D01*
X134594047Y-79669819D02*
X134689285Y-79812676D01*
X134689285Y-79812676D02*
X134784523Y-79907914D01*
X134784523Y-79907914D02*
X134879761Y-79955533D01*
X134409580Y-90607142D02*
X134457200Y-90559523D01*
X134457200Y-90559523D02*
X134504819Y-90416666D01*
X134504819Y-90416666D02*
X134504819Y-90321428D01*
X134504819Y-90321428D02*
X134457200Y-90178571D01*
X134457200Y-90178571D02*
X134361961Y-90083333D01*
X134361961Y-90083333D02*
X134266723Y-90035714D01*
X134266723Y-90035714D02*
X134076247Y-89988095D01*
X134076247Y-89988095D02*
X133933390Y-89988095D01*
X133933390Y-89988095D02*
X133742914Y-90035714D01*
X133742914Y-90035714D02*
X133647676Y-90083333D01*
X133647676Y-90083333D02*
X133552438Y-90178571D01*
X133552438Y-90178571D02*
X133504819Y-90321428D01*
X133504819Y-90321428D02*
X133504819Y-90416666D01*
X133504819Y-90416666D02*
X133552438Y-90559523D01*
X133552438Y-90559523D02*
X133600057Y-90607142D01*
X134504819Y-91559523D02*
X134504819Y-90988095D01*
X134504819Y-91273809D02*
X133504819Y-91273809D01*
X133504819Y-91273809D02*
X133647676Y-91178571D01*
X133647676Y-91178571D02*
X133742914Y-91083333D01*
X133742914Y-91083333D02*
X133790533Y-90988095D01*
X133504819Y-92416666D02*
X133504819Y-92226190D01*
X133504819Y-92226190D02*
X133552438Y-92130952D01*
X133552438Y-92130952D02*
X133600057Y-92083333D01*
X133600057Y-92083333D02*
X133742914Y-91988095D01*
X133742914Y-91988095D02*
X133933390Y-91940476D01*
X133933390Y-91940476D02*
X134314342Y-91940476D01*
X134314342Y-91940476D02*
X134409580Y-91988095D01*
X134409580Y-91988095D02*
X134457200Y-92035714D01*
X134457200Y-92035714D02*
X134504819Y-92130952D01*
X134504819Y-92130952D02*
X134504819Y-92321428D01*
X134504819Y-92321428D02*
X134457200Y-92416666D01*
X134457200Y-92416666D02*
X134409580Y-92464285D01*
X134409580Y-92464285D02*
X134314342Y-92511904D01*
X134314342Y-92511904D02*
X134076247Y-92511904D01*
X134076247Y-92511904D02*
X133981009Y-92464285D01*
X133981009Y-92464285D02*
X133933390Y-92416666D01*
X133933390Y-92416666D02*
X133885771Y-92321428D01*
X133885771Y-92321428D02*
X133885771Y-92130952D01*
X133885771Y-92130952D02*
X133933390Y-92035714D01*
X133933390Y-92035714D02*
X133981009Y-91988095D01*
X133981009Y-91988095D02*
X134076247Y-91940476D01*
X121742857Y-94059580D02*
X121790476Y-94107200D01*
X121790476Y-94107200D02*
X121933333Y-94154819D01*
X121933333Y-94154819D02*
X122028571Y-94154819D01*
X122028571Y-94154819D02*
X122171428Y-94107200D01*
X122171428Y-94107200D02*
X122266666Y-94011961D01*
X122266666Y-94011961D02*
X122314285Y-93916723D01*
X122314285Y-93916723D02*
X122361904Y-93726247D01*
X122361904Y-93726247D02*
X122361904Y-93583390D01*
X122361904Y-93583390D02*
X122314285Y-93392914D01*
X122314285Y-93392914D02*
X122266666Y-93297676D01*
X122266666Y-93297676D02*
X122171428Y-93202438D01*
X122171428Y-93202438D02*
X122028571Y-93154819D01*
X122028571Y-93154819D02*
X121933333Y-93154819D01*
X121933333Y-93154819D02*
X121790476Y-93202438D01*
X121790476Y-93202438D02*
X121742857Y-93250057D01*
X120790476Y-94154819D02*
X121361904Y-94154819D01*
X121076190Y-94154819D02*
X121076190Y-93154819D01*
X121076190Y-93154819D02*
X121171428Y-93297676D01*
X121171428Y-93297676D02*
X121266666Y-93392914D01*
X121266666Y-93392914D02*
X121361904Y-93440533D01*
X120219047Y-93583390D02*
X120314285Y-93535771D01*
X120314285Y-93535771D02*
X120361904Y-93488152D01*
X120361904Y-93488152D02*
X120409523Y-93392914D01*
X120409523Y-93392914D02*
X120409523Y-93345295D01*
X120409523Y-93345295D02*
X120361904Y-93250057D01*
X120361904Y-93250057D02*
X120314285Y-93202438D01*
X120314285Y-93202438D02*
X120219047Y-93154819D01*
X120219047Y-93154819D02*
X120028571Y-93154819D01*
X120028571Y-93154819D02*
X119933333Y-93202438D01*
X119933333Y-93202438D02*
X119885714Y-93250057D01*
X119885714Y-93250057D02*
X119838095Y-93345295D01*
X119838095Y-93345295D02*
X119838095Y-93392914D01*
X119838095Y-93392914D02*
X119885714Y-93488152D01*
X119885714Y-93488152D02*
X119933333Y-93535771D01*
X119933333Y-93535771D02*
X120028571Y-93583390D01*
X120028571Y-93583390D02*
X120219047Y-93583390D01*
X120219047Y-93583390D02*
X120314285Y-93631009D01*
X120314285Y-93631009D02*
X120361904Y-93678628D01*
X120361904Y-93678628D02*
X120409523Y-93773866D01*
X120409523Y-93773866D02*
X120409523Y-93964342D01*
X120409523Y-93964342D02*
X120361904Y-94059580D01*
X120361904Y-94059580D02*
X120314285Y-94107200D01*
X120314285Y-94107200D02*
X120219047Y-94154819D01*
X120219047Y-94154819D02*
X120028571Y-94154819D01*
X120028571Y-94154819D02*
X119933333Y-94107200D01*
X119933333Y-94107200D02*
X119885714Y-94059580D01*
X119885714Y-94059580D02*
X119838095Y-93964342D01*
X119838095Y-93964342D02*
X119838095Y-93773866D01*
X119838095Y-93773866D02*
X119885714Y-93678628D01*
X119885714Y-93678628D02*
X119933333Y-93631009D01*
X119933333Y-93631009D02*
X120028571Y-93583390D01*
X131606666Y-95304819D02*
X131939999Y-94828628D01*
X132178094Y-95304819D02*
X132178094Y-94304819D01*
X132178094Y-94304819D02*
X131797142Y-94304819D01*
X131797142Y-94304819D02*
X131701904Y-94352438D01*
X131701904Y-94352438D02*
X131654285Y-94400057D01*
X131654285Y-94400057D02*
X131606666Y-94495295D01*
X131606666Y-94495295D02*
X131606666Y-94638152D01*
X131606666Y-94638152D02*
X131654285Y-94733390D01*
X131654285Y-94733390D02*
X131701904Y-94781009D01*
X131701904Y-94781009D02*
X131797142Y-94828628D01*
X131797142Y-94828628D02*
X132178094Y-94828628D01*
X130749523Y-94304819D02*
X130939999Y-94304819D01*
X130939999Y-94304819D02*
X131035237Y-94352438D01*
X131035237Y-94352438D02*
X131082856Y-94400057D01*
X131082856Y-94400057D02*
X131178094Y-94542914D01*
X131178094Y-94542914D02*
X131225713Y-94733390D01*
X131225713Y-94733390D02*
X131225713Y-95114342D01*
X131225713Y-95114342D02*
X131178094Y-95209580D01*
X131178094Y-95209580D02*
X131130475Y-95257200D01*
X131130475Y-95257200D02*
X131035237Y-95304819D01*
X131035237Y-95304819D02*
X130844761Y-95304819D01*
X130844761Y-95304819D02*
X130749523Y-95257200D01*
X130749523Y-95257200D02*
X130701904Y-95209580D01*
X130701904Y-95209580D02*
X130654285Y-95114342D01*
X130654285Y-95114342D02*
X130654285Y-94876247D01*
X130654285Y-94876247D02*
X130701904Y-94781009D01*
X130701904Y-94781009D02*
X130749523Y-94733390D01*
X130749523Y-94733390D02*
X130844761Y-94685771D01*
X130844761Y-94685771D02*
X131035237Y-94685771D01*
X131035237Y-94685771D02*
X131130475Y-94733390D01*
X131130475Y-94733390D02*
X131178094Y-94781009D01*
X131178094Y-94781009D02*
X131225713Y-94876247D01*
X128633333Y-95604819D02*
X128633333Y-96319104D01*
X128633333Y-96319104D02*
X128680952Y-96461961D01*
X128680952Y-96461961D02*
X128776190Y-96557200D01*
X128776190Y-96557200D02*
X128919047Y-96604819D01*
X128919047Y-96604819D02*
X129014285Y-96604819D01*
X128204761Y-95700057D02*
X128157142Y-95652438D01*
X128157142Y-95652438D02*
X128061904Y-95604819D01*
X128061904Y-95604819D02*
X127823809Y-95604819D01*
X127823809Y-95604819D02*
X127728571Y-95652438D01*
X127728571Y-95652438D02*
X127680952Y-95700057D01*
X127680952Y-95700057D02*
X127633333Y-95795295D01*
X127633333Y-95795295D02*
X127633333Y-95890533D01*
X127633333Y-95890533D02*
X127680952Y-96033390D01*
X127680952Y-96033390D02*
X128252380Y-96604819D01*
X128252380Y-96604819D02*
X127633333Y-96604819D01*
X115911904Y-67554819D02*
X115911904Y-68364342D01*
X115911904Y-68364342D02*
X115864285Y-68459580D01*
X115864285Y-68459580D02*
X115816666Y-68507200D01*
X115816666Y-68507200D02*
X115721428Y-68554819D01*
X115721428Y-68554819D02*
X115530952Y-68554819D01*
X115530952Y-68554819D02*
X115435714Y-68507200D01*
X115435714Y-68507200D02*
X115388095Y-68459580D01*
X115388095Y-68459580D02*
X115340476Y-68364342D01*
X115340476Y-68364342D02*
X115340476Y-67554819D01*
X114959523Y-67554819D02*
X114340476Y-67554819D01*
X114340476Y-67554819D02*
X114673809Y-67935771D01*
X114673809Y-67935771D02*
X114530952Y-67935771D01*
X114530952Y-67935771D02*
X114435714Y-67983390D01*
X114435714Y-67983390D02*
X114388095Y-68031009D01*
X114388095Y-68031009D02*
X114340476Y-68126247D01*
X114340476Y-68126247D02*
X114340476Y-68364342D01*
X114340476Y-68364342D02*
X114388095Y-68459580D01*
X114388095Y-68459580D02*
X114435714Y-68507200D01*
X114435714Y-68507200D02*
X114530952Y-68554819D01*
X114530952Y-68554819D02*
X114816666Y-68554819D01*
X114816666Y-68554819D02*
X114911904Y-68507200D01*
X114911904Y-68507200D02*
X114959523Y-68459580D01*
X115454819Y-98070833D02*
X114978628Y-97737500D01*
X115454819Y-97499405D02*
X114454819Y-97499405D01*
X114454819Y-97499405D02*
X114454819Y-97880357D01*
X114454819Y-97880357D02*
X114502438Y-97975595D01*
X114502438Y-97975595D02*
X114550057Y-98023214D01*
X114550057Y-98023214D02*
X114645295Y-98070833D01*
X114645295Y-98070833D02*
X114788152Y-98070833D01*
X114788152Y-98070833D02*
X114883390Y-98023214D01*
X114883390Y-98023214D02*
X114931009Y-97975595D01*
X114931009Y-97975595D02*
X114978628Y-97880357D01*
X114978628Y-97880357D02*
X114978628Y-97499405D01*
X115454819Y-98547024D02*
X115454819Y-98737500D01*
X115454819Y-98737500D02*
X115407200Y-98832738D01*
X115407200Y-98832738D02*
X115359580Y-98880357D01*
X115359580Y-98880357D02*
X115216723Y-98975595D01*
X115216723Y-98975595D02*
X115026247Y-99023214D01*
X115026247Y-99023214D02*
X114645295Y-99023214D01*
X114645295Y-99023214D02*
X114550057Y-98975595D01*
X114550057Y-98975595D02*
X114502438Y-98927976D01*
X114502438Y-98927976D02*
X114454819Y-98832738D01*
X114454819Y-98832738D02*
X114454819Y-98642262D01*
X114454819Y-98642262D02*
X114502438Y-98547024D01*
X114502438Y-98547024D02*
X114550057Y-98499405D01*
X114550057Y-98499405D02*
X114645295Y-98451786D01*
X114645295Y-98451786D02*
X114883390Y-98451786D01*
X114883390Y-98451786D02*
X114978628Y-98499405D01*
X114978628Y-98499405D02*
X115026247Y-98547024D01*
X115026247Y-98547024D02*
X115073866Y-98642262D01*
X115073866Y-98642262D02*
X115073866Y-98832738D01*
X115073866Y-98832738D02*
X115026247Y-98927976D01*
X115026247Y-98927976D02*
X114978628Y-98975595D01*
X114978628Y-98975595D02*
X114883390Y-99023214D01*
X137109580Y-90607142D02*
X137157200Y-90559523D01*
X137157200Y-90559523D02*
X137204819Y-90416666D01*
X137204819Y-90416666D02*
X137204819Y-90321428D01*
X137204819Y-90321428D02*
X137157200Y-90178571D01*
X137157200Y-90178571D02*
X137061961Y-90083333D01*
X137061961Y-90083333D02*
X136966723Y-90035714D01*
X136966723Y-90035714D02*
X136776247Y-89988095D01*
X136776247Y-89988095D02*
X136633390Y-89988095D01*
X136633390Y-89988095D02*
X136442914Y-90035714D01*
X136442914Y-90035714D02*
X136347676Y-90083333D01*
X136347676Y-90083333D02*
X136252438Y-90178571D01*
X136252438Y-90178571D02*
X136204819Y-90321428D01*
X136204819Y-90321428D02*
X136204819Y-90416666D01*
X136204819Y-90416666D02*
X136252438Y-90559523D01*
X136252438Y-90559523D02*
X136300057Y-90607142D01*
X137204819Y-91559523D02*
X137204819Y-90988095D01*
X137204819Y-91273809D02*
X136204819Y-91273809D01*
X136204819Y-91273809D02*
X136347676Y-91178571D01*
X136347676Y-91178571D02*
X136442914Y-91083333D01*
X136442914Y-91083333D02*
X136490533Y-90988095D01*
X136204819Y-92178571D02*
X136204819Y-92273809D01*
X136204819Y-92273809D02*
X136252438Y-92369047D01*
X136252438Y-92369047D02*
X136300057Y-92416666D01*
X136300057Y-92416666D02*
X136395295Y-92464285D01*
X136395295Y-92464285D02*
X136585771Y-92511904D01*
X136585771Y-92511904D02*
X136823866Y-92511904D01*
X136823866Y-92511904D02*
X137014342Y-92464285D01*
X137014342Y-92464285D02*
X137109580Y-92416666D01*
X137109580Y-92416666D02*
X137157200Y-92369047D01*
X137157200Y-92369047D02*
X137204819Y-92273809D01*
X137204819Y-92273809D02*
X137204819Y-92178571D01*
X137204819Y-92178571D02*
X137157200Y-92083333D01*
X137157200Y-92083333D02*
X137109580Y-92035714D01*
X137109580Y-92035714D02*
X137014342Y-91988095D01*
X137014342Y-91988095D02*
X136823866Y-91940476D01*
X136823866Y-91940476D02*
X136585771Y-91940476D01*
X136585771Y-91940476D02*
X136395295Y-91988095D01*
X136395295Y-91988095D02*
X136300057Y-92035714D01*
X136300057Y-92035714D02*
X136252438Y-92083333D01*
X136252438Y-92083333D02*
X136204819Y-92178571D01*
%TO.C,C17*%
D11*
X124861252Y-95115000D02*
X124338748Y-95115000D01*
X124861252Y-96585000D02*
X124338748Y-96585000D01*
%TO.C,J1*%
D12*
X129900000Y-82300000D02*
X129900000Y-82980000D01*
X129900000Y-86100000D02*
X129900000Y-85420000D01*
X129900000Y-86100000D02*
X130780000Y-86100000D01*
X130780000Y-82300000D02*
X129900000Y-82300000D01*
X136220000Y-86100000D02*
X137100000Y-86100000D01*
X137100000Y-82300000D02*
X136220000Y-82300000D01*
X137100000Y-82980000D02*
X137100000Y-82300000D01*
X137100000Y-86100000D02*
X137100000Y-85420000D01*
D13*
X135850000Y-87550000D02*
G75*
G02*
X135650000Y-87550000I-100000J0D01*
G01*
X135650000Y-87550000D02*
G75*
G02*
X135850000Y-87550000I100000J0D01*
G01*
%TO.C,C16*%
D11*
X133315000Y-94588748D02*
X133315000Y-95111252D01*
X134785000Y-94588748D02*
X134785000Y-95111252D01*
%TO.C,C18*%
X120838748Y-95115000D02*
X121361252Y-95115000D01*
X120838748Y-96585000D02*
X121361252Y-96585000D01*
%TO.C,R6*%
X131286359Y-95670000D02*
X131593641Y-95670000D01*
X131286359Y-96430000D02*
X131593641Y-96430000D01*
%TO.C,J2*%
X119150000Y-98550000D02*
X119150000Y-99890000D01*
X119150000Y-104350000D02*
X119150000Y-102610000D01*
X120640000Y-98550000D02*
X119150000Y-98550000D01*
X135960000Y-98550000D02*
X135960000Y-97350000D01*
X135960000Y-98550000D02*
X137450000Y-98550000D01*
X137450000Y-98550000D02*
X137450000Y-99890000D01*
X137450000Y-102610000D02*
X137450000Y-104350000D01*
X137450000Y-104350000D02*
X119150000Y-104350000D01*
%TO.C,U3*%
D14*
X108550000Y-76200000D02*
X108550000Y-73050000D01*
X109600000Y-72000000D02*
X108550000Y-73050000D01*
X110050000Y-72000000D02*
X109600000Y-72000000D01*
X110050000Y-76200000D02*
X108550000Y-76200000D01*
X120800000Y-72000000D02*
X120260000Y-72000000D01*
X121750000Y-72950000D02*
X120800000Y-72000000D01*
X121750000Y-76200000D02*
X120260000Y-76200000D01*
X121750000Y-76200000D02*
X121750000Y-72950000D01*
%TO.C,R9*%
D11*
X115915000Y-98010436D02*
X115915000Y-98464564D01*
X117385000Y-98010436D02*
X117385000Y-98464564D01*
%TO.C,C10*%
X136015000Y-94588748D02*
X136015000Y-95111252D01*
X137485000Y-94588748D02*
X137485000Y-95111252D01*
%TD*%
M02*
