%TF.GenerationSoftware,KiCad,Pcbnew,10.0.1-1.fc44*%
%TF.CreationDate,2026-05-23T22:29:22+02:00*%
%TF.ProjectId,resonance_converter_controller_io,7265736f-6e61-46e6-9365-5f636f6e7665,rev?*%
%TF.SameCoordinates,Original*%
%TF.FileFunction,Copper,L4,Bot*%
%TF.FilePolarity,Positive*%
%FSLAX46Y46*%
G04 Gerber Fmt 4.6, Leading zero omitted, Abs format (unit mm)*
G04 Created by KiCad (PCBNEW 10.0.1-1.fc44) date 2026-05-23 22:29:22*
%MOMM*%
%LPD*%
G01*
G04 APERTURE LIST*
G04 Aperture macros list*
%AMRoundRect*
0 Rectangle with rounded corners*
0 $1 Rounding radius*
0 $2 $3 $4 $5 $6 $7 $8 $9 X,Y pos of 4 corners*
0 Add a 4 corners polygon primitive as box body*
4,1,4,$2,$3,$4,$5,$6,$7,$8,$9,$2,$3,0*
0 Add four circle primitives for the rounded corners*
1,1,$1+$1,$2,$3*
1,1,$1+$1,$4,$5*
1,1,$1+$1,$6,$7*
1,1,$1+$1,$8,$9*
0 Add four rect primitives between the rounded corners*
20,1,$1+$1,$2,$3,$4,$5,0*
20,1,$1+$1,$4,$5,$6,$7,0*
20,1,$1+$1,$6,$7,$8,$9,0*
20,1,$1+$1,$8,$9,$2,$3,0*%
G04 Aperture macros list end*
%TA.AperFunction,ComponentPad*%
%ADD10C,0.700000*%
%TD*%
%TA.AperFunction,ComponentPad*%
%ADD11C,4.400000*%
%TD*%
%TA.AperFunction,ComponentPad*%
%ADD12C,0.450000*%
%TD*%
%TA.AperFunction,ComponentPad*%
%ADD13RoundRect,0.250000X1.550000X-0.650000X1.550000X0.650000X-1.550000X0.650000X-1.550000X-0.650000X0*%
%TD*%
%TA.AperFunction,ComponentPad*%
%ADD14O,3.600000X1.800000*%
%TD*%
%TA.AperFunction,ComponentPad*%
%ADD15R,2.000000X2.000000*%
%TD*%
%TA.AperFunction,ComponentPad*%
%ADD16C,2.000000*%
%TD*%
%TA.AperFunction,ComponentPad*%
%ADD17R,3.200000X2.000000*%
%TD*%
%TA.AperFunction,SMDPad,CuDef*%
%ADD18RoundRect,0.250000X0.250000X0.475000X-0.250000X0.475000X-0.250000X-0.475000X0.250000X-0.475000X0*%
%TD*%
%TA.AperFunction,SMDPad,CuDef*%
%ADD19R,0.300000X1.600000*%
%TD*%
%TA.AperFunction,SMDPad,CuDef*%
%ADD20R,0.800000X1.800000*%
%TD*%
%TA.AperFunction,SMDPad,CuDef*%
%ADD21RoundRect,0.250000X-0.475000X0.250000X-0.475000X-0.250000X0.475000X-0.250000X0.475000X0.250000X0*%
%TD*%
%TA.AperFunction,SMDPad,CuDef*%
%ADD22RoundRect,0.250000X-0.250000X-0.475000X0.250000X-0.475000X0.250000X0.475000X-0.250000X0.475000X0*%
%TD*%
%TA.AperFunction,SMDPad,CuDef*%
%ADD23RoundRect,0.135000X-0.135000X-0.185000X0.135000X-0.185000X0.135000X0.185000X-0.135000X0.185000X0*%
%TD*%
%TA.AperFunction,SMDPad,CuDef*%
%ADD24R,0.300000X1.300000*%
%TD*%
%TA.AperFunction,SMDPad,CuDef*%
%ADD25R,1.800000X2.200000*%
%TD*%
%TA.AperFunction,SMDPad,CuDef*%
%ADD26R,0.250000X1.500000*%
%TD*%
%TA.AperFunction,SMDPad,CuDef*%
%ADD27RoundRect,0.250000X-0.450000X0.262500X-0.450000X-0.262500X0.450000X-0.262500X0.450000X0.262500X0*%
%TD*%
%TA.AperFunction,ViaPad*%
%ADD28C,0.450000*%
%TD*%
%TA.AperFunction,ViaPad*%
%ADD29C,0.800000*%
%TD*%
%TA.AperFunction,ViaPad*%
%ADD30C,2.000000*%
%TD*%
%TA.AperFunction,Conductor*%
%ADD31C,0.200000*%
%TD*%
%TA.AperFunction,Conductor*%
%ADD32C,1.000000*%
%TD*%
%TA.AperFunction,Conductor*%
%ADD33C,0.400000*%
%TD*%
%TA.AperFunction,Conductor*%
%ADD34C,3.000000*%
%TD*%
G04 APERTURE END LIST*
D10*
%TO.P,H4,1,1_1*%
%TO.N,GND*%
X153875000Y-123075000D03*
X154358274Y-121908274D03*
X154358274Y-124241726D03*
X155525000Y-121425000D03*
D11*
X155525000Y-123075000D03*
D10*
X155525000Y-124725000D03*
X156691726Y-121908274D03*
X156691726Y-124241726D03*
X157175000Y-123075000D03*
%TD*%
%TO.P,H2,1,1_1*%
%TO.N,GND*%
X153875000Y-74775000D03*
X154358274Y-73608274D03*
X154358274Y-75941726D03*
X155525000Y-73125000D03*
D11*
X155525000Y-74775000D03*
D10*
X155525000Y-76425000D03*
X156691726Y-73608274D03*
X156691726Y-75941726D03*
X157175000Y-74775000D03*
%TD*%
D12*
%TO.P,U1,17,EXP_17*%
%TO.N,GND*%
X104300000Y-110815000D03*
X104300000Y-111915000D03*
X105400000Y-110815000D03*
X105400000Y-111915000D03*
%TD*%
D10*
%TO.P,H1,1,1_1*%
%TO.N,GND*%
X126625000Y-64175000D03*
X127108274Y-63008274D03*
X127108274Y-65341726D03*
X128275000Y-62525000D03*
D11*
X128275000Y-64175000D03*
D10*
X128275000Y-65825000D03*
X129441726Y-63008274D03*
X129441726Y-65341726D03*
X129925000Y-64175000D03*
%TD*%
%TO.P,H6,1,1_1*%
%TO.N,GND*%
X99475000Y-122925000D03*
X99958274Y-121758274D03*
X99958274Y-124091726D03*
X101125000Y-121275000D03*
D11*
X101125000Y-122925000D03*
D10*
X101125000Y-124575000D03*
X102291726Y-121758274D03*
X102291726Y-124091726D03*
X102775000Y-122925000D03*
%TD*%
D13*
%TO.P,J3,1,Pin_1_1*%
%TO.N,VOUT*%
X154100000Y-104800000D03*
D14*
%TO.P,J3,2,Pin_2_2*%
%TO.N,GND*%
X154100000Y-101300000D03*
%TD*%
D13*
%TO.P,J4,1,Pin_1_1*%
%TO.N,VSYS*%
X154100000Y-94732500D03*
D14*
%TO.P,J4,2,Pin_2_2*%
%TO.N,GND*%
X154100000Y-91232500D03*
%TD*%
D10*
%TO.P,H3,1,1_1*%
%TO.N,GND*%
X99475000Y-74775000D03*
X99958274Y-73608274D03*
X99958274Y-75941726D03*
X101125000Y-73125000D03*
D11*
X101125000Y-74775000D03*
D10*
X101125000Y-76425000D03*
X102291726Y-73608274D03*
X102291726Y-75941726D03*
X102775000Y-74775000D03*
%TD*%
D15*
%TO.P,SW1,A,A_A*%
%TO.N,LOCAL_ENCODER_CHA*%
X136500000Y-112650000D03*
D16*
%TO.P,SW1,B,B_B*%
%TO.N,LOCAL_ENCODER_CHB*%
X136500000Y-117650000D03*
%TO.P,SW1,C,C_C*%
%TO.N,GND*%
X136500000Y-115150000D03*
D17*
%TO.P,SW1,MP,MP_MP*%
X144000000Y-109550000D03*
X144000000Y-120750000D03*
D16*
%TO.P,SW1,S1,S1_S1*%
%TO.N,DEV_PAD_CENTER*%
X151000000Y-117650000D03*
%TO.P,SW1,S2,S2_S2*%
%TO.N,GND*%
X151000000Y-112650000D03*
%TD*%
D18*
%TO.P,C17,1*%
%TO.N,GND*%
X125550000Y-95850000D03*
%TO.P,C17,2*%
%TO.N,Net-(J2-Pin_27)*%
X123650000Y-95850000D03*
%TD*%
D19*
%TO.P,J1,1,1_1*%
%TO.N,SWCLK*%
X135750000Y-86000000D03*
%TO.P,J1,2,2_2*%
%TO.N,GND*%
X135750000Y-82400000D03*
%TO.P,J1,3,3_3*%
%TO.N,SWDIO*%
X135250000Y-86000000D03*
%TO.P,J1,4,4_4*%
%TO.N,GND*%
X135250000Y-82400000D03*
%TO.P,J1,5,5_5*%
%TO.N,LOCAL_ENCODER_CHB*%
X134750000Y-86000000D03*
%TO.P,J1,6,6_6*%
%TO.N,GND*%
X134750000Y-82400000D03*
%TO.P,J1,7,7_7*%
%TO.N,LOCAL_LCD_SCK*%
X134250000Y-86000000D03*
%TO.P,J1,8,8_8*%
%TO.N,LOCAL_ENCODER_CHA*%
X134250000Y-82400000D03*
%TO.P,J1,9,9_9*%
%TO.N,LOCAL_LCD_DC*%
X133750000Y-86000000D03*
%TO.P,J1,10,10_10*%
%TO.N,{slash}QON*%
X133750000Y-82400000D03*
%TO.P,J1,11,11_11*%
%TO.N,LOCAL_LCD_SS*%
X133250000Y-86000000D03*
%TO.P,J1,12,12_12*%
%TO.N,INT_I2C_SDA*%
X133250000Y-82400000D03*
%TO.P,J1,13,13_13*%
%TO.N,LOCAL_LCD_MOSI*%
X132750000Y-86000000D03*
%TO.P,J1,14,14_14*%
%TO.N,INT_I2C_SCL*%
X132750000Y-82400000D03*
%TO.P,J1,15,15_15*%
%TO.N,HRTIM_EEV9*%
X132250000Y-86000000D03*
%TO.P,J1,16,16_16*%
%TO.N,+3.3VP*%
X132250000Y-82400000D03*
%TO.P,J1,17,17_17*%
%TO.N,KEY_INT*%
X131750000Y-86000000D03*
%TO.P,J1,18,18_18*%
%TO.N,+3.3VP*%
X131750000Y-82400000D03*
%TO.P,J1,19,19_19*%
%TO.N,NRST*%
X131250000Y-86000000D03*
%TO.P,J1,20,20_20*%
%TO.N,VCC*%
X131250000Y-82400000D03*
D20*
%TO.P,J1,S1*%
%TO.N,N/C*%
X137500000Y-84200000D03*
%TO.P,J1,S2*%
X129500000Y-84200000D03*
%TD*%
D21*
%TO.P,C16,1*%
%TO.N,Net-(J2-Pin_5)*%
X134050000Y-93900000D03*
%TO.P,C16,2*%
%TO.N,Net-(J2-Pin_4)*%
X134050000Y-95800000D03*
%TD*%
D22*
%TO.P,C18,1*%
%TO.N,GND*%
X120150000Y-95850000D03*
%TO.P,C18,2*%
%TO.N,+7V*%
X122050000Y-95850000D03*
%TD*%
D23*
%TO.P,R6,1*%
%TO.N,+3.3V*%
X130930000Y-96050000D03*
%TO.P,R6,2*%
%TO.N,Net-(J2-Pin_6)*%
X131950000Y-96050000D03*
%TD*%
D24*
%TO.P,J2,1,Pin_1_1*%
%TO.N,GND*%
X135550000Y-98000000D03*
%TO.P,J2,2,Pin_2_2*%
%TO.N,Net-(J2-Pin_2)*%
X135050000Y-98000000D03*
%TO.P,J2,3,Pin_3_3*%
%TO.N,Net-(J2-Pin_3)*%
X134550000Y-98000000D03*
%TO.P,J2,4,Pin_4_4*%
%TO.N,Net-(J2-Pin_4)*%
X134050000Y-98000000D03*
%TO.P,J2,5,Pin_5_5*%
%TO.N,Net-(J2-Pin_5)*%
X133550000Y-98000000D03*
%TO.P,J2,6,Pin_6_6*%
%TO.N,Net-(J2-Pin_6)*%
X133050000Y-98000000D03*
%TO.P,J2,7,Pin_7_7*%
%TO.N,unconnected-(J2-Pin_7-Pad7)*%
X132550000Y-98000000D03*
%TO.P,J2,8,Pin_8_8*%
%TO.N,GND*%
X132050000Y-98000000D03*
%TO.P,J2,9,Pin_9_9*%
%TO.N,+3.3V*%
X131550000Y-98000000D03*
%TO.P,J2,10,Pin_10_10*%
X131050000Y-98000000D03*
%TO.P,J2,11,Pin_11_11*%
%TO.N,GND*%
X130550000Y-98000000D03*
%TO.P,J2,12,Pin_12_12*%
X130050000Y-98000000D03*
%TO.P,J2,13,Pin_13_13*%
%TO.N,LOCAL_LCD_SS*%
X129550000Y-98000000D03*
%TO.P,J2,14,Pin_14_14*%
%TO.N,OLED_RST*%
X129050000Y-98000000D03*
%TO.P,J2,15,Pin_15_15*%
%TO.N,LOCAL_LCD_DC*%
X128550000Y-98000000D03*
%TO.P,J2,16,Pin_16_16*%
%TO.N,GND*%
X128050000Y-98000000D03*
%TO.P,J2,17,Pin_17_17*%
X127550000Y-98000000D03*
%TO.P,J2,18,Pin_18_18*%
%TO.N,LOCAL_LCD_SCK*%
X127050000Y-98000000D03*
%TO.P,J2,19,Pin_19_19*%
%TO.N,LOCAL_LCD_MOSI*%
X126550000Y-98000000D03*
%TO.P,J2,20,Pin_20_20*%
%TO.N,GND*%
X126050000Y-98000000D03*
%TO.P,J2,21,Pin_21_21*%
X125550000Y-98000000D03*
%TO.P,J2,22,Pin_22_22*%
X125050000Y-98000000D03*
%TO.P,J2,23,Pin_23_23*%
X124550000Y-98000000D03*
%TO.P,J2,24,Pin_24_24*%
X124050000Y-98000000D03*
%TO.P,J2,25,Pin_25_25*%
X123550000Y-98000000D03*
%TO.P,J2,26,Pin_26_26*%
%TO.N,Net-(J2-Pin_26)*%
X123050000Y-98000000D03*
%TO.P,J2,27,Pin_27_27*%
%TO.N,Net-(J2-Pin_27)*%
X122550000Y-98000000D03*
%TO.P,J2,28,Pin_28_28*%
%TO.N,+7V*%
X122050000Y-98000000D03*
%TO.P,J2,29,Pin_29_29*%
%TO.N,GND*%
X121550000Y-98000000D03*
%TO.P,J2,30,Pin_30_30*%
X121050000Y-98000000D03*
D25*
%TO.P,J2,MP,MountPin_MP*%
X137450000Y-101250000D03*
X119150000Y-101250000D03*
%TD*%
D26*
%TO.P,U3,1,1_1*%
%TO.N,GND*%
X119900000Y-76100000D03*
%TO.P,U3,2,2_2*%
X119900000Y-72100000D03*
%TO.P,U3,3,3_3*%
X119400000Y-76100000D03*
%TO.P,U3,4,4_4*%
X119400000Y-72100000D03*
%TO.P,U3,5,5_5*%
X118900000Y-76100000D03*
%TO.P,U3,6,6_6*%
X118900000Y-72100000D03*
%TO.P,U3,7,7_7*%
X118400000Y-76100000D03*
%TO.P,U3,8,8_8*%
X118400000Y-72100000D03*
%TO.P,U3,9,9_9*%
X117900000Y-76100000D03*
%TO.P,U3,10,10_10*%
X117900000Y-72100000D03*
%TO.P,U3,11,11_11*%
X117400000Y-76100000D03*
%TO.P,U3,12,12_12*%
X117400000Y-72100000D03*
%TO.P,U3,13,13_13*%
X116900000Y-76100000D03*
%TO.P,U3,14,14_14*%
X116900000Y-72100000D03*
%TO.P,U3,15,15_15*%
X116400000Y-76100000D03*
%TO.P,U3,16,16_16*%
X116400000Y-72100000D03*
%TO.P,U3,17,17_17*%
X115900000Y-76100000D03*
%TO.P,U3,18,18_18*%
X115900000Y-72100000D03*
%TO.P,U3,19,19_19*%
X115400000Y-76100000D03*
%TO.P,U3,20,20_20*%
X115400000Y-72100000D03*
%TO.P,U3,21,21_21*%
%TO.N,VOUT*%
X114900000Y-76100000D03*
%TO.P,U3,22,22_22*%
%TO.N,VSYS*%
X114900000Y-72100000D03*
%TO.P,U3,23,23_23*%
%TO.N,VOUT*%
X114400000Y-76100000D03*
%TO.P,U3,24,24_24*%
%TO.N,VSYS*%
X114400000Y-72100000D03*
%TO.P,U3,25,25_25*%
%TO.N,VOUT*%
X113900000Y-76100000D03*
%TO.P,U3,26,26_26*%
%TO.N,VSYS*%
X113900000Y-72100000D03*
%TO.P,U3,27,27_27*%
%TO.N,VOUT*%
X113400000Y-76100000D03*
%TO.P,U3,28,28_28*%
%TO.N,VSYS*%
X113400000Y-72100000D03*
%TO.P,U3,29,29_29*%
%TO.N,VOUT*%
X112900000Y-76100000D03*
%TO.P,U3,30,30_30*%
%TO.N,VSYS*%
X112900000Y-72100000D03*
%TO.P,U3,31,31_31*%
%TO.N,VOUT*%
X112400000Y-76100000D03*
%TO.P,U3,32,32_32*%
%TO.N,VSYS*%
X112400000Y-72100000D03*
%TO.P,U3,33,33_33*%
%TO.N,VOUT*%
X111900000Y-76100000D03*
%TO.P,U3,34,34_34*%
%TO.N,VSYS*%
X111900000Y-72100000D03*
%TO.P,U3,35,35_35*%
%TO.N,VOUT*%
X111400000Y-76100000D03*
%TO.P,U3,36,36_36*%
%TO.N,VSYS*%
X111400000Y-72100000D03*
%TO.P,U3,37,37_37*%
%TO.N,VOUT*%
X110900000Y-76100000D03*
%TO.P,U3,38,38_38*%
%TO.N,VSYS*%
X110900000Y-72100000D03*
%TO.P,U3,39,39_39*%
%TO.N,VOUT*%
X110400000Y-76100000D03*
%TO.P,U3,40,40_40*%
%TO.N,VSYS*%
X110400000Y-72100000D03*
%TD*%
D27*
%TO.P,R9,1*%
%TO.N,GND*%
X116650000Y-97325000D03*
%TO.P,R9,2*%
%TO.N,Net-(J2-Pin_26)*%
X116650000Y-99150000D03*
%TD*%
D21*
%TO.P,C10,1*%
%TO.N,Net-(J2-Pin_3)*%
X136750000Y-93900000D03*
%TO.P,C10,2*%
%TO.N,Net-(J2-Pin_2)*%
X136750000Y-95800000D03*
%TD*%
D28*
%TO.N,GND*%
X119400000Y-74750000D03*
X128600000Y-119150000D03*
X132600000Y-64250000D03*
X118900000Y-74750000D03*
X130550000Y-99200000D03*
X119900000Y-74750000D03*
D29*
X135600000Y-78750000D03*
D28*
X128600000Y-115150000D03*
X116650000Y-96150000D03*
X105800000Y-115150000D03*
D29*
X99600000Y-91950000D03*
D28*
X114250000Y-66800000D03*
X102200000Y-107950000D03*
X133150000Y-119800000D03*
D29*
X136350000Y-80500000D03*
D28*
X128650000Y-111150000D03*
X120150000Y-94500000D03*
X119400000Y-73350000D03*
X115400000Y-73350000D03*
X142300000Y-66850000D03*
X110900000Y-65300000D03*
X118400000Y-74750000D03*
X146100000Y-64300000D03*
X157950000Y-85300000D03*
X119900000Y-73350000D03*
X125550000Y-94500000D03*
D29*
X103450000Y-87150000D03*
D28*
X111500000Y-111150000D03*
X126050000Y-99200000D03*
D29*
X120400000Y-98000000D03*
D28*
X115900000Y-74750000D03*
X115400000Y-74750000D03*
X135550000Y-99200000D03*
X116400000Y-74750000D03*
X117400000Y-74750000D03*
X116900000Y-73350000D03*
X132050000Y-99200000D03*
X137500000Y-103250000D03*
X117900000Y-73350000D03*
X106100000Y-85050000D03*
X115900000Y-73350000D03*
X118400000Y-73350000D03*
X116400000Y-73350000D03*
X133150000Y-110550000D03*
X105600000Y-119150000D03*
X104800000Y-81950000D03*
D29*
X99600000Y-94350000D03*
D28*
X117400000Y-73350000D03*
X127600000Y-99300000D03*
D29*
X135650000Y-79850000D03*
D28*
X155500000Y-66850000D03*
D29*
X105850000Y-80250000D03*
D28*
X98950000Y-113650000D03*
X119150000Y-103250000D03*
X117900000Y-74750000D03*
X123700000Y-64150000D03*
X107300000Y-112500000D03*
X118900000Y-73350000D03*
X116900000Y-74750000D03*
D29*
X99700000Y-120000000D03*
D28*
X101200000Y-66800000D03*
%TO.N,+3.3V*%
X133100000Y-116750000D03*
X133100000Y-113650000D03*
X131050000Y-96950000D03*
X102100000Y-110150000D03*
D29*
X102650000Y-116950000D03*
D28*
%TO.N,HRTIM_EEV9*%
X127975000Y-78625000D03*
%TO.N,Net-(U1-A1)*%
X100550000Y-112300000D03*
X102473217Y-112069247D03*
%TO.N,Net-(U1-A2)*%
X99450000Y-112350000D03*
X102600000Y-112750000D03*
%TO.N,OLED_RST*%
X129050000Y-99500000D03*
X111750000Y-96800000D03*
X107450000Y-88050000D03*
%TO.N,SHUTDOWN*%
X115600000Y-84950000D03*
X115600000Y-90350000D03*
%TO.N,KEY_INT*%
X130550000Y-88500000D03*
%TO.N,INT_I2C_SCL*%
X132700000Y-80100000D03*
%TO.N,INT_I2C_SDA*%
X133225000Y-79550000D03*
D30*
%TO.N,+3.3VP*%
X113100000Y-82800000D03*
D29*
%TO.N,+7V*%
X108800000Y-88950000D03*
D28*
%TO.N,{slash}QON*%
X129600000Y-75950000D03*
%TO.N,LOCAL_ENCODER_CHA*%
X138400000Y-79600000D03*
%TO.N,SWDIO*%
X141025000Y-85875000D03*
%TO.N,NRST*%
X129900000Y-78600000D03*
%TO.N,SWCLK*%
X140800000Y-84450000D03*
%TO.N,LOCAL_LCD_DC*%
X132500000Y-90350000D03*
X131025000Y-93625000D03*
%TO.N,LOCAL_LCD_SS*%
X129550000Y-96400000D03*
X129550000Y-93100000D03*
D29*
%TO.N,VCC*%
X130300000Y-82400000D03*
%TD*%
%TO.N,GND*%
D31*
X119900000Y-73350000D02*
X119900000Y-72100000D01*
X137450000Y-103200000D02*
X137500000Y-103250000D01*
X116900000Y-73350000D02*
X116900000Y-74750000D01*
X123550000Y-98900000D02*
X123550000Y-98000000D01*
X124350000Y-99200000D02*
X124050000Y-98900000D01*
X121050000Y-98000000D02*
X120400000Y-98000000D01*
X125550000Y-98000000D02*
X125550000Y-99050000D01*
X125550000Y-95850000D02*
X125550000Y-94500000D01*
X130050000Y-98700000D02*
X130550000Y-99200000D01*
X134750000Y-79600000D02*
X134750000Y-82400000D01*
X119400000Y-72100000D02*
X119400000Y-73350000D01*
X117400000Y-72100000D02*
X117400000Y-73350000D01*
X119400000Y-74750000D02*
X119400000Y-76100000D01*
X124850000Y-99200000D02*
X124550000Y-98900000D01*
X118900000Y-74750000D02*
X118900000Y-76100000D01*
X116650000Y-97325000D02*
X116650000Y-96150000D01*
X118400000Y-74750000D02*
X118400000Y-76100000D01*
X124850000Y-99200000D02*
X124350000Y-99200000D01*
X125050000Y-98000000D02*
X125050000Y-98900000D01*
X135650000Y-79850000D02*
X135250000Y-80250000D01*
X135750000Y-81100000D02*
X136350000Y-80500000D01*
X118900000Y-72100000D02*
X118900000Y-73350000D01*
X125350000Y-99200000D02*
X125700000Y-99200000D01*
X137450000Y-101250000D02*
X137450000Y-103200000D01*
X130050000Y-98000000D02*
X130050000Y-98700000D01*
X132050000Y-98000000D02*
X132050000Y-99200000D01*
X115400000Y-73350000D02*
X115400000Y-74750000D01*
X119400000Y-73350000D02*
X119400000Y-74750000D01*
X116400000Y-73350000D02*
X116400000Y-74750000D01*
X124350000Y-99200000D02*
X123850000Y-99200000D01*
X115400000Y-74750000D02*
X115400000Y-76100000D01*
X128050000Y-98850000D02*
X127600000Y-99300000D01*
X117400000Y-74750000D02*
X117400000Y-76100000D01*
X116900000Y-72100000D02*
X116900000Y-73350000D01*
X118400000Y-72100000D02*
X118400000Y-73350000D01*
X127550000Y-99250000D02*
X127550000Y-98000000D01*
X123850000Y-99200000D02*
X123550000Y-98900000D01*
X124550000Y-98900000D02*
X124550000Y-98000000D01*
X115900000Y-72100000D02*
X115900000Y-73350000D01*
X116400000Y-74750000D02*
X116400000Y-76100000D01*
X119150000Y-101250000D02*
X119150000Y-103250000D01*
X130550000Y-98000000D02*
X130550000Y-99200000D01*
X116900000Y-74750000D02*
X116900000Y-76100000D01*
X124050000Y-98900000D02*
X124050000Y-98000000D01*
X125700000Y-99200000D02*
X126050000Y-99200000D01*
X121550000Y-98000000D02*
X121050000Y-98000000D01*
X128050000Y-98000000D02*
X128050000Y-98850000D01*
X118900000Y-73350000D02*
X118900000Y-74750000D01*
X135600000Y-78750000D02*
X134750000Y-79600000D01*
X116400000Y-72100000D02*
X116400000Y-73350000D01*
X120150000Y-95850000D02*
X120150000Y-94500000D01*
X135550000Y-98000000D02*
X135550000Y-99200000D01*
X135750000Y-82400000D02*
X135750000Y-81100000D01*
X115900000Y-74750000D02*
X115900000Y-76100000D01*
X119900000Y-76100000D02*
X119900000Y-74750000D01*
X125050000Y-98900000D02*
X125350000Y-99200000D01*
X119900000Y-74750000D02*
X119900000Y-73350000D01*
X115400000Y-72100000D02*
X115400000Y-73350000D01*
X125350000Y-99200000D02*
X124850000Y-99200000D01*
X135250000Y-80250000D02*
X135250000Y-82400000D01*
X117900000Y-72100000D02*
X117900000Y-73350000D01*
X117900000Y-74750000D02*
X117900000Y-76100000D01*
X117900000Y-73350000D02*
X117900000Y-74750000D01*
X126050000Y-98000000D02*
X126050000Y-99200000D01*
X127600000Y-99300000D02*
X127550000Y-99250000D01*
X115900000Y-73350000D02*
X115900000Y-74750000D01*
X118400000Y-73350000D02*
X118400000Y-74750000D01*
X125550000Y-99050000D02*
X125700000Y-99200000D01*
X117400000Y-73350000D02*
X117400000Y-74750000D01*
%TO.N,+3.3V*%
X131550000Y-97150000D02*
X131350000Y-96950000D01*
X130930000Y-96050000D02*
X130930000Y-96830000D01*
X130930000Y-96830000D02*
X131050000Y-96950000D01*
X131350000Y-96950000D02*
X131050000Y-96950000D01*
X131050000Y-98000000D02*
X131050000Y-96950000D01*
X131550000Y-98000000D02*
X131550000Y-97150000D01*
%TO.N,HRTIM_EEV9*%
X132250000Y-88400000D02*
X132250000Y-86000000D01*
X129350000Y-89300000D02*
X131350000Y-89300000D01*
X127250000Y-79350000D02*
X127250000Y-87200000D01*
X131350000Y-89300000D02*
X132250000Y-88400000D01*
X127250000Y-87200000D02*
X129350000Y-89300000D01*
X127975000Y-78625000D02*
X127250000Y-79350000D01*
%TO.N,Net-(U1-A1)*%
X102473217Y-112069247D02*
X100780753Y-112069247D01*
X100780753Y-112069247D02*
X100550000Y-112300000D01*
%TO.N,Net-(U1-A2)*%
X102450000Y-112900000D02*
X100000000Y-112900000D01*
X102600000Y-112750000D02*
X102450000Y-112900000D01*
X100000000Y-112900000D02*
X99450000Y-112350000D01*
%TO.N,OLED_RST*%
X107450000Y-88050000D02*
X107450000Y-91350000D01*
X111550000Y-95450000D02*
X111750000Y-95650000D01*
X111750000Y-95650000D02*
X111750000Y-96800000D01*
X107450000Y-91350000D02*
X111550000Y-95450000D01*
X129050000Y-99500000D02*
X129050000Y-98000000D01*
%TO.N,SHUTDOWN*%
X115600000Y-90350000D02*
X115600000Y-84950000D01*
%TO.N,KEY_INT*%
X130576000Y-88526000D02*
X130550000Y-88500000D01*
X131776000Y-86026000D02*
X131776000Y-88217877D01*
X131750000Y-86000000D02*
X131776000Y-86026000D01*
X131776000Y-88217877D02*
X131467877Y-88526000D01*
X131467877Y-88526000D02*
X130576000Y-88526000D01*
%TO.N,INT_I2C_SCL*%
X132700000Y-80100000D02*
X132750000Y-80150000D01*
X132750000Y-80150000D02*
X132750000Y-82400000D01*
%TO.N,INT_I2C_SDA*%
X133225000Y-79550000D02*
X133250000Y-79575000D01*
X133250000Y-79575000D02*
X133250000Y-82400000D01*
%TO.N,+3.3VP*%
X131825000Y-80725000D02*
X131900000Y-80650000D01*
X131750000Y-82400000D02*
X131750000Y-80800000D01*
D32*
X131300000Y-80200000D02*
X131825000Y-80725000D01*
X131300000Y-78300000D02*
X131300000Y-80200000D01*
X130600000Y-77600000D02*
X131300000Y-78300000D01*
D31*
X132250000Y-81000000D02*
X131900000Y-80650000D01*
D32*
X127400000Y-77600000D02*
X130600000Y-77600000D01*
X113100000Y-82800000D02*
X122200000Y-82800000D01*
X122200000Y-82800000D02*
X127400000Y-77600000D01*
D31*
X131750000Y-80800000D02*
X131825000Y-80725000D01*
X132250000Y-82400000D02*
X132250000Y-81000000D01*
%TO.N,+7V*%
D33*
X112250000Y-88950000D02*
X115800000Y-92500000D01*
X122050000Y-94200000D02*
X122050000Y-95850000D01*
D31*
X122050000Y-98000000D02*
X122050000Y-95850000D01*
D33*
X108800000Y-88950000D02*
X112250000Y-88950000D01*
X120350000Y-92500000D02*
X122050000Y-94200000D01*
X115800000Y-92500000D02*
X120350000Y-92500000D01*
%TO.N,LOCAL_ENCODER_CHB*%
D31*
X136500000Y-117650000D02*
X139281313Y-117650000D01*
X139300000Y-92900000D02*
X134750000Y-88350000D01*
X141500000Y-100400000D02*
X139300000Y-98200000D01*
X134750000Y-88350000D02*
X134750000Y-86000000D01*
X139281313Y-117650000D02*
X141500000Y-115431313D01*
X139300000Y-98200000D02*
X139300000Y-92900000D01*
X141500000Y-115431313D02*
X141500000Y-100400000D01*
%TO.N,VOUT*%
D34*
X143102000Y-85102000D02*
X143102000Y-97302000D01*
X111900000Y-78000000D02*
X113450000Y-79550000D01*
X136750000Y-73800000D02*
X143050000Y-80100000D01*
X126350000Y-73800000D02*
X136750000Y-73800000D01*
X143050000Y-80100000D02*
X143050000Y-85050000D01*
X150632500Y-104832500D02*
X154100000Y-104832500D01*
X113450000Y-79550000D02*
X120600000Y-79550000D01*
X110400000Y-76100000D02*
X113400000Y-76100000D01*
X143102000Y-97302000D02*
X150632500Y-104832500D01*
X120600000Y-79550000D02*
X126350000Y-73800000D01*
X111900000Y-76100000D02*
X111900000Y-78000000D01*
X143050000Y-85050000D02*
X143102000Y-85102000D01*
%TO.N,VSYS*%
X150800000Y-94800000D02*
X154100000Y-94800000D01*
X138100000Y-68900000D02*
X148200000Y-79000000D01*
X114950000Y-68900000D02*
X138100000Y-68900000D01*
X148200000Y-92200000D02*
X150800000Y-94800000D01*
X111750000Y-72100000D02*
X114950000Y-68900000D01*
X148200000Y-79000000D02*
X148200000Y-92200000D01*
X110400000Y-72100000D02*
X111750000Y-72100000D01*
X111750000Y-72100000D02*
X113400000Y-72100000D01*
%TO.N,{slash}QON*%
D31*
X129600000Y-75950000D02*
X131200000Y-75950000D01*
X131200000Y-75950000D02*
X133750000Y-78500000D01*
X133750000Y-78500000D02*
X133750000Y-82400000D01*
%TO.N,LOCAL_ENCODER_CHA*%
X138400000Y-79600000D02*
X136450000Y-77650000D01*
X134250000Y-78700000D02*
X134250000Y-82400000D01*
X135300000Y-77650000D02*
X134250000Y-78700000D01*
X136450000Y-77650000D02*
X135300000Y-77650000D01*
%TO.N,SWDIO*%
X138650000Y-88250000D02*
X135800000Y-88250000D01*
X135800000Y-88250000D02*
X135250000Y-87700000D01*
X141025000Y-85875000D02*
X138650000Y-88250000D01*
X135250000Y-87700000D02*
X135250000Y-86000000D01*
%TO.N,NRST*%
X128950000Y-86000000D02*
X131250000Y-86000000D01*
X128200000Y-85250000D02*
X128950000Y-86000000D01*
X129900000Y-78600000D02*
X128200000Y-80300000D01*
X128200000Y-80300000D02*
X128200000Y-85250000D01*
%TO.N,SWCLK*%
X139250000Y-86000000D02*
X135750000Y-86000000D01*
X140800000Y-84450000D02*
X139250000Y-86000000D01*
%TO.N,Net-(J2-Pin_27)*%
X122898000Y-96750000D02*
X123150000Y-96750000D01*
X122550000Y-98000000D02*
X122550000Y-97098000D01*
X122550000Y-97098000D02*
X122898000Y-96750000D01*
X123150000Y-96750000D02*
X123650000Y-96250000D01*
X123650000Y-96250000D02*
X123650000Y-95850000D01*
%TO.N,LOCAL_LCD_SCK*%
X127050000Y-96550000D02*
X127050000Y-98000000D01*
X134250000Y-89350000D02*
X127050000Y-96550000D01*
X134250000Y-86000000D02*
X134250000Y-89350000D01*
%TO.N,LOCAL_LCD_DC*%
X133750000Y-89100000D02*
X132500000Y-90350000D01*
X133750000Y-86000000D02*
X133750000Y-89100000D01*
X131025000Y-93625000D02*
X128550000Y-96100000D01*
X128550000Y-96100000D02*
X128550000Y-98000000D01*
%TO.N,LOCAL_LCD_SS*%
X129550000Y-96400000D02*
X129550000Y-98000000D01*
X129550000Y-92500000D02*
X129550000Y-93100000D01*
X131350000Y-90700000D02*
X129550000Y-92500000D01*
X133250000Y-88800000D02*
X131350000Y-90700000D01*
X133250000Y-86000000D02*
X133250000Y-88800000D01*
%TO.N,LOCAL_LCD_MOSI*%
X126550000Y-94800000D02*
X126550000Y-98000000D01*
X132750000Y-86000000D02*
X132750000Y-88600000D01*
X132750000Y-88600000D02*
X126550000Y-94800000D01*
%TO.N,VCC*%
X131250000Y-82400000D02*
X130300000Y-82400000D01*
%TO.N,Net-(J2-Pin_5)*%
X133300000Y-93900000D02*
X134050000Y-93900000D01*
X133550000Y-96850000D02*
X132800000Y-96100000D01*
X133550000Y-98000000D02*
X133550000Y-96850000D01*
X132800000Y-96100000D02*
X132800000Y-94400000D01*
X132800000Y-94400000D02*
X133300000Y-93900000D01*
%TO.N,Net-(J2-Pin_4)*%
X134050000Y-98000000D02*
X134050000Y-95800000D01*
%TO.N,Net-(J2-Pin_6)*%
X132100000Y-96050000D02*
X131950000Y-96050000D01*
X133050000Y-98000000D02*
X133050000Y-97000000D01*
X133050000Y-97000000D02*
X132100000Y-96050000D01*
%TO.N,Net-(J2-Pin_2)*%
X135600000Y-96550000D02*
X136550000Y-96550000D01*
X135050000Y-97100000D02*
X135600000Y-96550000D01*
X135050000Y-98000000D02*
X135050000Y-97100000D01*
X136750000Y-96350000D02*
X136750000Y-95800000D01*
X136550000Y-96550000D02*
X136750000Y-96350000D01*
%TO.N,Net-(J2-Pin_3)*%
X135950000Y-93900000D02*
X136750000Y-93900000D01*
X135400000Y-96050000D02*
X135400000Y-94450000D01*
X135400000Y-94450000D02*
X135950000Y-93900000D01*
X134550000Y-98000000D02*
X134550000Y-96900000D01*
X134550000Y-96900000D02*
X135400000Y-96050000D01*
%TO.N,Net-(J2-Pin_26)*%
X122802000Y-99150000D02*
X116650000Y-99150000D01*
X123050000Y-98000000D02*
X123050000Y-98902000D01*
X123050000Y-98902000D02*
X122802000Y-99150000D01*
%TD*%
M02*
