M48
; DRILL file KiCad 10.0.1-1.fc44 date 2026-05-23T22:29:48
; FORMAT={-:-/ absolute / metric / decimal}
; #@! TF.CreationDate,2026-05-23T22:29:48+02:00
; #@! TF.GenerationSoftware,Kicad,Pcbnew,10.0.1-1.fc44
; #@! TF.FileFunction,Plated,1,4,PTH
FMAT,2
METRIC
; #@! TA.AperFunction,Plated,PTH,ViaDrill
T1C0.200
; #@! TA.AperFunction,Plated,PTH,ComponentDrill
T2C0.200
; #@! TA.AperFunction,Plated,PTH,ViaDrill
T3C0.400
; #@! TA.AperFunction,Plated,PTH,ComponentDrill
T4C0.400
; #@! TA.AperFunction,Plated,PTH,ViaDrill
T5C1.000
; #@! TA.AperFunction,Plated,PTH,ComponentDrill
T6C1.000
; #@! TA.AperFunction,Plated,PTH,ComponentDrill
T7C1.200
; #@! TA.AperFunction,Plated,PTH,ComponentDrill
T8C1.500
; #@! TA.AperFunction,Plated,PTH,ComponentDrill
T9C2.200
%
G90
G05
T1
X98.95Y-113.65
X99.45Y-112.35
X100.55Y-112.3
X101.2Y-66.8
X102.1Y-110.15
X102.2Y-107.95
X102.473Y-112.069
X102.6Y-112.75
X104.8Y-81.95
X105.6Y-119.15
X105.8Y-115.15
X106.1Y-85.05
X107.3Y-112.5
X107.45Y-88.05
X110.9Y-65.3
X111.5Y-111.15
X111.75Y-96.8
X114.25Y-66.8
X115.4Y-73.35
X115.4Y-74.75
X115.6Y-84.95
X115.6Y-90.35
X115.9Y-73.35
X115.9Y-74.75
X116.4Y-73.35
X116.4Y-74.75
X116.65Y-96.15
X116.9Y-73.35
X116.9Y-74.75
X117.4Y-73.35
X117.4Y-74.75
X117.9Y-73.35
X117.9Y-74.75
X118.4Y-73.35
X118.4Y-74.75
X118.9Y-73.35
X118.9Y-74.75
X119.15Y-103.25
X119.4Y-73.35
X119.4Y-74.75
X119.9Y-73.35
X119.9Y-74.75
X120.15Y-94.5
X123.7Y-64.15
X125.55Y-94.5
X126.05Y-99.2
X127.6Y-99.3
X127.975Y-78.625
X128.6Y-115.15
X128.6Y-119.15
X128.65Y-111.15
X129.05Y-99.5
X129.55Y-93.1
X129.55Y-96.4
X129.6Y-75.95
X129.9Y-78.6
X130.55Y-88.5
X130.55Y-99.2
X131.025Y-93.625
X131.05Y-96.95
X132.05Y-99.2
X132.5Y-90.35
X132.6Y-64.25
X132.7Y-80.1
X133.1Y-113.65
X133.1Y-116.75
X133.15Y-110.55
X133.15Y-119.8
X133.225Y-79.55
X135.55Y-99.2
X137.5Y-103.25
X138.4Y-79.6
X140.8Y-84.45
X141.025Y-85.875
X142.3Y-66.85
X146.1Y-64.3
X155.5Y-66.85
X157.95Y-85.3
T2
X104.3Y-110.815
X104.3Y-111.915
X105.4Y-110.815
X105.4Y-111.915
T3
X99.6Y-91.95
X99.6Y-94.35
X99.7Y-120.0
X102.65Y-116.95
X103.45Y-87.15
X105.85Y-80.25
X108.8Y-88.95
X120.4Y-98.0
X130.3Y-82.4
X135.6Y-78.75
X135.65Y-79.85
X136.35Y-80.5
T4
X99.475Y-74.775
X99.475Y-122.925
X99.958Y-73.608
X99.958Y-75.942
X99.958Y-121.758
X99.958Y-124.092
X101.125Y-73.125
X101.125Y-76.425
X101.125Y-121.275
X101.125Y-124.575
X102.292Y-73.608
X102.292Y-75.942
X102.292Y-121.758
X102.292Y-124.092
X102.775Y-74.775
X102.775Y-122.925
X126.625Y-64.175
X127.108Y-63.008
X127.108Y-65.342
X128.275Y-62.525
X128.275Y-65.825
X129.442Y-63.008
X129.442Y-65.342
X129.925Y-64.175
X153.875Y-74.775
X153.875Y-123.075
X154.358Y-73.608
X154.358Y-75.942
X154.358Y-121.908
X154.358Y-124.242
X155.525Y-73.125
X155.525Y-76.425
X155.525Y-121.425
X155.525Y-124.725
X156.692Y-73.608
X156.692Y-75.942
X156.692Y-121.908
X156.692Y-124.242
X157.175Y-74.775
X157.175Y-123.075
T5
X113.1Y-82.8
T6
X136.5Y-112.65
X136.5Y-115.15
X136.5Y-117.65
X151.0Y-112.65
X151.0Y-117.65
T7
X154.1Y-91.233
X154.1Y-94.733
X154.1Y-101.3
X154.1Y-104.8
T9
X101.125Y-74.775
X101.125Y-122.925
X128.275Y-64.175
X155.525Y-74.775
X155.525Y-123.075
T8
G00X143.35Y-109.55
M15
G01X144.65Y-109.55
M16
G05
G00X143.35Y-120.75
M15
G01X144.65Y-120.75
M16
G05
M30
