%TF.GenerationSoftware,KiCad,Pcbnew,10.0.1-1.fc44*%
%TF.CreationDate,2026-05-23T22:29:23+02:00*%
%TF.ProjectId,resonance_converter_controller_io,7265736f-6e61-46e6-9365-5f636f6e7665,rev?*%
%TF.SameCoordinates,Original*%
%TF.FileFunction,Profile,NP*%
%FSLAX46Y46*%
G04 Gerber Fmt 4.6, Leading zero omitted, Abs format (unit mm)*
G04 Created by KiCad (PCBNEW 10.0.1-1.fc44) date 2026-05-23 22:29:23*
%MOMM*%
%LPD*%
G01*
G04 APERTURE LIST*
%TA.AperFunction,Profile*%
%ADD10C,0.050000*%
%TD*%
%TA.AperFunction,Profile*%
%ADD11C,0.010000*%
%TD*%
G04 APERTURE END LIST*
D10*
X97625000Y-60325000D02*
X159025000Y-60325000D01*
X159025000Y-139975000D01*
X97625000Y-139975000D01*
X97625000Y-60325000D01*
X100200000Y-98450000D02*
X105600000Y-98450000D01*
X105600000Y-105850000D01*
X100200000Y-105850000D01*
X100200000Y-98450000D01*
X104100000Y-130850000D02*
X153000000Y-130850000D01*
X153000000Y-136550000D01*
X104100000Y-136550000D01*
X104100000Y-130850000D01*
X115700000Y-105050000D02*
X140700000Y-105050000D01*
X140700000Y-107050000D01*
X115700000Y-107050000D01*
X115700000Y-105050000D01*
X157100000Y-116900000D02*
G75*
G02*
X154300000Y-116900000I-1400000J0D01*
G01*
X154300000Y-116900000D02*
G75*
G02*
X157100000Y-116900000I1400000J0D01*
G01*
%TO.C,S1*%
D11*
X112100000Y-119950000D02*
X115300000Y-119950000D01*
X112100000Y-121400000D02*
X112100000Y-119950000D01*
X115300000Y-119950000D02*
X115300000Y-121400000D01*
X115300000Y-121400000D02*
X112100000Y-121400000D01*
X115600000Y-108900000D02*
X118800000Y-108900000D01*
X115600000Y-110350000D02*
X115600000Y-108900000D01*
X118800000Y-108900000D02*
X118800000Y-110350000D01*
X118800000Y-110350000D02*
X115600000Y-110350000D01*
X119100000Y-119950000D02*
X119100000Y-121400000D01*
X119100000Y-121400000D02*
X122300000Y-121400000D01*
X122300000Y-119950000D02*
X119100000Y-119950000D01*
X122300000Y-121400000D02*
X122300000Y-119950000D01*
%TD*%
M02*
